<svg width="25" height="25" viewBox="0 0 25 25" fill="none" xmlns="http://www.w3.org/2000/svg">
<path d="M12.4375 20C12.875 20 13.245 19.8487 13.5475 19.5462C13.85 19.2437 14.0008 18.8741 14 18.4375C13.9992 18.0008 13.8483 17.6308 13.5475 17.3275C13.2467 17.0242 12.8767 16.8733 12.4375 16.875C11.9983 16.8767 11.6287 17.0279 11.3287 17.3287C11.0287 17.6296 10.8775 17.9992 10.875 18.4375C10.8725 18.8758 11.0237 19.2458 11.3287 19.5475C11.6337 19.8491 12.0033 20 12.4375 20ZM11.3125 15.1875H13.625C13.625 14.5 13.7033 13.9583 13.86 13.5625C14.0167 13.1667 14.4592 12.625 15.1875 11.9375C15.7292 11.3958 16.1562 10.88 16.4687 10.39C16.7812 9.89999 16.9375 9.31166 16.9375 8.625C16.9375 7.45833 16.5104 6.5625 15.6562 5.9375C14.8021 5.3125 13.7917 5 12.625 5C11.4375 5 10.4742 5.3125 9.735 5.9375C8.99583 6.5625 8.48 7.3125 8.1875 8.1875L10.25 9C10.3542 8.625 10.5887 8.21875 10.9537 7.78125C11.3187 7.34375 11.8758 7.125 12.625 7.125C13.2917 7.125 13.7917 7.3075 14.125 7.6725C14.4583 8.0375 14.625 8.43833 14.625 8.875C14.625 9.29166 14.5 9.68249 14.25 10.0475C14 10.4125 13.6875 10.7508 13.3125 11.0625C12.3958 11.875 11.8333 12.4896 11.625 12.9062C11.4167 13.3229 11.3125 14.0833 11.3125 15.1875ZM12.5 25C10.7708 25 9.14583 24.6721 7.625 24.0162C6.10416 23.3604 4.78125 22.4696 3.65625 21.3437C2.53125 20.2179 1.64083 18.895 0.985001 17.375C0.329168 15.855 0.000834915 14.23 1.58228e-06 12.5C-0.000831751 10.77 0.327501 9.145 0.985001 7.625C1.6425 6.105 2.53292 4.78208 3.65625 3.65625C4.77958 2.53042 6.1025 1.64 7.625 0.985005C9.1475 0.330006 10.7725 0.00167298 12.5 6.31312e-06C14.2275 -0.00166035 15.8525 0.326673 17.375 0.985005C18.8975 1.64334 20.2204 2.53375 21.3437 3.65625C22.4671 4.77875 23.3579 6.10167 24.0162 7.625C24.6746 9.14833 25.0025 10.7733 25 12.5C24.9975 14.2267 24.6692 15.8517 24.015 17.375C23.3608 18.8983 22.4704 20.2212 21.3437 21.3437C20.2171 22.4662 18.8942 23.3571 17.375 24.0162C15.8558 24.6754 14.2308 25.0033 12.5 25Z" fill="#BF272D"/>
</svg>
