<svg width="934" height="860" viewBox="0 0 934 860" fill="none" xmlns="http://www.w3.org/2000/svg">
<path d="M934 860V0H839.344L630.362 195.842V254.594L466.034 366L310.825 537.189L230.361 578L0 860H934Z" fill="#F2D4D5" fill-opacity="0.2"/>
<path fill-rule="evenodd" clip-rule="evenodd" d="M330.171 580.982L327.707 583.534C325.614 585.701 325.289 586.576 325.545 589.352H323.523C323.398 589.352 320.832 589.406 320.832 589.406L272.646 612.895C280.512 610.395 288.614 611.723 295.725 616.678C303.505 622.099 303.38 621.802 319.316 672.787C321.719 680.475 327.626 699.345 332.443 714.721C337.26 730.097 341.428 743.655 341.706 744.852C342.191 746.938 342.047 747.05 338.176 747.601C335.957 747.917 334.141 748.511 334.141 748.921C334.141 749.909 334.733 749.876 342.762 748.431C348.945 747.318 391.267 740.141 440.115 731.922L444.888 729.446C444.881 729.448 444.875 729.449 444.869 729.45C433.438 731.491 431.101 731.909 430.056 730.896C429.787 730.636 429.604 730.282 429.374 729.837L429.372 729.832C428.62 728.378 428.944 727.039 431.322 721.793C436.166 711.105 437.623 703.421 437.178 690.912C436.811 680.554 436.646 679.719 432.362 666.494L427.927 652.8L429.452 636.072C430.291 626.871 430.985 618.312 430.995 617.053C431.01 614.967 431.164 614.847 432.714 615.706L428.945 612.266C418.285 606.923 399.87 600.994 383.767 597.719L380.591 597.074L380.354 590.962C380.115 584.803 378.889 581.931 376.498 581.931C376.489 581.931 376.48 581.931 376.472 581.93L356.77 581.52H331.759L330.171 580.982Z" fill="#C2050C"/>
<path fill-rule="evenodd" clip-rule="evenodd" d="M278.953 725.41C270.184 697.299 262.512 672.813 256.94 655.156C256.269 653.031 255.725 651.212 255.288 649.608L272.646 762.244L265.855 807.786L266.466 809.689H387.34V801.938C387.34 795.875 387.36 795.818 389.524 795.56C390.422 795.453 404.539 795.426 422.757 795.449L421.483 794.066V787.654L421.679 787.61L422.757 785.921C413.104 788.169 400.382 791.089 394.486 792.409C388.591 793.73 378.05 796.147 371.063 797.782C338.156 805.48 326.72 808.614 324.397 808.614C316.391 808.614 305.136 801.443 301.446 794.394C299.383 790.453 296.119 780.443 278.953 725.41ZM372.833 800.319C372.569 800.592 371.884 800.621 371.311 800.383C370.678 800.121 370.866 799.926 371.791 799.887C372.628 799.852 373.096 800.046 372.833 800.319Z" fill="#C2050C"/>
<path fill-rule="evenodd" clip-rule="evenodd" d="M321.04 415.336C304.899 419.4 293.95 436.39 296.639 453.198C298.597 465.428 307.077 476.006 317.863 479.669C320.047 480.411 321.909 481.077 322.001 481.149C322.093 481.222 321.468 485.305 320.612 490.223C319.756 495.141 319.054 500.075 319.054 501.186C319.054 502.342 317.864 504.573 316.275 506.394C312.111 511.167 312.581 516.247 317.665 521.431C318.429 522.211 319.054 523.707 319.054 524.756C319.054 531.609 323.661 546.811 327.937 554.067C330.106 557.748 330.171 558.189 330.171 569.42V580.982L331.759 581.52L331.671 570.625C331.563 557.281 331.563 557.776 331.671 550.481L331.76 544.52L334.026 549.453C335.272 552.166 337.851 556.421 339.759 558.909C341.667 561.396 344.111 565.268 345.192 567.513C346.273 569.759 349.32 573.829 351.964 576.558L356.77 581.52L376.472 581.93C375.875 581.906 375.43 581.033 375.43 579.875C375.43 578.039 375.755 577.82 378.481 577.82C380.16 577.82 383.549 577.102 386.012 576.225C394.44 573.221 400.48 567.522 404.155 559.104C405.511 556.001 406.035 553.536 407.662 542.646C407.994 540.427 408.622 539.719 411.219 538.644C417.437 536.068 422.151 527.526 420.984 520.952C420.283 517.005 417.11 511.62 414.237 509.501C411.781 507.69 411.765 507.631 412.281 502.253C412.568 499.271 413.213 494.729 413.716 492.162C414.623 487.536 414.664 487.485 418.208 486.561C427.476 484.144 436.56 476.635 440.37 468.242C448.141 451.124 440.975 431.266 424.042 422.992C419.288 420.669 417.922 420.383 411.558 420.374C402.847 420.36 397.907 421.965 391.51 426.883C388.968 428.838 385.72 432.362 384.184 434.834L381.425 439.274H360.532L358.089 433.845C355.329 427.709 348.515 420.511 342.715 417.603C336.181 414.329 328.31 413.505 321.04 415.336ZM359.137 496.214C360.024 490.257 361.998 483.85 364.08 480.17C366.284 476.275 365.218 476.445 375.775 478.317C378.365 478.777 383.725 479.189 387.685 479.235C391.644 479.28 395.777 479.563 396.868 479.863C399.722 480.649 402.735 487.276 402.785 492.879C402.807 495.395 403.159 497.13 403.618 496.979C405.02 496.519 408.703 488.723 409.242 485.076C409.529 483.133 409.88 481.663 410.022 481.811C410.164 481.957 410.68 484.657 411.168 487.81C411.831 492.089 411.821 495.258 411.13 500.319C410.208 507.069 410.195 507.095 408.102 506.576C405.557 505.945 404.897 505.464 406.576 505.464C408.213 505.464 408.971 503.261 407.988 501.359C407.053 499.549 397.426 498.119 395.341 499.481C391.745 501.829 395.461 505.389 401.633 505.509L405.206 505.578L401.236 506.829C395.735 508.561 392.57 511.292 390.28 516.281C388.144 520.935 387.913 520.741 386.961 513.48C386.68 511.332 386.113 509.575 385.704 509.575C384.818 509.575 384.814 510.487 385.672 515.079C386.085 517.287 386.015 518.841 385.479 519.396C383.792 521.143 382.774 520.185 382.37 516.471C381.532 508.775 374.333 502.227 366.696 502.216C363.123 502.211 356.514 504.72 355.463 506.48C355.051 507.172 354.615 507.163 353.78 506.445C352.421 505.277 351.304 506.147 352.403 507.518C352.927 508.173 352.729 509.457 351.794 511.445L350.407 514.4L345.051 511.754C340.232 509.373 339.818 508.981 340.917 507.843C342.442 506.265 347.62 493.874 350.091 485.89L351.951 479.882L352.941 485.955C353.991 492.395 356.608 499.708 357.864 499.708C358.277 499.708 358.85 498.135 359.137 496.214ZM318.041 519.527C312.668 514.46 314.726 506.264 321.834 504.422C326.059 503.326 328.403 503.949 334.858 507.883C338.525 510.119 343.432 512.801 345.761 513.845C349.811 515.659 349.995 515.877 350.008 518.878C350.03 524.081 352.943 529.87 356.99 532.753C365.489 538.808 377.884 535.215 381.402 525.677C382.25 523.378 383.347 521.891 384.409 521.604C385.327 521.355 386.183 521.259 386.31 521.39C387.008 522.113 387.884 536.425 387.277 537.189C386.807 537.782 385.043 537.866 382.014 537.441C379.508 537.088 377.3 536.965 377.106 537.166C376.226 538.076 378.28 538.717 383.095 539.034C389.36 539.447 389.847 538.939 389.262 532.597L388.845 528.075L390.174 530.542C393.259 536.265 398.604 539.943 403.891 539.979L406.546 539.997L406.038 544.314C404.616 556.394 402.152 562.398 396.278 568.087C391.459 572.755 388.832 574.201 382.409 575.722C374.905 577.499 366.73 576.113 357.167 571.443C350.157 568.018 340.708 558.806 336.724 551.509C332.801 544.325 329.505 530.13 331.759 530.13C332.196 530.13 332.553 529.761 332.553 529.308C332.553 528.856 332.131 528.486 331.616 528.486C330.396 528.486 320.882 522.207 318.041 519.527ZM360.55 507.333C356.372 507.821 356.195 506.88 360.145 505.182C369.86 501.01 380.096 507.222 380.83 517.736C381.337 525.001 378.3 530.274 372.052 532.977C359.568 538.378 347.309 525.048 353.191 512.467C354.743 509.146 354.85 509.083 358.948 509.063C363.084 509.041 363.123 509.065 363.123 511.57C363.123 513.906 363.331 514.097 365.878 514.097C367.925 514.097 368.858 513.631 369.505 512.287C370.376 510.477 370.377 510.478 372.876 513.065L372.878 513.067C374.253 514.492 375.617 515.411 375.907 515.11C376.198 514.809 375.205 513.289 373.701 511.732C370.531 508.448 365.478 506.759 360.55 507.333ZM394.336 512.648C394.908 511.93 396.873 510.575 398.703 509.636C402.003 507.945 405.28 507.532 408.435 508.409C409.745 508.774 410.005 509.364 409.724 511.344C409.429 513.425 409.102 513.74 407.686 513.305C403.71 512.083 397.08 511.866 395.214 512.897C393.492 513.846 393.402 513.821 394.336 512.648ZM412.482 513.932C411.432 514.349 411.161 513.955 411.161 512.016C411.161 509.144 411.817 508.99 414.558 511.223C417.368 513.512 419.895 519.294 419.895 523.434C419.895 529.597 415.252 536.175 409.654 537.94C407.874 538.502 407.781 538.378 408.236 536.025C408.503 534.641 409.15 529.419 409.674 524.42C410.335 518.105 410.935 515.33 411.64 515.33C412.199 515.33 412.913 514.898 413.229 514.368C413.615 513.721 413.371 513.578 412.482 513.932ZM390.545 523.553C390.569 518.591 391.475 516.824 394.959 514.942C397.832 513.39 397.792 513.388 397.621 515.125C397.303 518.364 397.625 518.722 400.637 518.463C403.147 518.248 403.673 517.865 404.011 516.01C404.396 513.896 404.507 513.853 406.848 514.879L409.284 515.947L408.235 525.3C406.665 539.312 406.953 538.632 402.789 538.146C395.745 537.323 390.508 531.081 390.545 523.553Z" fill="#2E2E2E"/>
<path fill-rule="evenodd" clip-rule="evenodd" d="M265.855 807.786C265.855 808.821 262.743 806.621 246.497 794.102L229.281 780.835L229.761 635.787L231.584 629.62C239.114 604.162 257.528 585.869 282.133 579.402C288.287 577.785 287.649 577.541 277.852 577.774C261.204 578.169 242.718 586.734 231.165 599.407C225.481 605.643 219.559 615.295 216.686 623.008C211.846 636.007 211.862 635.663 211.862 725.929V808.044L170.97 808.002L175.734 805.598C182.599 802.133 188.041 796.37 191.714 788.677L194.79 782.233L195.019 744.465C195.229 709.928 195.133 706.567 193.904 705.159C192.627 703.698 190.7 703.621 155.421 703.621H118.283L116.637 705.788C115.397 707.42 114.991 709.142 114.991 712.777V717.599L112.411 717.617C106.798 717.656 100.045 722.592 97.0441 728.847C95.8491 731.339 95.4847 734.22 95.2798 742.791C95.048 752.475 95.2036 754.034 96.7797 757.828C99.6112 764.644 107.019 770.222 113.24 770.222C114.644 770.222 114.95 770.894 115.389 774.949C116.38 784.099 120.673 794.198 125.497 798.732C126.862 800.016 128.02 800.331 130.276 800.034L133.254 799.642V780.088H125.314C120.55 780.088 117.373 779.76 117.373 779.266C117.373 778.773 120.55 778.444 125.314 778.444H133.254V758.765L115.388 758.24L133.254 757.888V738.155H124.963C120.293 738.155 116.459 737.795 116.182 737.332C115.866 736.803 118.821 736.51 124.473 736.51H133.254V716.777H124.917C119.888 716.777 116.579 716.45 116.579 715.954C116.579 715.459 119.888 715.132 124.917 715.132H133.254V709.788C133.254 706.773 133.6 704.443 134.048 704.443C134.496 704.443 134.842 706.773 134.842 709.788V715.132H155.486V709.788C155.486 706.493 155.817 704.443 156.348 704.443C156.907 704.443 157.117 706.324 156.943 709.789L156.677 715.136L177.719 715.132V709.788C177.719 706.773 178.065 704.443 178.513 704.443C178.961 704.443 179.307 706.773 179.307 709.788V715.132H186.85C191.35 715.132 194.393 715.464 194.393 715.954C194.393 716.445 191.35 716.777 186.85 716.777H179.307V736.51H186.85C191.35 736.51 194.393 736.842 194.393 737.332C194.393 737.823 191.35 738.155 186.85 738.155H179.307V757.826L193.996 758.369L179.307 758.71V778.444H186.453C190.688 778.444 193.599 778.779 193.599 779.266C193.599 779.754 190.688 780.088 186.453 780.088H179.307V789.955C179.307 798.177 179.505 799.822 180.498 799.822C181.153 799.822 181.689 800.192 181.689 800.644C181.689 801.096 181.282 801.466 180.784 801.466C180.286 801.466 179.405 802.114 178.824 802.905C177.82 804.276 177.768 804.276 177.744 802.905C177.721 801.609 176.678 801.466 167.178 801.466H156.635L156.939 804.755C157.126 806.798 156.908 808.044 156.364 808.044C155.869 808.044 155.486 806.608 155.486 804.755V801.466H145.257C135.029 801.466 135.027 801.466 134.654 803.482C134.343 805.172 134.746 805.698 137.143 806.729C139.73 807.842 135.629 807.964 94.1483 808.001L48.2937 808.044V836H867.722V808.044H839.878C813.738 808.044 812.058 807.956 812.431 806.605C812.65 805.814 818.197 784.631 824.757 759.533C831.318 734.434 843.848 686.538 852.601 653.096C861.354 619.654 868.516 591.995 868.516 591.632C868.516 591.268 799.67 591.065 715.524 591.179L562.534 591.387L545.252 657.165C535.748 693.343 527.952 723.044 527.927 723.165C527.902 723.288 526.363 722.548 524.507 721.521C521.366 719.784 519.902 719.626 503.358 719.243L485.583 718.832L472.167 688.821C464.788 672.315 455.288 651.039 451.055 641.543C441.839 620.869 439.238 617.425 428.945 612.266L432.714 615.706C438.095 618.688 441.146 623.074 447.18 636.499C450.499 643.884 454.957 653.775 457.085 658.479C469.305 685.475 483.416 717.424 483.41 718.076C483.406 718.492 481.172 718.896 478.447 718.975C472.544 719.146 467.13 720.911 461.184 724.604C457.539 726.868 454.845 727.669 444.888 729.446L440.115 731.922C457.161 729.053 458.584 728.679 461.95 726.182C469 720.952 471.816 720.477 495.724 720.477C517.42 720.477 522.152 720.997 525.803 723.786C527.241 724.885 526.988 726.122 519.112 756.414C514.61 773.731 510.782 788.084 510.605 788.309C510.428 788.535 509.777 788.002 509.157 787.124C508.265 785.861 508.031 781.73 508.031 767.235C508.031 755.926 507.728 748.747 507.237 748.433C506.717 748.1 506.443 754.162 506.443 766.009C506.443 775.955 506.101 785.024 505.683 786.162C504.715 788.8 500.56 791.078 497.952 790.4C496.87 790.119 495.122 788.995 494.068 787.904C492.155 785.923 492.151 785.882 492.151 767.381C492.151 755.571 491.863 748.844 491.357 748.844C490.851 748.844 490.563 755.522 490.563 767.233C490.563 784.329 490.452 785.768 488.987 787.697C487.004 790.307 483.844 791.161 480.875 789.887C476.669 788.083 476.27 786.064 476.27 766.563C476.27 754.845 475.991 748.844 475.445 748.844C474.24 748.844 468.523 751.966 467.94 752.943C467.227 754.138 469.182 753.919 471.506 752.544C472.598 751.897 473.759 751.355 474.087 751.339C474.415 751.323 474.682 756.231 474.682 762.244V773.177L471.705 776.134C465.348 782.448 457.813 784.384 446.18 782.69C440.541 781.869 439.612 781.997 422.757 785.921L421.679 787.61L427.637 786.272C431.022 785.512 434.862 784.562 436.172 784.162C437.483 783.761 440.341 783.603 442.525 783.81C444.708 784.016 447.602 784.189 448.956 784.192C451.118 784.199 451.761 784.799 454.245 789.133L457.073 794.066H421.483L422.757 795.449C457.904 795.495 508.315 795.73 508.52 795.943C508.64 796.068 508.11 798.749 507.342 801.901L505.683 809.689H866.134V835.17L49.4847 834.767L49.0464 809.689H266.466L265.855 807.786ZM541.876 674.843C559.023 609.349 562.808 594.958 563.231 593.648C563.621 592.442 572.347 592.188 572.347 593.382C572.347 594.201 569.074 607.042 563.32 628.798C561.347 636.26 555.039 660.31 549.302 682.243C543.564 704.176 535.375 735.441 531.102 751.721C526.829 768.002 521.769 787.335 519.859 794.683L516.386 808.044H511.812C509.295 808.044 507.237 807.835 507.237 807.58C507.237 807.326 511.907 789.288 517.614 767.497C523.321 745.706 534.239 704.012 541.876 674.843ZM675.722 723.354C675.788 723.166 676.812 721.904 678.513 719.891C683.617 713.853 694.812 701.062 704.482 690.277C708.833 685.425 712.481 681.547 712.591 681.661C712.777 681.854 719.773 711.453 721.646 719.891C721.801 720.594 721.922 721.149 722 721.529L722.553 724.227L699.015 724.139C686.07 724.091 675.588 723.738 675.722 723.354ZM100.034 745.317C99.67 731.884 101.272 727.704 108.242 723.899C109.552 723.183 111.591 722.583 112.771 722.565C114.874 722.533 114.924 722.649 115.153 728.082C115.283 731.134 115.284 740.755 115.157 749.46C114.93 765.019 114.898 765.288 113.225 765.288C110.082 765.288 104.886 762.001 102.574 758.55C100.434 755.355 100.286 754.587 100.034 745.317ZM456.787 785.022C460.737 785.022 467.423 782.178 471.109 778.929L474.285 776.13L474.739 781.193C475.276 787.201 476.505 789.493 480.149 791.283C482.375 792.377 483.386 792.446 485.884 791.67C487.553 791.152 489.466 789.917 490.137 788.926L491.357 787.123L492.576 788.926C494.5 791.77 499.136 792.858 502.721 791.306C504.344 790.604 505.889 789.442 506.156 788.724C506.592 787.545 506.785 787.553 508.13 788.814C508.949 789.582 509.619 790.671 509.619 791.235C509.619 793.538 504.434 794.066 481.793 794.066H458.967L456.503 790.088C455.147 787.901 454.038 785.866 454.038 785.566C454.038 785.267 455.275 785.022 456.787 785.022Z" fill="#2E2E2E"/>
<path fill-rule="evenodd" clip-rule="evenodd" d="M91.1708 523.245C86.5313 524.157 78.5538 527.158 74.4963 529.517C72.0944 530.914 67.3907 534.909 64.0447 538.395C54.2727 548.574 49.5943 560.366 49.657 574.66C49.6967 583.747 50.8552 588.874 54.8166 597.49C60.5129 609.882 72.4613 620.177 86.0096 624.369C92.6175 626.414 106.508 626.409 113.006 624.359C128.737 619.398 141.169 607.314 146.523 591.779C148.194 586.928 148.711 583.706 148.97 576.508C149.348 566.004 147.684 557.97 143.413 549.672C137.895 538.951 126.097 528.924 114.594 525.177C109.16 523.407 95.9079 522.314 91.1708 523.245ZM80.6357 579.464C74.413 579.464 72.2239 569.514 77.9225 567.137C80.3046 566.143 81.2527 566.16 83.5363 567.238C89.4374 570.022 87.1967 579.464 80.6357 579.464ZM113.765 577.446C110.645 574.216 111.37 569.688 115.388 567.302C116.262 566.783 117.441 566.347 118.009 566.333C119.719 566.292 123.499 568.624 124.027 570.046C126.564 576.893 118.704 582.562 113.765 577.446ZM89.4223 599.249C84.7376 597.403 76.8784 590.884 76.8784 588.844C76.8784 587.024 77.6343 587.425 81.7847 591.445C87.4563 596.938 91.7917 598.718 99.508 598.718C107.224 598.718 111.56 596.938 117.231 591.445C121.382 587.425 122.138 587.024 122.138 588.844C122.138 590.902 114.281 597.403 109.605 599.214C103.438 601.604 95.4354 601.617 89.4223 599.249Z" fill="#BF272D" fill-opacity="0.2"/>
<path d="M389.524 795.56C387.36 795.818 387.34 795.875 387.34 801.938V809.689H457.59H505.683L507.342 801.901C508.11 798.749 508.64 796.068 508.52 795.943C508.315 795.73 457.904 795.495 422.757 795.449C404.539 795.426 390.422 795.453 389.524 795.56Z" fill="#2E2E2E"/>
<path fill-rule="evenodd" clip-rule="evenodd" d="M178.638 161.014C173.413 163.718 170.847 166.551 168.248 172.484C166.943 175.464 166.634 177.901 166.62 185.354L166.603 194.548L189.573 194.81C211.425 195.059 212.652 195.156 214.783 196.792C216.015 197.738 217.826 199.736 218.809 201.23L220.596 203.949V260.779C220.596 264.029 220.597 267.106 220.598 270.02C220.598 270.031 220.598 270.042 220.598 270.053C220.598 270.064 220.598 270.074 220.598 270.085C220.611 313.797 220.613 320.674 217.367 323.391C216.761 323.898 216.042 324.26 215.188 324.69C214.882 324.845 214.557 325.008 214.215 325.19C210.849 326.977 209.987 327.04 188.667 327.04H166.603V344.285L222.452 344.718L222.581 363.629L668.423 364.043V327.214L662.125 326.918C655.368 326.6 653.075 325.491 649.813 320.968C648.196 318.724 648.176 317.993 648.176 260.85C648.176 203.708 648.196 202.976 649.813 200.733C650.713 199.484 652.436 197.7 653.641 196.767C655.719 195.159 657.039 195.059 679.297 194.82L702.762 194.568L702.409 185.365C701.907 172.328 698.914 166.096 690.771 161.138L687.083 158.894L183.55 158.473L178.638 161.014ZM244.86 203.075C246.378 198.935 250.065 195.757 253.945 195.244C255.473 195.042 269.408 194.921 284.912 194.975C311.58 195.067 313.244 195.161 315.789 196.716C317.268 197.621 319.143 199.65 319.957 201.225C321.359 203.942 321.437 207.067 321.437 261.333V318.574L319.621 321.368L319.574 321.44C318.916 322.453 318.386 323.267 317.712 323.923C314.932 326.629 309.696 326.629 282.86 326.629H282.389C252.611 326.629 251.613 326.577 249.486 324.933C248.28 324.001 246.557 322.216 245.657 320.968C244.046 318.734 244.016 317.794 243.797 262.64C243.599 212.61 243.713 206.206 244.86 203.075ZM348.7 198.061C349.419 197.444 351.35 196.433 352.992 195.817C355.347 194.93 362.091 194.734 384.958 194.883C417.141 195.092 417.473 195.147 420.721 200.662C422.219 203.206 422.271 205.216 422.274 260.934L422.277 318.574L420.475 321.368C416.848 326.989 416.535 327.037 383.767 327.037C350.999 327.037 350.686 326.989 347.06 321.368L345.257 318.574V261.524C345.257 201.711 345.297 200.984 348.7 198.061ZM446.798 202.731C447.829 199.933 451.532 196.401 454.352 195.527C458.266 194.314 515.186 194.842 517.328 196.11C518.293 196.682 520.08 198.503 521.298 200.158L523.515 203.166V260.932C523.515 317.992 523.495 318.724 521.877 320.968C520.977 322.216 519.254 324.001 518.049 324.933C515.937 326.567 514.758 326.636 485.543 326.836C455.365 327.043 455.215 327.036 452.135 325.191C451.836 325.012 451.551 324.848 451.28 324.693C450.496 324.243 449.83 323.861 449.265 323.358C446.084 320.526 446.085 313.861 446.096 269.683C446.097 266.973 446.098 264.122 446.098 261.122C446.098 230.054 446.413 203.778 446.798 202.731ZM551.178 198.062C552.283 196.993 554.371 195.818 555.819 195.451C557.267 195.083 571.557 194.847 587.575 194.927C615.637 195.067 616.778 195.133 618.89 196.767C620.095 197.7 621.817 199.484 622.718 200.733C624.33 202.967 624.358 203.894 624.57 259.794C624.782 315.866 624.763 316.629 623.132 320.118C621.929 322.694 620.565 324.111 618.101 325.346C614.877 326.962 613.4 327.039 585.793 327.022C559.072 327.005 556.609 326.884 553.536 325.439C551.179 324.331 549.73 322.906 548.573 320.556C546.97 317.302 546.938 316.152 546.938 260.842C546.938 258.688 546.938 256.612 546.938 254.613V254.61C546.933 208.274 546.933 202.82 549.54 199.705C549.887 199.29 550.282 198.916 550.728 198.492C550.731 198.49 550.734 198.487 550.736 198.484C550.738 198.483 550.74 198.481 550.742 198.479C550.746 198.475 550.751 198.47 550.756 198.466C550.892 198.337 551.033 198.203 551.178 198.062Z" fill="#A6A5A5" fill-opacity="0.2"/>
<path d="M49.4847 834.767L866.134 835.17V809.689H505.683H457.59H387.34H266.466H49.0464L49.4847 834.767Z" fill="#A6A5A5"/>
<path d="M736.159 418.466C734.028 422.223 727.842 433.159 722.41 442.769C716.978 452.379 712.314 460.241 712.044 460.241C711.773 460.241 707.513 454.968 702.576 448.524C695.149 438.828 693.244 436.807 691.532 436.807C687.13 436.807 688.462 439.734 699.539 454.406C705.353 462.106 710.684 468.612 711.387 468.865C712.09 469.116 713.162 469.11 713.769 468.851C714.376 468.591 721.638 456.335 729.905 441.616C745.543 413.773 746.022 412.563 741.664 411.888C740.361 411.686 739.247 413.018 736.159 418.466Z" fill="#488B1E"/>
<path d="M689.597 330.055C688.111 331.593 690.018 334.21 700.581 345.129C706.913 351.675 712.093 357.405 712.091 357.863C712.089 358.321 706.908 364.027 700.578 370.544C694.237 377.071 689.068 383.058 689.068 383.876C689.068 384.692 689.815 385.774 690.729 386.281C692.232 387.114 693.559 386 704.636 374.616L716.882 362.029L728.979 374.415C741.217 386.945 743.145 388.206 744.301 384.436C744.728 383.043 742.665 380.501 732.825 370.296L720.827 357.853L731.996 346.351C743.923 334.07 744.91 332.809 744.164 330.799C742.968 327.571 740.086 329.557 728.481 341.608L716.828 353.71L705.121 341.608C694.147 330.263 691.383 328.206 689.597 330.055Z" fill="#FF0000"/>
<path d="M689.597 495.323C687.862 497.119 689.882 500.023 700.757 511.375L712.447 523.578L700.757 535.704C694.328 542.372 689.068 548.458 689.068 549.228C689.068 549.998 689.815 551.042 690.729 551.549C692.231 552.382 693.542 551.286 704.434 540.092L716.477 527.714L728.505 540.022C735.12 546.792 740.855 552.331 741.248 552.331C742.968 552.331 744.824 550.085 744.359 548.567C744.092 547.696 738.688 541.624 732.351 535.073L720.828 523.162L732.825 510.719C742.842 500.33 744.733 497.988 744.285 496.526C743.141 492.795 740.584 494.483 728.58 506.892L716.858 519.01L705.137 506.892C694.148 495.532 691.383 493.473 689.597 495.323Z" fill="#FF0000"/>
<path d="M360.145 505.182C356.195 506.88 356.372 507.821 360.55 507.333C365.478 506.759 370.531 508.448 373.701 511.732C375.205 513.289 376.198 514.809 375.907 515.11C375.617 515.411 374.253 514.492 372.878 513.067L372.876 513.065C370.377 510.478 370.376 510.477 369.505 512.287C368.858 513.631 367.925 514.097 365.878 514.097C363.331 514.097 363.123 513.906 363.123 511.57C363.123 509.065 363.084 509.041 358.948 509.063C354.85 509.083 354.743 509.146 353.191 512.467C347.309 525.048 359.568 538.378 372.052 532.977C378.3 530.274 381.337 525.001 380.83 517.736C380.096 507.222 369.86 501.01 360.145 505.182Z" fill="#FF9497"/>
<path d="M394.959 514.942C391.475 516.824 390.569 518.591 390.545 523.553C390.508 531.081 395.745 537.323 402.789 538.146C406.953 538.632 406.665 539.312 408.235 525.3L409.284 515.947L406.848 514.879C404.507 513.853 404.396 513.896 404.011 516.01C403.673 517.865 403.147 518.248 400.637 518.463C397.625 518.722 397.303 518.364 397.621 515.125C397.792 513.388 397.832 513.39 394.959 514.942Z" fill="#FF9497"/>
<path d="M411.161 512.016C411.161 513.955 411.432 514.349 412.482 513.932C413.371 513.578 413.615 513.721 413.229 514.368C412.913 514.898 412.199 515.33 411.64 515.33C410.935 515.33 410.335 518.105 409.674 524.42C409.15 529.419 408.503 534.641 408.236 536.025C407.781 538.378 407.874 538.502 409.654 537.94C415.252 536.175 419.895 529.597 419.895 523.434C419.895 519.294 417.368 513.512 414.558 511.223C411.817 508.99 411.161 509.144 411.161 512.016Z" fill="#FF9497"/>
<path d="M398.703 509.636C396.873 510.575 394.908 511.93 394.336 512.648C393.402 513.821 393.492 513.846 395.214 512.897C397.08 511.866 403.71 512.083 407.686 513.305C409.102 513.74 409.429 513.425 409.724 511.344C410.005 509.364 409.745 508.774 408.435 508.409C405.28 507.532 402.003 507.945 398.703 509.636Z" fill="#FF9497"/>
<path fill-rule="evenodd" clip-rule="evenodd" d="M767.632 176.831C754.05 178.885 741.881 189.804 737.754 203.639C736.354 208.334 736.159 211.283 736.159 227.727C736.159 244.096 736.358 247.133 737.735 251.75C742.098 266.376 754.12 276.693 769.181 278.733C773.224 279.281 800.794 279.501 846.528 279.35L917.592 279.116L917.813 245.816C917.996 218.103 917.826 211.54 916.797 206.701C913.495 191.163 900.488 178.802 885.289 176.758L767.632 176.831ZM759.846 206.142C763.582 202.007 767.398 199.539 773.081 197.586C778.243 195.812 787.274 196.601 793.155 199.34C799.578 202.331 805.975 209.289 808.454 215.981C812.175 226.021 810.153 238.551 803.615 245.954L800.47 249.516L787.981 235.659L790.37 233.577C793.238 231.078 795.669 225.86 795.693 222.15C795.713 219.06 793.901 214.123 791.908 211.841C787.317 206.583 777.905 205.667 772.482 209.95C769.073 212.643 766.324 218.054 766.349 222.025C766.373 225.87 768.773 231.052 771.721 233.62L774.159 235.744L761.737 249.516L759.592 247.46C756.182 244.193 753.671 239.057 752.401 232.75C751.371 227.631 751.366 226.198 752.368 221.224C753.796 214.128 755.214 211.271 759.846 206.142ZM823.855 242.598C823.562 243.09 823.653 243.836 824.06 244.257C824.489 244.701 833.907 244.929 846.57 244.801C866.577 244.601 868.364 244.466 868.609 243.144C868.859 241.801 867.39 241.705 846.632 241.705C831.471 241.705 824.219 241.989 823.855 242.598ZM843.803 228.359C825.517 228.571 822.606 228.247 823.864 226.14C824.241 225.507 830.237 225.298 843.606 225.451C860.048 225.64 862.805 225.848 862.805 226.904C862.805 227.96 860.069 228.17 843.803 228.359ZM823.903 209.629C823.63 210.087 823.628 210.83 823.898 211.282C824.214 211.812 837.688 212.104 861.719 212.104C896.845 212.104 899.034 212.02 898.782 210.665C898.533 209.324 896.024 209.213 861.457 209.013C837.144 208.873 824.228 209.085 823.903 209.629ZM889.008 228.549C879.612 228.549 879.082 228.461 879.082 226.904C879.082 225.348 879.612 225.26 889.008 225.26C898.403 225.26 898.933 225.348 898.933 226.904C898.933 228.461 898.403 228.549 889.008 228.549Z" fill="#2E2E2E"/>
<path fill-rule="evenodd" clip-rule="evenodd" d="M372.833 800.319C372.569 800.592 371.884 800.621 371.311 800.383C370.678 800.121 370.866 799.926 371.791 799.887C372.628 799.852 373.096 800.046 372.833 800.319Z" fill="#2E2E2E"/>
<path d="M675.722 723.354C675.588 723.738 686.07 724.091 699.015 724.139L722.553 724.227L722 721.529C721.922 721.149 721.801 720.594 721.646 719.891H678.513C676.812 721.904 675.788 723.166 675.722 723.354Z" fill="#488B1E"/>
<path fill-rule="evenodd" clip-rule="evenodd" d="M712.591 681.661C712.481 681.547 708.833 685.425 704.482 690.277C694.812 701.062 683.617 713.853 678.513 719.891H721.646C719.773 711.453 712.777 681.854 712.591 681.661ZM691.443 714.459V715.591H692.754L691.443 714.459ZM699.531 712.422L699.015 713.78H700.624L699.531 712.422ZM710.32 713.78H708.057L709.009 711.969L710.32 713.78ZM699.015 707.443L698.22 708.574L699.531 709.48L699.015 707.443ZM705.434 699.974L704.482 697.71V699.974H705.434ZM708.057 698.389L707.183 697.484L708.713 697.71L708.057 698.389ZM710.899 694.994L709.587 693.636V694.994H710.899ZM714.235 715.138V717.175L715.927 716.496L714.235 715.138ZM712.591 705.632L714.615 707.443H713.085L712.591 705.632ZM705.434 704.5V706.085L706.745 705.632L705.434 704.5ZM711.555 701.105L710.899 701.558L712.21 702.011L711.555 701.105ZM699.015 702.011L699.531 703.369L700.624 701.105L699.015 702.011ZM692.754 709.48L691.443 710.385L693.629 711.064L692.754 709.48Z" fill="#C2050C"/>
<path d="M714.235 717.175V715.138L715.927 716.496L714.235 717.175Z" fill="#2E2E2E"/>
<path d="M708.057 713.78H710.32L709.009 711.969L708.057 713.78Z" fill="#2E2E2E"/>
<path d="M699.015 713.78L699.531 712.422L700.624 713.78H699.015Z" fill="#2E2E2E"/>
<path d="M691.443 715.591V714.459L692.754 715.591H691.443Z" fill="#2E2E2E"/>
<path d="M691.443 710.385L692.754 709.48L693.629 711.064L691.443 710.385Z" fill="#2E2E2E"/>
<path d="M698.22 708.574L699.015 707.443L699.531 709.48L698.22 708.574Z" fill="#2E2E2E"/>
<path d="M699.531 703.369L699.015 702.011L700.624 701.105L699.531 703.369Z" fill="#2E2E2E"/>
<path d="M705.434 706.085V704.5L706.745 705.632L705.434 706.085Z" fill="#2E2E2E"/>
<path d="M704.482 697.71L705.434 699.974H704.482V697.71Z" fill="#2E2E2E"/>
<path d="M707.183 697.484L708.057 698.389L708.713 697.71L707.183 697.484Z" fill="#2E2E2E"/>
<path d="M709.587 693.636L710.899 694.994H709.587V693.636Z" fill="#2E2E2E"/>
<path d="M710.899 701.558L711.555 701.105L712.21 702.011L710.899 701.558Z" fill="#2E2E2E"/>
<path d="M714.615 707.443L712.591 705.632L713.085 707.443H714.615Z" fill="#2E2E2E"/>
<path fill-rule="evenodd" clip-rule="evenodd" d="M677.554 311.198C674.925 311.879 671.865 314.522 670.9 316.946C670.227 318.634 670.045 350.867 670.199 440.697L670.408 562.166L675.6 567.542H860.698L866.134 561.399V317.395L864.413 315.129C864.27 314.941 864.139 314.76 864.015 314.587C864.013 314.584 864.01 314.582 864.008 314.579L864.006 314.575L864.001 314.568L863.998 314.565L863.998 314.564C863.767 314.244 863.555 313.95 863.317 313.679C860.6 310.584 854.586 310.591 779.804 310.677L779.76 310.678L773.076 310.685L768.297 310.69C719.262 310.743 678.428 310.971 677.554 311.198ZM685.098 347.595C684.21 347.595 683.956 326.029 684.833 325.121C685.648 324.278 707.33 324.47 707.33 325.321C707.33 325.744 702.662 325.983 696.611 325.87L685.892 325.672V336.633C685.892 343.393 685.588 347.595 685.098 347.595ZM700.581 345.129C690.018 334.21 688.111 331.593 689.597 330.055C691.383 328.206 694.147 330.263 705.121 341.608L716.828 353.71L728.481 341.608C740.086 329.557 742.968 327.571 744.164 330.799C744.91 332.809 743.923 334.07 731.996 346.351L720.827 357.853L732.825 370.296C742.665 380.501 744.728 383.043 744.301 384.436C743.145 388.206 741.217 386.945 728.979 374.415L716.882 362.029L704.636 374.616C693.559 386 692.232 387.114 690.729 386.281C689.815 385.774 689.068 384.692 689.068 383.876C689.068 383.058 694.237 377.071 700.578 370.544C706.908 364.027 712.089 358.321 712.091 357.863C712.093 357.405 706.913 351.675 700.581 345.129ZM766.375 350.473C766.123 349.795 766.123 348.685 766.375 348.007C766.771 346.935 771.527 346.773 802.49 346.773C833.218 346.773 838.286 346.943 839.138 348.007C839.926 348.991 839.926 349.489 839.138 350.473C838.286 351.536 833.218 351.707 802.49 351.707C771.527 351.707 766.771 351.545 766.375 350.473ZM766.379 367.751C766.125 367.067 766.125 365.947 766.379 365.263C766.78 364.18 770.318 364.046 793.659 364.235L820.478 364.451V368.562L793.659 368.779C770.318 368.968 766.78 368.834 766.379 367.751ZM747.428 389.94L747.649 378.635C747.77 372.417 748.039 367.329 748.245 367.329C748.451 367.329 748.619 372.694 748.619 379.251V391.174H736.973C730.569 391.174 725.536 390.958 725.79 390.694C726.045 390.431 731.017 390.153 736.841 390.078L747.428 389.94ZM685.098 430.641C684.606 430.641 684.304 426.256 684.304 419.13V407.618L707.727 407.979L685.892 408.487V419.564C685.892 426.401 685.588 430.641 685.098 430.641ZM722.41 442.769C727.842 433.159 734.028 422.223 736.159 418.466C739.247 413.018 740.361 411.686 741.664 411.888C746.022 412.563 745.543 413.773 729.905 441.616C721.638 456.335 714.376 468.591 713.769 468.851C713.162 469.11 712.09 469.116 711.387 468.865C710.684 468.612 705.353 462.106 699.539 454.406C688.462 439.734 687.13 436.807 691.532 436.807C693.244 436.807 695.149 438.828 702.576 448.524C707.513 454.968 711.773 460.241 712.044 460.241C712.314 460.241 716.978 452.379 722.41 442.769ZM766.375 423.652C766.123 422.973 766.127 421.855 766.381 421.166C766.778 420.097 768.959 419.947 781.344 420.138C794.811 420.347 795.863 420.473 796.13 421.909C796.287 422.759 795.935 423.771 795.346 424.157C794.757 424.544 788.1 424.865 780.554 424.873C769.081 424.883 766.757 424.683 766.375 423.652ZM766.485 441.741L765.982 437.219H802.475C841.032 437.219 841.429 437.258 838.884 440.849C838.043 442.037 834.294 442.15 802.216 441.957L766.485 441.741ZM747.825 472.574L748.172 449.963L748.42 461.022C748.556 467.104 748.489 472.561 748.271 473.15C747.781 474.474 726.772 474.706 725.99 473.397C725.671 472.863 729.422 472.574 736.662 472.574H747.825ZM767.344 458.92C766.653 458.645 766.088 457.535 766.088 456.453V454.485H796.682C823.26 454.485 827.338 454.649 827.738 455.729C827.992 456.414 827.758 457.524 827.219 458.196C826.384 459.237 821.958 459.419 797.419 459.419C781.569 459.419 768.035 459.194 767.344 458.92ZM685.098 513.686C684.21 513.686 683.955 491.298 684.833 490.39C685.711 489.48 707.33 489.744 707.33 490.663C707.33 491.171 703.228 491.486 696.611 491.486H685.892V502.586C685.892 509.437 685.588 513.686 685.098 513.686ZM700.757 511.375C689.882 500.023 687.862 497.119 689.597 495.323C691.383 493.473 694.148 495.532 705.137 506.892L716.858 519.01L728.58 506.892C740.584 494.483 743.141 492.795 744.285 496.526C744.733 497.988 742.842 500.33 732.825 510.719L720.828 523.162L732.351 535.073C738.688 541.624 744.092 547.696 744.359 548.567C744.824 550.085 742.968 552.331 741.248 552.331C740.855 552.331 735.12 546.792 728.505 540.022L716.477 527.714L704.434 540.092C693.542 551.286 692.231 552.382 690.729 551.549C689.815 551.042 689.068 549.998 689.068 549.228C689.068 548.458 694.328 542.372 700.757 535.704L712.447 523.578L700.757 511.375ZM766.088 514.988C766.088 513.895 766.535 512.814 767.08 512.586C767.626 512.358 783.871 512.142 803.18 512.106C836.54 512.045 838.327 512.117 839.072 513.56C840.781 516.867 839.61 516.975 802.057 516.975H766.088V514.988ZM766.381 533.027C766.127 532.338 766.127 531.212 766.381 530.523C766.778 529.454 768.96 529.303 781.354 529.495L795.863 529.719V533.831L781.354 534.055C768.96 534.247 766.778 534.096 766.381 533.027ZM747.428 555.209L747.649 543.903C747.77 537.685 748.039 532.597 748.245 532.597C748.451 532.597 748.619 537.962 748.619 544.52V556.442L725.196 556.102L747.428 555.209Z" fill="#F6F6F6"/>
<path d="M430.995 617.053C430.985 618.312 430.291 626.871 429.452 636.072L427.927 652.8L432.362 666.494C436.646 679.719 436.811 680.554 437.178 690.912C437.623 703.421 436.166 711.105 431.322 721.793C428.944 727.039 428.62 728.378 429.372 729.832L429.374 729.837C429.604 730.282 429.787 730.636 430.056 730.896C431.101 731.909 433.438 731.491 444.869 729.45L444.888 729.446C454.845 727.669 457.539 726.868 461.184 724.604C467.13 720.911 472.544 719.146 478.447 718.975C481.172 718.896 483.406 718.492 483.41 718.076C483.416 717.424 469.305 685.475 457.085 658.479C454.957 653.775 450.499 643.884 447.18 636.499C441.146 623.074 438.095 618.688 432.714 615.706C431.164 614.847 431.01 614.967 430.995 617.053Z" fill="#F6F6F6"/>
<path d="M272.646 612.895C261.336 616.488 253.794 627.114 253.736 639.534L255.288 649.608C255.725 651.212 256.269 653.031 256.94 655.156C262.512 672.813 270.184 697.299 278.953 725.41C296.119 780.443 299.383 790.453 301.446 794.394C305.136 801.443 316.391 808.614 324.397 808.614C326.72 808.614 338.156 805.48 371.063 797.782C378.05 796.147 388.591 793.73 394.486 792.409C400.382 791.089 413.104 788.169 422.757 785.921C439.612 781.997 440.541 781.869 446.18 782.69C457.813 784.384 465.348 782.448 471.705 776.134L474.682 773.177V762.244C474.682 756.231 474.415 751.323 474.087 751.339C473.759 751.355 472.598 751.897 471.506 752.544C469.182 753.919 467.227 754.138 467.94 752.943C468.523 751.966 474.24 748.844 475.445 748.844C475.991 748.844 476.27 754.845 476.27 766.563C476.27 786.064 476.669 788.083 480.875 789.887C483.844 791.161 487.004 790.307 488.987 787.697C490.452 785.768 490.563 784.329 490.563 767.233C490.563 755.522 490.851 748.844 491.357 748.844C491.863 748.844 492.151 755.571 492.151 767.381C492.151 785.882 492.155 785.923 494.068 787.904C495.122 788.995 496.87 790.119 497.952 790.4C500.56 791.078 504.715 788.8 505.683 786.162C506.101 785.024 506.443 775.955 506.443 766.009C506.443 754.162 506.717 748.1 507.237 748.433C507.728 748.747 508.031 755.926 508.031 767.235C508.031 781.73 508.265 785.861 509.157 787.124C509.777 788.002 510.428 788.535 510.605 788.309C510.782 788.084 514.61 773.731 519.112 756.414C526.988 726.122 527.241 724.885 525.803 723.786C522.152 720.997 517.42 720.477 495.724 720.477C471.816 720.477 469 720.952 461.95 726.182C458.584 728.679 457.161 729.053 440.115 731.922C391.267 740.141 348.945 747.318 342.762 748.431C334.733 749.876 334.141 749.909 334.141 748.921C334.141 748.511 335.957 747.917 338.176 747.601C342.047 747.05 342.191 746.938 341.706 744.852C341.428 743.655 337.26 730.097 332.443 714.721C327.626 699.345 321.719 680.475 319.316 672.787C303.38 621.802 303.505 622.099 295.725 616.678C288.614 611.723 280.512 610.395 272.646 612.895Z" fill="#F6F6F6"/>
<path fill-rule="evenodd" clip-rule="evenodd" d="M655.139 197.525C653.728 198.159 651.854 199.902 650.973 201.397C649.46 203.968 649.372 205.5 649.37 229.4L649.367 254.683H702.566V196.305L680.135 196.337C662.677 196.363 657.136 196.626 655.139 197.525ZM663.816 212.683C658.199 215.091 653.793 208.254 657.899 203.5C658.59 202.699 660.265 202.061 661.674 202.061C667.439 202.061 669.121 210.407 663.816 212.683ZM672.64 212.115C670.007 209.963 669.608 206.925 671.612 204.287C674.879 199.985 681.128 202.077 681.128 207.473C681.128 209.401 680.534 210.647 679.035 211.867C676.503 213.93 674.936 213.991 672.64 212.115Z" fill="#F6F6F6"/>
<path fill-rule="evenodd" clip-rule="evenodd" d="M649.367 286.629C649.367 317.665 649.372 317.76 651.177 320.534C653.688 324.392 656.003 325.369 662.667 325.383L668.423 325.395L668.436 322.312C668.454 318.123 671.402 312.972 674.787 311.213C677.071 310.027 679.74 309.775 690.06 309.775L702.566 309.773V283.462H661.228L661.674 263.317L702.566 262.878V255.506H649.367V286.629ZM673.187 300.385C673.187 296.94 673.532 294.962 674.18 294.685C674.726 294.451 680.711 294.327 687.48 294.41L699.787 294.562L700.256 305.662H673.187V300.385Z" fill="#F6F6F6"/>
<path d="M662.468 282.228L702.566 282.667V264.55H662.017L662.468 282.228Z" fill="#2E2E2E"/>
<path d="M674.301 296.942C674.067 297.573 673.989 299.515 674.127 301.259L674.378 304.428L699.39 304.881V295.795H687.058C677.242 295.795 674.639 296.029 674.301 296.942Z" fill="#2E2E2E"/>
<path fill-rule="evenodd" clip-rule="evenodd" d="M169.7 166.947C172.601 162.801 176.148 160.157 181.275 158.316C185.035 156.966 199.52 156.896 435.775 157.068L686.289 157.249L690.259 159.437C695.022 162.062 698.597 165.811 701.108 170.816L702.963 174.516L703.396 309.773H859.547L862.245 311.639C863.729 312.665 865.568 314.793 866.331 316.367C867.634 319.052 867.72 326.618 867.721 439.095C867.721 446.453 867.722 453.373 867.723 459.881V459.884C867.737 555.727 867.738 562.349 864.561 565.281C864.325 565.498 864.072 565.695 863.8 565.907C863.551 566.101 863.286 566.308 863.005 566.553L860.455 568.775H675.625L672.837 566.241C671.274 564.82 669.695 562.383 669.241 560.691C668.713 558.723 668.43 524.184 668.428 461.267L668.423 364.859L222.581 365.273V403.012L226.154 405.806C228.119 407.343 230.718 409.5 231.929 410.599L234.131 412.598L233.697 505.053L95.1409 505.473L95.1877 411.318L106.21 403.096L106.257 344.307H165.015V261.411C165.015 258.608 165.014 255.894 165.014 253.267L165.014 252.924C165.01 181.436 165.01 174.341 168.106 169.274C168.447 168.716 168.826 168.182 169.247 167.59L169.248 167.587L169.25 167.585L169.257 167.575C169.4 167.374 169.547 167.166 169.7 166.947ZM168.248 172.484C170.847 166.551 173.413 163.718 178.638 161.014L183.55 158.473L687.083 158.894L690.771 161.138C698.914 166.096 701.907 172.328 702.409 185.365L702.762 194.568L679.297 194.82C657.039 195.059 655.719 195.159 653.641 196.767C652.436 197.7 650.713 199.484 649.813 200.733C648.196 202.976 648.176 203.708 648.176 260.85C648.176 317.993 648.196 318.724 649.813 320.968C653.075 325.491 655.368 326.6 662.125 326.918L668.423 327.214V364.043L222.581 363.629L222.452 344.718L166.603 344.285V327.04H188.667C209.987 327.04 210.849 326.977 214.215 325.19C214.557 325.008 214.882 324.845 215.188 324.69C216.042 324.26 216.761 323.898 217.367 323.391C220.613 320.674 220.611 313.797 220.598 270.085V270.053V270.02C220.597 267.106 220.596 264.029 220.596 260.779V203.949L218.809 201.23C217.826 199.736 216.015 197.738 214.783 196.792C212.652 195.156 211.425 195.059 189.573 194.81L166.603 194.548L166.62 185.354C166.634 177.901 166.943 175.464 168.248 172.484ZM244.86 203.075C246.378 198.935 250.065 195.757 253.945 195.244C255.473 195.042 269.408 194.921 284.912 194.975C311.58 195.067 313.244 195.161 315.789 196.716C317.268 197.621 319.143 199.65 319.957 201.225C321.359 203.942 321.437 207.067 321.437 261.333V318.574L319.621 321.368L319.574 321.44C318.916 322.453 318.386 323.267 317.712 323.923C314.932 326.629 309.696 326.629 282.86 326.629H282.389C252.611 326.629 251.613 326.577 249.486 324.933C248.28 324.001 246.557 322.216 245.657 320.968C244.046 318.734 244.016 317.794 243.797 262.64C243.599 212.61 243.713 206.206 244.86 203.075ZM348.7 198.061C349.419 197.444 351.35 196.433 352.992 195.817C355.347 194.93 362.091 194.734 384.958 194.883C417.141 195.092 417.473 195.147 420.721 200.662C422.219 203.206 422.271 205.216 422.274 260.934L422.277 318.574L420.475 321.368C416.848 326.989 416.535 327.037 383.767 327.037C350.999 327.037 350.686 326.989 347.06 321.368L345.257 318.574V261.524C345.257 201.711 345.297 200.984 348.7 198.061ZM446.798 202.731C447.829 199.933 451.532 196.401 454.352 195.527C458.266 194.314 515.186 194.842 517.328 196.11C518.293 196.682 520.08 198.503 521.298 200.158L523.515 203.166V260.932C523.515 317.992 523.495 318.724 521.877 320.968C520.977 322.216 519.254 324.001 518.049 324.933C515.937 326.567 514.758 326.636 485.543 326.836C455.365 327.043 455.215 327.036 452.135 325.191C451.836 325.012 451.551 324.848 451.28 324.693C450.496 324.243 449.83 323.861 449.265 323.358C446.084 320.526 446.085 313.861 446.096 269.683C446.097 266.973 446.098 264.122 446.098 261.122C446.098 230.054 446.413 203.778 446.798 202.731ZM551.178 198.062C552.283 196.993 554.371 195.818 555.819 195.451C557.267 195.083 571.557 194.847 587.575 194.927C615.637 195.067 616.778 195.133 618.89 196.767C620.095 197.7 621.817 199.484 622.718 200.733C624.33 202.967 624.358 203.894 624.57 259.794C624.782 315.866 624.763 316.629 623.132 320.118C621.929 322.694 620.565 324.111 618.101 325.346C614.877 326.962 613.4 327.039 585.793 327.022C559.072 327.005 556.609 326.884 553.536 325.439C551.179 324.331 549.73 322.906 548.573 320.556C546.97 317.302 546.938 316.152 546.938 260.842C546.938 258.688 546.938 256.612 546.938 254.613V254.61C546.933 208.274 546.933 202.82 549.54 199.705C549.887 199.29 550.282 198.916 550.728 198.492L550.736 198.484L550.742 198.479L550.756 198.466C550.892 198.337 551.033 198.203 551.178 198.062ZM166.404 242.327C165.668 242.356 165.603 197.614 166.338 196.854C166.629 196.552 176.83 196.305 189.007 196.305C213.002 196.305 213.962 196.461 217.35 200.922C218.995 203.089 219.008 203.539 219.008 260.629C219.008 312.404 218.879 318.38 217.709 320.429C214.95 325.267 214.207 325.395 188.911 325.395H165.809V287.602L203.525 287.162L203.983 272.802L166.206 272.361L165.713 266.195H201.612L203.56 264.176C204.632 263.066 205.51 261.243 205.51 260.124C205.51 259.005 201.116 250.204 195.746 240.565C188.009 226.68 185.535 222.878 183.835 222.258C179.63 220.727 177.887 222.293 172.243 232.666C169.36 237.967 166.731 242.314 166.404 242.327ZM246.668 202.048C247.469 200.472 249.344 198.529 250.836 197.73C253.312 196.404 256.181 196.296 283.856 196.497L314.164 196.716L316.314 198.772C316.41 198.863 316.503 198.952 316.594 199.038C317.084 199.503 317.515 199.912 317.893 200.367C320.645 203.675 320.644 209.436 320.643 257.053V257.055L320.643 260.807L320.643 263.985C320.644 312.866 320.644 319.443 317.491 322.334C317.001 322.784 316.434 323.144 315.78 323.561C315.69 323.618 315.599 323.676 315.506 323.735C313.024 325.324 311.621 325.395 282.992 325.395C249.953 325.395 249.803 325.374 246.767 320.216C245.269 317.674 245.216 315.672 245.214 261.248C245.211 208.19 245.296 204.746 246.668 202.048ZM348.036 201.065C348.91 199.839 350.696 198.275 352.006 197.589C354.006 196.543 359.115 196.34 383.78 196.324C416.654 196.303 417.057 196.368 420.032 202.112C421.396 204.745 421.483 208.24 421.483 260.659L421.483 264.899V264.9C421.485 313.418 421.486 319.718 418.475 322.416C418.025 322.819 417.509 323.141 416.915 323.512C416.802 323.582 416.687 323.655 416.568 323.729C414.053 325.317 412.633 325.389 383.767 325.389C355.644 325.389 353.428 325.284 351.149 323.845C350.984 323.74 350.824 323.642 350.67 323.546C350.046 323.16 349.506 322.825 349.038 322.404C346.002 319.67 346.027 313.292 346.212 265.511L346.212 265.441C346.219 263.643 346.226 261.786 346.234 259.868C346.443 204.768 346.489 203.236 348.036 201.065ZM449.9 199.982C450.403 199.495 450.99 199.101 451.674 198.643C451.895 198.494 452.127 198.339 452.369 198.172C455.053 196.315 455.219 196.305 484.527 196.307C517.491 196.308 517.987 196.387 520.867 202.048C522.239 204.746 522.324 208.19 522.32 261.248C522.318 315.672 522.265 317.674 520.767 320.216C517.731 325.373 517.578 325.395 484.571 325.395H483.74C458.197 325.396 453.116 325.396 450.568 322.765C449.935 322.112 449.459 321.296 448.864 320.278L448.786 320.145C447.363 317.712 447.278 314.786 447.08 261.672C447.07 259.057 447.06 256.557 447.051 254.165C446.875 209.288 446.85 202.931 449.9 199.982ZM549.542 202.085C550.088 200.969 551.744 199.211 553.22 198.18C555.9 196.311 555.997 196.305 585.764 196.308C613.976 196.311 615.761 196.4 618.163 197.917C618.375 198.051 618.579 198.175 618.774 198.294C619.358 198.65 619.865 198.96 620.305 199.35C623.214 201.93 623.19 208.054 623.01 254.672V254.675C623.001 257.032 622.991 259.491 622.982 262.059L622.767 319.608L617.577 324.984L586.823 325.239C552.981 325.519 552.709 325.485 549.86 320.491C548.645 318.361 548.527 313.067 548.538 261.135C548.547 217.176 548.777 203.651 549.542 202.085ZM650.973 201.397C651.854 199.902 653.728 198.159 655.139 197.525C657.136 196.626 662.677 196.363 680.135 196.337L702.566 196.305V254.683H649.367L649.37 229.4C649.372 205.5 649.46 203.968 650.973 201.397ZM411.894 287.358C411.824 286.797 411.895 267.099 412.052 243.583L412.337 200.827L412.55 245.603C412.738 285.067 412.617 290.528 411.536 291.648C410.576 292.643 408.045 292.957 399.818 293.103C394.047 293.205 388.509 293.493 387.511 293.743C385.475 294.252 383.879 297.68 384.593 300.01C385.713 303.665 386.919 304.017 398.337 304.017H398.595C406.506 304.017 409.996 304.017 411.535 305.811C412.749 307.226 412.749 309.759 412.749 314.291V314.478C412.749 318.825 412.515 322.138 412.23 321.842C411.944 321.547 411.788 318.545 411.883 315.172L411.892 314.876C412.009 310.745 412.073 308.466 411.01 307.208C409.702 305.661 406.686 305.661 399.957 305.662L399.567 305.662C388.795 305.662 386.397 305.154 384.388 302.444C382.721 300.196 383.177 295.92 385.319 293.702C387.209 291.745 387.616 291.684 398.789 291.684C409.52 291.684 410.37 291.57 411.166 290.03C411.636 289.12 411.964 287.918 411.894 287.358ZM663.816 212.683C658.199 215.091 653.793 208.254 657.899 203.5C658.59 202.699 660.265 202.061 661.674 202.061C667.439 202.061 669.121 210.407 663.816 212.683ZM672.64 212.115C670.007 209.963 669.608 206.925 671.612 204.287C674.879 199.985 681.128 202.077 681.128 207.473C681.128 209.401 680.534 210.647 679.035 211.867C676.503 213.93 674.936 213.991 672.64 212.115ZM551.933 210.943C550.933 209.971 550.114 208.804 550.114 208.352C550.114 207.899 550.942 208.334 551.952 209.318C553.703 211.021 554.486 211.105 568.626 211.105C582.405 211.105 583.577 211.223 585.051 212.75C586.034 213.768 586.639 215.49 586.639 217.272C586.639 219.054 586.034 220.776 585.051 221.794C583.577 223.32 582.405 223.439 568.746 223.439C556.536 223.439 553.695 223.665 552.072 224.767C550.995 225.497 550.114 225.771 550.114 225.376C550.114 224.98 550.919 224.105 551.901 223.431C553.27 222.491 557.297 222.109 569.171 221.794L584.654 221.383V213.161L569.203 212.937C554.638 212.726 553.648 212.612 551.933 210.943ZM455.718 214.92C454.471 213.363 455.392 211.265 457.48 210.907C458.426 210.744 459.735 210.695 460.39 210.796C461.045 210.896 473.128 211.007 487.241 211.042L512.901 211.105L512.398 215.628L484.515 215.844C461.529 216.021 456.471 215.859 455.718 214.92ZM258.445 245.228C258.445 232.652 267.312 221.756 278.783 220.238C294.034 218.22 306.069 228.399 306.974 244.082C307.293 249.608 307.079 250.928 305.142 255.398C302.578 261.316 298.431 265.523 292.3 268.43C288.622 270.173 287.084 270.43 281.882 270.172C268.023 269.484 258.445 259.29 258.445 245.228ZM172.185 234.788C175.446 229.046 178.831 223.984 179.704 223.538L179.748 223.516C180.649 223.056 181.36 222.693 182.074 222.687C184.748 222.663 187.464 227.639 200.352 251.252L200.511 251.543C204.615 259.061 204.796 259.631 203.783 261.82L202.71 264.139L165.675 264.581L166.253 245.228L172.185 234.788ZM362.726 279.35V224.261H404.809V279.35H362.726ZM363.917 278.117L363.497 225.083H404.037L403.618 278.117H363.917ZM601.233 228.372C615.557 228.372 616.66 228.264 618.003 226.728C618.793 225.823 619.805 225.083 620.249 225.083C620.695 225.083 620.22 226.008 619.194 227.139C617.334 229.189 617.295 229.194 602.438 229.194C586.062 229.194 585.051 229.481 585.051 234.128C585.051 238.764 586.083 239.061 602.208 239.061C614.366 239.061 617.202 239.288 618.825 240.389C619.902 241.119 620.782 242.07 620.782 242.5C620.782 242.931 619.744 242.519 618.476 241.584C616.344 240.012 615.059 239.883 601.461 239.883C585.008 239.883 584.257 239.645 584.257 234.426V234.246C584.257 232.31 584.256 231.012 584.845 230.142C586.044 228.372 589.683 228.372 600.725 228.372L601.233 228.372ZM463.852 263.389C464.882 261.541 469.914 252.535 475.032 243.378C480.151 234.221 484.585 226.728 484.888 226.728C485.35 226.728 491.552 237.635 505.523 263.019L508.176 267.839H500.56C496.372 267.839 492.945 267.981 492.945 268.156C492.945 268.33 494.55 271.382 496.512 274.939C498.474 278.496 500.082 281.776 500.086 282.228C500.09 282.757 494.559 282.965 484.608 282.811C476.092 282.68 469.124 282.444 469.124 282.289C469.124 282.134 470.73 279.096 472.692 275.539C474.653 271.982 476.261 268.795 476.265 268.456C476.268 268.117 473.055 267.839 469.124 267.839C465.194 267.839 461.978 267.594 461.978 267.295C461.978 266.996 462.821 265.238 463.852 263.389ZM463.691 266.329C463.841 265.923 468.608 257.227 474.285 247.005C479.963 236.783 484.662 228.408 484.728 228.395C484.994 228.344 505.27 265.02 505.509 265.983C505.7 266.753 504.045 267.017 499.028 267.017H492.29L488.845 260.861C486.952 257.476 485.044 254.821 484.608 254.962C484.171 255.103 482.408 257.832 480.692 261.025L477.569 266.832L470.493 266.949C466.596 267.014 463.541 266.735 463.691 266.329ZM563.782 259.976C566.952 253.659 572.263 249.068 579.096 246.734C586.76 244.117 597.67 247.205 603.366 253.605C608.257 259.1 610.03 263.76 610.03 271.128C610.03 278.496 608.257 283.156 603.366 288.651C598.762 293.824 593.331 296.153 585.845 296.163C576.226 296.177 568.232 291.148 563.782 282.28C562.004 278.739 561.692 277.074 561.692 271.128C561.692 265.183 562.004 263.518 563.782 259.976ZM562.585 271.128C562.585 259.321 570.902 249.045 581.811 247.371C596.546 245.11 608.872 255.932 608.872 271.128C608.872 283.24 601.275 292.694 589.815 294.843C575.579 297.512 562.585 286.195 562.585 271.128ZM651.177 320.534C649.372 317.76 649.367 317.665 649.367 286.629V255.506H702.566V262.878L661.674 263.317L661.228 283.462H702.566V309.773L690.06 309.775C679.74 309.775 677.071 310.027 674.787 311.213C671.402 312.972 668.454 318.123 668.436 322.312L668.423 325.395L662.667 325.383C656.003 325.369 653.688 324.392 651.177 320.534ZM662.468 282.228L662.017 264.55H702.566V282.667L662.468 282.228ZM166.206 285.932L166.729 273.564L202.731 274.006L203.197 285.928L166.206 285.932ZM260.458 293.406C260.329 290.056 260.407 286.819 260.632 286.211C260.961 285.323 265.318 285.106 282.809 285.106H304.577L305.056 286.956C305.888 290.173 305.595 297.069 304.564 298.53C303.663 299.804 301.584 299.914 282.133 299.715L260.694 299.495L260.458 293.406ZM261.885 298.262V285.928H303.968V298.262H261.885ZM170.576 305.004C170.572 300.54 172.317 297.009 175.574 294.891C179.194 292.536 186.38 293.036 189.324 295.847C194.219 300.522 194.629 307.564 190.303 312.667C183.211 321.031 170.585 316.126 170.576 305.004ZM358.755 304.84C353.867 304.84 351.447 298.873 354.816 295.128C358.181 291.389 364.314 293.943 364.314 299.084C364.314 300.455 363.608 302.282 362.726 303.195C361.843 304.109 360.079 304.84 358.755 304.84ZM368.284 299.084C368.284 297.713 368.99 295.886 369.872 294.973C370.754 294.059 372.518 293.328 373.842 293.328C375.165 293.328 376.93 294.059 377.812 294.973C378.694 295.886 379.4 297.713 379.4 299.084C379.4 300.455 378.694 302.282 377.812 303.195C376.93 304.109 375.165 304.84 373.842 304.84C372.518 304.84 370.754 304.109 369.872 303.195C368.99 302.282 368.284 300.455 368.284 299.084ZM673.187 300.385C673.187 296.94 673.532 294.962 674.18 294.685C674.726 294.451 680.711 294.327 687.48 294.41L699.787 294.562L700.256 305.662H673.187V300.385ZM674.127 301.259C673.989 299.515 674.067 297.573 674.301 296.942C674.639 296.029 677.242 295.795 687.058 295.795H699.39V304.881L674.378 304.428L674.127 301.259ZM455.139 309.773C454.937 308.642 454.972 306.876 455.218 305.848C455.665 303.983 455.696 303.979 469.343 304.203L483.02 304.428V314.295L469.323 314.52C456.675 314.728 455.621 314.633 455.567 313.287C455.535 312.485 455.342 310.903 455.139 309.773ZM456.42 313.925V304.798L482.226 305.251V313.473L456.42 313.925ZM670.9 316.946C671.865 314.522 674.925 311.879 677.554 311.198C678.428 310.971 719.262 310.743 768.297 310.69L773.076 310.685L779.76 310.678L779.804 310.677C854.586 310.591 860.6 310.584 863.317 313.679C863.555 313.95 863.767 314.244 863.998 314.564L863.998 314.565L864.001 314.568L864.006 314.575L864.008 314.579L864.015 314.587C864.139 314.76 864.27 314.941 864.413 315.129L866.134 317.395V561.399L860.698 567.542H675.6L670.408 562.166L670.199 440.697C670.045 350.867 670.227 318.634 670.9 316.946ZM685.098 347.595C684.21 347.595 683.956 326.029 684.833 325.121C685.648 324.278 707.33 324.47 707.33 325.321C707.33 325.744 702.662 325.983 696.611 325.87L685.892 325.672V336.633C685.892 343.393 685.588 347.595 685.098 347.595ZM107.051 420.457V345.951H221.39V420.619L217.618 423.443C215.544 424.996 202.672 434.819 189.014 445.273L164.181 464.28L156.459 458.295C146.19 450.336 119.128 429.576 112.411 424.504L107.051 420.457ZM766.375 350.473C766.123 349.795 766.123 348.685 766.375 348.007C766.771 346.935 771.527 346.773 802.49 346.773C833.218 346.773 838.286 346.943 839.138 348.007C839.926 348.991 839.926 349.489 839.138 350.473C838.286 351.536 833.218 351.707 802.49 351.707C771.527 351.707 766.771 351.545 766.375 350.473ZM766.379 367.751C766.125 367.067 766.125 365.947 766.379 365.263C766.78 364.18 770.318 364.046 793.659 364.235L820.478 364.451V368.562L793.659 368.779C770.318 368.968 766.78 368.834 766.379 367.751ZM747.428 389.94L747.649 378.635C747.77 372.417 748.039 367.329 748.245 367.329C748.451 367.329 748.619 372.694 748.619 379.251V391.174H736.973C730.569 391.174 725.536 390.958 725.79 390.694C726.045 390.431 731.017 390.153 736.841 390.078L747.428 389.94ZM126.256 377.621C125.682 377.394 125.437 376.832 125.711 376.372C126.393 375.231 205.432 375.638 205.708 376.785C205.912 377.629 128.335 378.446 126.256 377.621ZM165.762 390.351C138.936 390.351 125.386 390.074 125.711 389.529C126.027 388.999 140.408 388.707 166.253 388.707C192.424 388.707 206.304 388.992 206.304 389.529C206.304 390.067 192.261 390.351 165.762 390.351ZM166.253 403.507C140.408 403.507 126.027 403.215 125.711 402.685C125.386 402.141 138.936 401.863 165.762 401.863C192.261 401.863 206.304 402.147 206.304 402.685C206.304 403.222 192.424 403.507 166.253 403.507ZM685.098 430.641C684.606 430.641 684.304 426.256 684.304 419.13V407.618L707.727 407.979L685.892 408.487V419.564C685.892 426.401 685.588 430.641 685.098 430.641ZM95.9349 503.819V459.008C95.9349 434.361 96.1413 414.196 96.3938 414.196C96.8631 414.196 114.424 427.51 145.732 451.601C155.433 459.066 163.793 465.174 164.31 465.174C164.827 465.174 168.502 462.644 172.477 459.553C189.249 446.506 231.719 414.196 232.097 414.196C232.322 414.196 232.506 434.361 232.506 459.008V503.819H95.9349ZM126.256 416.266C125.682 416.039 125.437 415.476 125.711 415.017C126.393 413.875 205.432 414.283 205.708 415.429C205.912 416.274 128.335 417.09 126.256 416.266ZM265.855 807.786L272.646 762.244L255.288 649.608C254.117 645.301 253.722 642.542 253.736 639.534C253.794 627.114 261.336 616.488 272.646 612.895L320.832 589.406C311.554 582.862 295.279 577.182 290.47 578.809C289.815 579.031 286.063 580.014 282.133 580.995C257.641 587.104 239.329 605.747 232.349 631.676C230.591 638.207 230.577 638.758 230.311 709.066L230.043 779.879L247.949 793.615C257.797 801.17 265.855 807.547 265.855 807.786ZM766.375 423.652C766.123 422.973 766.127 421.855 766.381 421.166C766.778 420.097 768.959 419.947 781.344 420.138C794.811 420.347 795.863 420.473 796.13 421.909C796.287 422.759 795.935 423.771 795.346 424.157C794.757 424.544 788.1 424.865 780.554 424.873C769.081 424.883 766.757 424.683 766.375 423.652ZM203.128 429.179C149.253 429.179 125.296 428.868 125.711 428.174C126.027 427.644 140.26 427.352 165.809 427.352C191.357 427.352 205.59 427.644 205.907 428.174C206.407 429.012 205.944 429.179 203.128 429.179ZM766.485 441.741L765.982 437.219H802.475C841.032 437.219 841.429 437.258 838.884 440.849C838.043 442.037 834.294 442.15 802.216 441.957L766.485 441.741ZM747.825 472.574L748.172 449.963L748.42 461.022C748.556 467.104 748.489 472.561 748.271 473.15C747.781 474.474 726.772 474.706 725.99 473.397C725.671 472.863 729.422 472.574 736.662 472.574H747.825ZM767.344 458.92C766.653 458.645 766.088 457.535 766.088 456.453V454.485H796.682C823.26 454.485 827.338 454.649 827.738 455.729C827.992 456.414 827.758 457.524 827.219 458.196C826.384 459.237 821.958 459.419 797.419 459.419C781.569 459.419 768.035 459.194 767.344 458.92ZM179.527 468.088C174.626 465.003 170.81 462.154 171.047 461.756C171.284 461.358 172.436 461.723 173.606 462.566C174.776 463.41 186.779 471.074 200.279 479.599C213.778 488.123 224.445 495.228 223.983 495.387C223.521 495.547 215.335 490.732 205.791 484.687C196.247 478.642 184.428 471.173 179.527 468.088ZM119.921 484.928C128.782 479.3 140.499 471.819 145.958 468.303C151.417 464.788 156.402 461.905 157.035 461.899C157.727 461.89 157.885 462.163 157.432 462.581C155.201 464.637 105.317 495.683 104.626 495.445C104.176 495.289 111.059 490.557 119.921 484.928ZM685.098 513.686C684.21 513.686 683.955 491.298 684.833 490.39C685.711 489.48 707.33 489.744 707.33 490.663C707.33 491.171 703.228 491.486 696.611 491.486H685.892V502.586C685.892 509.437 685.588 513.686 685.098 513.686ZM360.343 497.689C360.343 496.614 360.791 495.524 361.336 495.268C362.471 494.734 372.891 495.4 373.942 496.072C374.979 496.736 374.779 500.341 373.666 501.054C372.466 501.822 367.297 501.519 363.321 500.447C360.932 499.803 360.343 499.258 360.343 497.689ZM322.952 513.117C322.237 512.377 322.647 511.744 324.705 510.413C332.073 505.645 340.97 514.881 335.765 521.896C333.895 524.418 332.697 523.558 334.457 520.956C335.156 519.922 335.729 518.603 335.729 518.025C335.729 516.552 330.924 516.685 328.811 518.217C327.824 518.933 326.903 519.131 326.637 518.684C325.838 517.347 329.591 515.331 332.928 515.307L336.126 515.282L333.533 512.84C332.107 511.496 330.386 510.397 329.709 510.397C328.187 510.397 325.203 511.979 324.447 513.185C324.046 513.827 323.618 513.807 322.952 513.117ZM766.088 514.988C766.088 513.895 766.535 512.814 767.08 512.586C767.626 512.358 783.871 512.142 803.18 512.106C836.54 512.045 838.327 512.117 839.072 513.56C840.781 516.867 839.61 516.975 802.057 516.975H766.088V514.988ZM87.9947 522.809C90.3966 522.323 93.0764 521.756 93.9498 521.55C96.2684 521.002 107.622 521.835 111.795 522.859C121.232 525.173 132.506 532.591 139.096 540.82C143.258 546.018 148.158 556.634 149.532 563.431C155.201 591.489 138.197 619.384 111.418 625.96C104.274 627.714 92.7064 627.488 85.5967 625.457C67.1572 620.187 52.5623 603.578 48.9686 583.773C47.8665 577.703 48.5637 564.603 50.27 559.32C53.2381 550.125 56.534 544.621 63.3801 537.429C68.9525 531.575 71.306 529.759 76.8784 527.016C80.5904 525.188 85.5928 523.295 87.9947 522.809ZM74.4963 529.517C78.5538 527.158 86.5313 524.157 91.1708 523.245C95.9079 522.314 109.16 523.407 114.594 525.177C126.097 528.924 137.895 538.951 143.413 549.672C147.684 557.97 149.348 566.004 148.97 576.508C148.711 583.706 148.194 586.928 146.523 591.779C141.169 607.314 128.737 619.398 113.006 624.359C106.508 626.409 92.6175 626.414 86.0096 624.369C72.4613 620.177 60.5129 609.882 54.8166 597.49C50.8552 588.874 49.6967 583.747 49.657 574.66C49.5943 560.366 54.2727 548.574 64.0447 538.395C67.3907 534.909 72.0944 530.914 74.4963 529.517ZM766.381 533.027C766.127 532.338 766.127 531.212 766.381 530.523C766.778 529.454 768.96 529.303 781.354 529.495L795.863 529.719V533.831L781.354 534.055C768.96 534.247 766.778 534.096 766.381 533.027ZM747.428 555.209L747.649 543.903C747.77 537.685 748.039 532.597 748.245 532.597C748.451 532.597 748.619 537.962 748.619 544.52V556.442L725.196 556.102L747.428 555.209ZM371.657 549.151C372.869 549.823 373.525 549.722 374.499 548.714C376.341 546.807 383.978 547.365 385.503 549.518C386.118 550.387 387.32 550.982 388.172 550.84C389.024 550.699 389.722 550.977 389.722 551.457C389.722 551.938 389.39 552.331 388.985 552.331C388.58 552.331 387.775 552.808 387.198 553.392C384.705 555.915 382.042 557.264 379.555 557.264C377.425 557.264 376.105 556.458 373.006 553.266C369.186 549.33 368.565 547.438 371.657 549.151ZM80.6357 579.464C74.413 579.464 72.2239 569.514 77.9225 567.137C80.3046 566.143 81.2527 566.16 83.5363 567.238C89.4374 570.022 87.1967 579.464 80.6357 579.464ZM113.765 577.446C110.645 574.216 111.37 569.688 115.388 567.302C116.262 566.783 117.441 566.347 118.009 566.333C119.719 566.292 123.499 568.624 124.027 570.046C126.564 576.893 118.704 582.562 113.765 577.446ZM89.4223 599.249C84.7376 597.403 76.8784 590.884 76.8784 588.844C76.8784 587.024 77.6343 587.425 81.7847 591.445C87.4563 596.938 91.7917 598.718 99.508 598.718C107.224 598.718 111.56 596.938 117.231 591.445C121.382 587.425 122.138 587.024 122.138 588.844C122.138 590.902 114.281 597.403 109.605 599.214C103.438 601.604 95.4354 601.617 89.4223 599.249ZM144.636 647.04C150.587 640.101 151.092 634.157 146.344 626.948C145.227 625.253 144.678 623.865 145.124 623.865C146.651 623.865 150.12 630.408 150.513 634.03C151.057 639.019 149.588 643.014 145.425 647.868C141.261 652.723 140.4 654.753 140.4 659.718C140.4 663.964 142.452 668.527 145.798 671.726C151.912 677.569 152.35 686.662 146.858 693.742C145.986 694.866 145.025 695.529 144.723 695.215C144.42 694.902 145.101 693.504 146.235 692.107C151.149 686.06 150.595 679.172 144.636 672.223C140.456 667.349 138.812 663.795 138.812 659.632C138.812 655.468 140.456 651.914 144.636 647.04ZM166.614 656.35C166.171 656.066 165.823 655.394 165.841 654.855C165.859 654.317 166.897 655.116 168.149 656.631C170.479 659.453 172.499 665.701 171.868 668.136C171.673 668.885 171.295 670.521 171.025 671.771C170.757 673.022 168.8 676.03 166.677 678.458C162.087 683.706 160.69 687.496 161.393 692.788C161.758 695.534 161.671 696.279 161.09 695.399C159.745 693.362 160.123 686.544 161.766 683.238C162.599 681.561 164.429 679.077 165.834 677.721C169 674.661 170.573 670.975 170.573 666.614C170.573 663.382 168.269 657.409 166.614 656.35ZM134.842 736.51V716.777H155.486V736.51H134.842ZM156.677 736.51V716.777H177.719V736.51H156.677ZM134.842 757.888V738.155H155.486V757.888H134.842ZM156.965 757.477L156.677 738.155H177.719V757.936L156.965 757.477ZM134.696 770.427C134.558 766.018 134.559 761.578 134.699 760.56C134.947 758.751 135.177 758.71 145.22 758.71H155.486V778.444H134.947L134.696 770.427ZM156.849 768.783C156.943 763.47 157.033 759.029 157.047 758.916C157.063 758.802 161.719 758.71 167.397 758.71H177.719V778.444H156.677L156.849 768.783ZM134.693 790.761C134.557 785.777 134.564 781.337 134.709 780.894C134.864 780.424 139.244 780.088 145.23 780.088H155.486V799.822H134.941L134.693 790.761ZM156.677 799.822V780.088H177.719V799.822H156.677ZM131.269 803.446C130.177 802.706 129.284 801.957 129.284 801.783C129.284 801.609 130.177 801.466 131.269 801.466C132.732 801.466 133.254 801.904 133.254 803.13C133.254 804.715 133.161 804.73 131.269 803.446Z" fill="#2E2E2E"/>
<path fill-rule="evenodd" clip-rule="evenodd" d="M553.22 198.18C551.744 199.211 550.088 200.969 549.542 202.085C548.777 203.651 548.547 217.176 548.538 261.135C548.527 313.067 548.645 318.361 549.86 320.491C552.709 325.485 552.981 325.519 586.823 325.239L617.577 324.984L622.767 319.608L622.982 262.059C622.991 259.491 623.001 257.032 623.01 254.675V254.672C623.19 208.054 623.214 201.93 620.305 199.35C619.865 198.96 619.358 198.65 618.774 198.294C618.579 198.175 618.375 198.051 618.163 197.917C615.761 196.4 613.976 196.311 585.764 196.308C555.997 196.305 555.9 196.311 553.22 198.18ZM551.933 210.943C550.933 209.971 550.114 208.804 550.114 208.352C550.114 207.899 550.942 208.334 551.952 209.318C553.703 211.021 554.486 211.105 568.626 211.105C582.405 211.105 583.577 211.223 585.051 212.75C586.034 213.768 586.639 215.49 586.639 217.272C586.639 219.054 586.034 220.776 585.051 221.794C583.577 223.32 582.405 223.439 568.746 223.439C556.536 223.439 553.695 223.665 552.072 224.767C550.995 225.497 550.114 225.771 550.114 225.376C550.114 224.98 550.919 224.105 551.901 223.431C553.27 222.491 557.297 222.109 569.171 221.794L584.654 221.383V213.161L569.203 212.937C554.638 212.726 553.648 212.612 551.933 210.943ZM601.233 228.372C615.557 228.372 616.66 228.264 618.003 226.728C618.793 225.823 619.805 225.083 620.249 225.083C620.695 225.083 620.22 226.008 619.194 227.139C617.334 229.189 617.295 229.194 602.438 229.194C586.062 229.194 585.051 229.481 585.051 234.128C585.051 238.764 586.083 239.061 602.208 239.061C614.366 239.061 617.202 239.288 618.825 240.389C619.902 241.119 620.782 242.07 620.782 242.5C620.782 242.931 619.744 242.519 618.476 241.584C616.344 240.012 615.059 239.883 601.461 239.883C585.008 239.883 584.257 239.645 584.257 234.426V234.246C584.257 232.31 584.256 231.012 584.845 230.142C586.044 228.372 589.683 228.372 600.725 228.372L601.233 228.372ZM563.782 259.976C566.952 253.659 572.263 249.068 579.096 246.734C586.76 244.117 597.67 247.205 603.366 253.605C608.257 259.1 610.03 263.76 610.03 271.128C610.03 278.496 608.257 283.156 603.366 288.651C598.762 293.824 593.331 296.153 585.845 296.163C576.226 296.177 568.232 291.148 563.782 282.28C562.004 278.739 561.692 277.074 561.692 271.128C561.692 265.183 562.004 263.518 563.782 259.976ZM557.948 311.359C556.085 310.326 556.042 308.468 557.856 307.366C558.75 306.823 569.009 306.588 586.639 306.708L614.033 306.895V311.828L586.731 312.004C569.731 312.114 558.872 311.87 557.948 311.359Z" fill="#F6F6F6"/>
<path d="M581.811 247.371C570.902 249.045 562.585 259.321 562.585 271.128C562.585 286.195 575.579 297.512 589.815 294.843C601.275 292.694 608.872 283.24 608.872 271.128C608.872 255.932 596.546 245.11 581.811 247.371Z" fill="#F6F6F6"/>
<path fill-rule="evenodd" clip-rule="evenodd" d="M364.08 480.17C361.998 483.85 360.024 490.257 359.137 496.214C358.85 498.135 358.277 499.708 357.864 499.708C356.608 499.708 353.991 492.395 352.941 485.955L351.951 479.882L350.091 485.89C347.62 493.874 342.442 506.265 340.917 507.843C339.818 508.981 340.232 509.373 345.051 511.754L350.407 514.4L351.794 511.445C352.729 509.457 352.927 508.173 352.403 507.518C351.304 506.147 352.421 505.277 353.78 506.445C354.615 507.163 355.051 507.172 355.463 506.48C356.514 504.72 363.123 502.211 366.696 502.216C374.333 502.227 381.532 508.775 382.37 516.471C382.774 520.185 383.792 521.143 385.479 519.396C386.015 518.841 386.085 517.287 385.672 515.079C384.814 510.487 384.818 509.575 385.704 509.575C386.113 509.575 386.68 511.332 386.961 513.48C387.913 520.741 388.144 520.935 390.28 516.281C392.57 511.292 395.735 508.561 401.236 506.829L405.206 505.578L401.633 505.509C395.461 505.389 391.745 501.829 395.341 499.481C397.426 498.119 407.053 499.549 407.988 501.359C408.971 503.261 408.213 505.464 406.576 505.464C404.897 505.464 405.557 505.945 408.102 506.576C410.195 507.095 410.208 507.069 411.13 500.319C411.821 495.258 411.831 492.089 411.168 487.81C410.68 484.657 410.164 481.957 410.022 481.811C409.88 481.663 409.529 483.133 409.242 485.076C408.703 488.723 405.02 496.519 403.618 496.979C403.159 497.13 402.807 495.395 402.785 492.879C402.735 487.276 399.722 480.649 396.868 479.863C395.777 479.563 391.644 479.28 387.685 479.235C383.725 479.189 378.365 478.777 375.775 478.317C365.218 476.445 366.284 476.275 364.08 480.17ZM360.343 497.689C360.343 496.614 360.791 495.524 361.336 495.268C362.471 494.734 372.891 495.4 373.942 496.072C374.979 496.736 374.779 500.341 373.666 501.054C372.466 501.822 367.297 501.519 363.321 500.447C360.932 499.803 360.343 499.258 360.343 497.689Z" fill="#F6F6F6"/>
<path fill-rule="evenodd" clip-rule="evenodd" d="M321.834 504.422C314.726 506.264 312.668 514.46 318.041 519.527C320.882 522.207 330.396 528.486 331.616 528.486C332.131 528.486 332.553 528.856 332.553 529.308C332.553 529.761 332.196 530.13 331.759 530.13C329.505 530.13 332.801 544.325 336.724 551.509C340.708 558.806 350.157 568.018 357.167 571.443C366.73 576.113 374.905 577.499 382.409 575.722C388.832 574.201 391.459 572.755 396.278 568.087C402.152 562.398 404.616 556.394 406.038 544.314L406.546 539.997L403.891 539.979C398.604 539.943 393.259 536.265 390.174 530.542L388.845 528.075L389.262 532.597C389.847 538.939 389.36 539.447 383.095 539.034C378.28 538.717 376.226 538.076 377.106 537.166C377.3 536.965 379.508 537.088 382.014 537.441C385.043 537.866 386.807 537.782 387.277 537.189C387.884 536.425 387.008 522.113 386.31 521.39C386.183 521.259 385.327 521.355 384.409 521.604C383.347 521.891 382.25 523.378 381.402 525.677C377.884 535.215 365.489 538.808 356.99 532.753C352.943 529.87 350.03 524.081 350.008 518.878C349.995 515.877 349.811 515.659 345.761 513.845C343.432 512.801 338.525 510.119 334.858 507.883C328.403 503.949 326.059 503.326 321.834 504.422ZM322.952 513.117C322.237 512.377 322.647 511.744 324.705 510.413C332.073 505.645 340.97 514.881 335.765 521.896C333.895 524.418 332.697 523.558 334.457 520.956C335.156 519.922 335.729 518.603 335.729 518.025C335.729 516.552 330.924 516.685 328.811 518.217C327.824 518.933 326.903 519.131 326.637 518.684C325.838 517.347 329.591 515.331 332.928 515.307L336.126 515.282L333.533 512.84C332.107 511.496 330.386 510.397 329.709 510.397C328.187 510.397 325.203 511.979 324.447 513.185C324.046 513.827 323.618 513.807 322.952 513.117ZM371.657 549.151C372.869 549.823 373.525 549.722 374.499 548.714C376.341 546.807 383.978 547.365 385.503 549.518C386.118 550.387 387.32 550.982 388.172 550.84C389.024 550.699 389.722 550.977 389.722 551.457C389.722 551.938 389.39 552.331 388.985 552.331C388.58 552.331 387.775 552.808 387.198 553.392C384.705 555.915 382.042 557.264 379.555 557.264C377.425 557.264 376.105 556.458 373.006 553.266C369.186 549.33 368.565 547.438 371.657 549.151Z" fill="#F6F6F6"/>
<path d="M563.231 593.648C562.808 594.958 559.023 609.349 541.876 674.843C534.239 704.012 523.321 745.706 517.614 767.497C511.907 789.288 507.237 807.326 507.237 807.58C507.237 807.835 509.295 808.044 511.812 808.044H516.386L519.859 794.683C521.769 787.335 526.829 768.002 531.102 751.721C535.375 735.441 543.564 704.176 549.302 682.243C555.039 660.31 561.347 636.26 563.32 628.798C569.074 607.042 572.347 594.201 572.347 593.382C572.347 592.188 563.621 592.442 563.231 593.648Z" fill="#F6F6F6"/>
<path d="M331.671 550.481C331.563 557.776 331.563 557.281 331.671 570.625L331.759 581.52H356.77L351.964 576.558C349.32 573.829 346.273 569.759 345.192 567.513C344.111 565.268 341.667 561.396 339.759 558.909C337.851 556.421 335.272 552.166 334.026 549.453L331.76 544.52L331.671 550.481Z" fill="#F6F6F6"/>
</svg>
