<svg width="11" height="21" viewBox="0 0 11 21" fill="none" xmlns="http://www.w3.org/2000/svg">
<path d="M10.7044 2.18626C10.7988 2.09084 10.8726 1.9786 10.9216 1.85595C10.9706 1.73329 10.9939 1.60262 10.99 1.47139C10.9861 1.34017 10.9552 1.21096 10.899 1.09115C10.8428 0.97133 10.7625 0.863254 10.6625 0.773089C10.5626 0.682924 10.4451 0.612435 10.3166 0.565647C10.1882 0.518859 10.0513 0.496688 9.91388 0.5004C9.77645 0.504112 9.64114 0.533634 9.51566 0.587282C9.39018 0.640929 9.277 0.71765 9.18257 0.813065L0.286093 9.80779C0.102368 9.99335 0 10.239 0 10.4944C0 10.7497 0.102368 10.9954 0.286093 11.181L9.18257 20.1767C9.27637 20.2742 9.38953 20.3529 9.51547 20.4083C9.64141 20.4637 9.77762 20.4947 9.91619 20.4994C10.0548 20.5041 10.1929 20.4824 10.3227 20.4357C10.4524 20.389 10.5711 20.3181 10.6719 20.2272C10.7728 20.1363 10.8537 20.0272 10.9099 19.9062C10.9662 19.7852 10.9967 19.6547 10.9998 19.5223C11.0028 19.39 10.9782 19.2584 10.9275 19.1351C10.8768 19.0119 10.801 18.8995 10.7044 18.8045L2.48614 10.4944L10.7044 2.18626Z" fill="#D7777B"/>
</svg>
