<svg width="179" height="160" viewBox="0 0 179 160" fill="none" xmlns="http://www.w3.org/2000/svg">
<path d="M160.7 0H80.6C70.81 0 62.8 8 62.8 17.7778V88.8889H125.1L151.8 115.556V88.8889H160.7C170.49 88.8889 178.5 80.8978 178.5 71.1111V17.7778C178.5 8 170.49 0 160.7 0Z" fill="#BF272D"/>
<path d="M58.12 93.5645V44.4444H18.3C8.51 44.4444 0.5 52.4444 0.5 62.2222V115.556C0.5 125.333 8.51 133.333 18.3 133.333H27.2V160L53.9 133.333H98.4C108.19 133.333 116.2 125.333 116.2 115.556L116.5 93.5645C115.973 93.5645 117.098 93.5621 116.5 93.5645H58.12Z" fill="#D7777B" fill-opacity="0.5"/>
</svg>
