<svg width="25" height="25" viewBox="0 0 25 25" fill="none" xmlns="http://www.w3.org/2000/svg">
<path d="M12.5036 0C14.3918 0.00109095 16.2553 0.429694 17.9541 1.25364C19.653 2.0776 21.1431 3.2755 22.3127 4.75745C23.4822 6.23941 24.3009 7.96693 24.7071 9.81037C25.1134 11.6538 25.0968 13.5653 24.6585 15.4014C24.2202 17.2375 23.3716 18.9505 22.1764 20.4119C20.9813 21.8733 19.4705 23.0451 17.7576 23.8394C16.0447 24.6337 14.174 25.0298 12.2861 24.9981C10.3981 24.9663 8.5419 24.5075 6.85667 23.6561L6.66755 23.5545L0.970593 24.9764C0.860954 25.004 0.746638 25.0074 0.635535 24.9865C0.524431 24.9656 0.419186 24.9209 0.327061 24.8554C0.234936 24.7899 0.158125 24.7052 0.101929 24.6071C0.0457333 24.509 0.01149 24.3999 0.00156284 24.2874V24.1592L0.0234444 24.0295L1.44573 18.3358L1.34726 18.1483C0.633808 16.7401 0.193633 15.2095 0.0500146 13.6374L0.0109406 13.0405L0 12.4999C0 9.18474 1.31734 6.00533 3.66222 3.66114C6.00711 1.31695 9.18745 0 12.5036 0ZM13.2851 14.0624H8.59623L8.45557 14.0749C8.27539 14.1075 8.11238 14.2024 7.99501 14.3429C7.87763 14.4834 7.81333 14.6606 7.81333 14.8437C7.81333 15.0267 7.87763 15.204 7.99501 15.3445C8.11238 15.485 8.27539 15.5798 8.45557 15.6124L8.59623 15.6249H13.2851L13.4258 15.6124C13.6059 15.5798 13.7689 15.485 13.8863 15.3445C14.0037 15.204 14.068 15.0267 14.068 14.8437C14.068 14.6606 14.0037 14.4834 13.8863 14.3429C13.7689 14.2024 13.6059 14.1075 13.4258 14.0749L13.2851 14.0624ZM16.411 9.37494H8.59623L8.45557 9.38744C8.27539 9.42006 8.11238 9.51489 7.99501 9.65539C7.87763 9.79589 7.81333 9.97313 7.81333 10.1562C7.81333 10.3392 7.87763 10.5165 7.99501 10.657C8.11238 10.7975 8.27539 10.8923 8.45557 10.9249L8.59623 10.9374H16.411L16.5517 10.9249C16.7318 10.8923 16.8948 10.7975 17.0122 10.657C17.1296 10.5165 17.1939 10.3392 17.1939 10.1562C17.1939 9.97313 17.1296 9.79589 17.0122 9.65539C16.8948 9.51489 16.7318 9.42006 16.5517 9.38744L16.411 9.37494Z" fill="#BF272D"/>
</svg>
