<svg width="29" height="40" viewBox="0 0 29 40" fill="none" xmlns="http://www.w3.org/2000/svg">
<path d="M14.3429 14.1286C11.5572 14.1286 8.75718 15.2143 6.6429 17.4C4.58591 19.5136 3.4418 22.3508 3.45718 25.3C3.45718 28.2858 4.58576 31.0858 6.6429 33.2C7.64033 34.2352 8.83637 35.0585 10.1594 35.6206C11.4825 36.1828 12.9054 36.4721 14.3429 36.4715C17.2572 36.4715 19.9858 35.3143 22.0429 33.2C26.2858 28.8429 26.2858 21.7572 22.0429 17.4C21.0465 16.3635 19.8506 15.5394 18.5273 14.9772C17.204 14.4149 15.7807 14.1263 14.3429 14.1286ZM15.2143 19.5143L16.4 21.9715C16.5429 22.2572 16.8143 22.4715 17.1286 22.5143L19.7715 22.9143C20.5572 23.0286 20.8858 24.0286 20.3 24.6L18.4715 26.4286C18.2 26.7 18.1143 27.1 18.2286 27.4715L19.0715 29.9143C19.3572 30.7286 18.5572 31.5 17.7715 31.1572L14.7143 29.7858C14.5935 29.7295 14.4619 29.7004 14.3286 29.7004C14.1954 29.7004 14.0637 29.7295 13.9429 29.7858L10.8858 31.1572C10.1143 31.5 9.30004 30.7286 9.58576 29.9143L10.4286 27.4715C10.5572 27.1 10.4572 26.7 10.1858 26.4286L8.35718 24.6C7.78576 24.0286 8.10004 23.0286 8.88576 22.9143L11.5286 22.5143C11.8429 22.4715 12.1143 22.2715 12.2572 21.9715L13.4429 19.5143C13.8286 18.7715 14.8572 18.7715 15.2143 19.5143Z" fill="#FF9A47"/>
<path d="M1.67153 0C0.792959 0 0.0715304 0.728572 0.0715304 1.62857V9.9C0.0715304 10.4714 0.374387 11.0143 0.864387 11.3L5.27439 13.9114C3.61526 15.308 2.28297 17.0517 1.37162 19.0196C0.460268 20.9874 -0.00792687 23.1314 0.00010153 25.3C0.00010153 33.4186 6.42153 40 14.343 40C22.2644 40 28.6858 33.4186 28.6858 25.3C28.694 23.1434 28.2313 21.0111 27.3299 19.0519C26.4285 17.0928 25.1103 15.354 23.4672 13.9571L27.8672 11.3C28.3458 11.0143 28.643 10.4714 28.643 9.9V1.62857C28.643 0.728572 27.9372 0 27.0758 0H1.67153ZM22.4287 1.42857V13.1571C21.2849 12.3539 20.0284 11.7247 18.7001 11.29V1.42857H22.4287ZM10.1287 1.42857V11.2443C8.80897 11.6608 7.55754 12.2687 6.41439 13.0486V1.42857H10.1287ZM14.3572 38.2286C10.9858 38.2286 7.81439 36.8857 5.44296 34.4429C3.0565 31.9996 1.7274 28.7153 1.74296 25.3C1.74296 21.8429 3.05725 18.6 5.44296 16.1571C6.60052 14.9609 7.98684 14.0096 9.51948 13.3599C11.0521 12.7103 12.6997 12.3755 14.3644 12.3755C16.029 12.3755 17.6767 12.7103 19.2093 13.3599C20.7419 14.0096 22.1283 14.9609 23.2858 16.1571C28.2001 21.2 28.2001 29.4 23.2858 34.4429C20.8858 36.8857 17.7144 38.2286 14.3572 38.2286Z" fill="#FF9A47" fill-opacity="0.5"/>
</svg>
