<svg width="141" height="138" viewBox="0 0 141 138" fill="none" xmlns="http://www.w3.org/2000/svg">
<path d="M68.75 12.5C57.6248 12.5 46.7494 15.799 37.4992 21.9798C28.2489 28.1607 21.0392 36.9457 16.7818 47.2241C12.5243 57.5024 11.4104 68.8124 13.5808 79.7238C15.7512 90.6353 21.1085 100.658 28.9752 108.525C36.8419 116.391 46.8647 121.749 57.7762 123.919C68.6876 126.09 79.9976 124.976 90.2759 120.718C100.554 116.461 109.339 109.251 115.52 100.001C121.701 90.7506 125 79.8752 125 68.75V62.5H137.5V68.75C137.5 106.719 106.719 137.5 68.75 137.5C30.7812 137.5 0 106.719 0 68.75C0 30.7812 30.7812 0 68.75 0C78.1125 0 87.05 1.875 95.2 5.275L100.969 7.68125L96.1562 19.2187L90.3875 16.8125C83.5304 13.9607 76.1765 12.495 68.75 12.5ZM140.087 21.875L68.75 93.2125L31.7875 56.25L40.625 47.4125L68.75 75.5375L131.25 13.0375L140.087 21.875Z" fill="#44B40D" fill-opacity="0.1"/>
</svg>
