<svg width="22" height="9" viewBox="0 0 22 9" fill="none" xmlns="http://www.w3.org/2000/svg">
<path d="M0.76 8V1H6.13V2.35H2.31V3.78H5.73V5.07H2.31V6.64H6.2V8H0.76ZM11.1925 8.1C10.3592 8.1 9.64583 7.95333 9.0525 7.66C8.45917 7.36667 8.00583 6.95 7.6925 6.41C7.37917 5.87 7.2225 5.23 7.2225 4.49C7.2225 3.90333 7.3225 3.38667 7.5225 2.94C7.7225 2.49333 7.99917 2.12 8.3525 1.82C8.7125 1.51333 9.12917 1.28333 9.6025 1.13C10.0758 0.976666 10.5825 0.9 11.1225 0.9C11.4425 0.9 11.7625 0.933333 12.0825 1C12.4092 1.06 12.7292 1.15 13.0425 1.27L13.3625 1.4L13.1025 2.57L12.7125 2.5C12.4325 2.44 12.1625 2.39333 11.9025 2.36C11.6492 2.32667 11.4058 2.31 11.1725 2.31C10.7058 2.31 10.2958 2.38667 9.9425 2.54C9.58917 2.69333 9.3125 2.93333 9.1125 3.26C8.9125 3.58 8.8125 3.99667 8.8125 4.51C8.8125 5.01 8.90583 5.42667 9.0925 5.76C9.28583 6.08667 9.5625 6.33333 9.9225 6.5C10.2825 6.66 10.7192 6.74 11.2325 6.74C11.4192 6.74 11.6125 6.73 11.8125 6.71C12.0125 6.68333 12.2158 6.64667 12.4225 6.6V5.26H10.6225V4.02H13.8725V7.42C13.6458 7.54667 13.3825 7.66333 13.0825 7.77C12.7892 7.87 12.4825 7.95 12.1625 8.01C11.8425 8.07 11.5192 8.1 11.1925 8.1ZM15.3397 8V1H18.6397C19.1597 1 19.603 1.09667 19.9697 1.29C20.343 1.48333 20.6264 1.76 20.8197 2.12C21.013 2.48 21.1097 2.90667 21.1097 3.4C21.1097 3.9 21.0064 4.33667 20.7997 4.71C20.5997 5.07667 20.313 5.36 19.9397 5.56C19.5664 5.76 19.1264 5.86 18.6197 5.86H16.8797L16.8897 8H15.3397ZM16.8897 4.52H18.3397C18.7197 4.52 19.0097 4.43333 19.2097 4.26C19.4164 4.08 19.5197 3.79667 19.5197 3.41C19.5197 3.01667 19.4164 2.74 19.2097 2.58C19.0097 2.41333 18.7197 2.33 18.3397 2.33H16.8897V4.52Z" fill="#44B40D"/>
</svg>
