<svg width="564" height="680" viewBox="0 0 564 680" fill="none" xmlns="http://www.w3.org/2000/svg">
<path d="M12 446.5L136 600L195.5 630L424.5 679.5L556.5 522L424.5 254.5L444 200.5L408.5 88.5L234 25.5L104.5 0L0.5 138L12 446.5Z" fill="#F2D4D5" fill-opacity="0.4"/>
<path fill-rule="evenodd" clip-rule="evenodd" d="M257.438 182.489C256.467 183.46 256.32 184.267 256.842 185.764C257.282 187.029 258.114 187.283 262.939 187.626C269.175 188.068 269.562 188.046 270.412 187.194C271.437 186.169 271.444 184.074 270.426 183.055C269.655 182.283 269.072 182.198 261.69 181.769L258.351 181.575L257.438 182.489ZM292.628 184.405C291.698 185.034 291.575 185.274 291.496 186.604C291.421 187.878 291.519 188.2 292.164 188.807C292.806 189.41 293.363 189.554 295.833 189.753C300.773 190.152 304.345 190.078 305.082 189.561C305.903 188.985 306.24 187.301 305.764 186.152C305.217 184.83 303.982 184.44 299.64 184.217C297.507 184.108 295.292 183.947 294.717 183.859C293.931 183.739 293.415 183.874 292.628 184.405ZM256.673 192.856C254.119 193.431 251.655 194.333 251.519 194.742C251.289 195.43 252.453 195.475 254.399 194.852C255.486 194.504 256.979 194.141 257.717 194.045C258.456 193.949 259.431 193.813 259.885 193.742C260.708 193.614 260.709 193.615 260.258 194.487C259.631 195.701 259.682 197.561 260.367 198.407C260.834 198.984 261.271 199.119 262.978 199.212C264.748 199.308 265.12 199.237 265.699 198.689C266.238 198.181 266.371 197.73 266.371 196.405C266.371 194.83 266.402 194.764 267.042 194.963C268.391 195.382 269.948 196.664 271.278 198.452C271.736 199.068 272.363 199.572 272.672 199.572C274.523 199.572 271.256 195.627 268.012 193.945C265.135 192.454 260.456 192.005 256.673 192.856ZM223.103 196.268C221.048 196.893 218.629 198.872 218.629 199.927C218.629 200.729 219.467 200.582 220.259 199.64C220.641 199.185 221.606 198.486 222.403 198.087C225.666 196.452 229.798 197.806 231.453 201.052L232.017 202.158L229.722 202.025C227.475 201.894 225.872 202.26 224.827 203.14C224.619 203.316 224.079 203.737 223.627 204.075C222.731 204.747 222.517 205.842 223.281 205.842C223.542 205.842 224.307 205.369 224.981 204.792C225.655 204.215 226.749 203.597 227.414 203.418C229.013 202.987 231.456 203.233 231.923 203.872C232.506 204.669 231.859 206.936 230.486 208.91C230.186 209.343 230.2 209.496 230.565 209.733C231.185 210.138 232.497 208.557 233.134 206.638C234.441 202.701 232.354 198.301 228.376 196.604C226.907 195.977 224.551 195.827 223.103 196.268ZM268.658 232.614C268.196 233.076 268.543 233.6 269.877 234.452C272.955 236.418 277.635 237.593 281.209 237.297C284.576 237.019 289.116 235.537 289.475 234.599C289.765 233.843 288.804 233.845 286.899 234.602C281.493 236.752 275.584 236.322 270.807 233.431C268.99 232.331 268.954 232.318 268.658 232.614Z" fill="#2E2E2E"/>
<path d="M278.787 286.242C278.787 287.156 277.344 289.782 276.158 291.027C273.725 293.583 269.995 295.327 264.442 296.508C261.949 297.038 260.414 297.164 256.707 297.145C251.247 297.116 247.116 296.569 241.367 295.115C236.662 293.926 236.23 293.789 231.195 291.899C227.587 290.545 226.313 290.004 221.945 287.972L219.558 286.863L214.01 288.228L214.184 291.083C214.28 292.653 214.49 296.021 214.65 298.566C214.811 301.111 215.274 308.77 215.681 315.585C216.5 329.337 216.648 331.731 216.878 334.992C216.965 336.223 217.3 341.934 217.622 347.681C217.944 353.429 218.344 360.281 218.509 362.908C218.675 365.536 219.089 372.185 219.429 377.684C219.769 383.183 220.099 387.734 220.163 387.797C220.226 387.861 222.264 387.274 224.692 386.494C237.289 382.444 239.659 381.587 241.664 380.353C244.339 378.707 247.31 377.337 250.306 376.368C255.604 374.655 256.191 374.608 284.158 373.663C291.789 373.406 298.557 373.164 299.198 373.127C300.338 373.061 300.378 373.02 301.062 371.186L301.76 369.312L301.304 364.319C300.684 357.527 298.547 334.384 298.183 330.513C297.357 321.742 296.657 314.185 296.382 311.106C295.279 298.726 294.356 289.264 294.241 289.149C294.135 289.043 284.796 286.937 279.757 285.883C278.934 285.711 278.787 285.765 278.787 286.242Z" fill="#D7777B"/>
<path d="M187.267 539.433C186.764 541.201 185.584 545.269 184.645 548.471C181.194 560.233 179.751 565.318 179.839 565.406C180.046 565.613 319.815 565.476 319.81 565.269C319.786 564.185 317.674 541.124 317.403 538.991L317.242 537.722H189.752L188.182 536.217L187.267 539.433Z" fill="#D7777B"/>
<path d="M410.996 393.088C410.928 393.157 419.102 393.213 429.16 393.213H447.449L447.25 392.243C447.237 392.183 447.223 392.109 447.205 392.022C447.193 391.959 447.179 391.889 447.164 391.813C447.127 391.623 447.082 391.39 447.029 391.116C446.998 390.959 446.966 390.787 446.93 390.603H413.435C412.375 391.686 411.512 392.566 410.996 393.088Z" fill="#488B1E"/>
<path d="M118.474 264.325L116.821 261.466C119.387 259.98 120.865 258.406 121.257 256.743C121.664 255.071 121.139 252.974 119.68 250.453L115.412 243.075C114.185 240.953 113.322 239.001 112.824 237.217C112.341 235.424 112.267 233.754 112.602 232.205C112.937 230.657 113.73 229.192 114.982 227.811C116.234 226.429 117.99 225.085 120.248 223.777L122.862 228.296C121.08 229.328 119.834 230.419 119.125 231.568C118.431 232.709 118.207 233.988 118.452 235.405C118.704 236.798 119.35 238.394 120.391 240.192L125.726 249.416C126.419 250.615 126.889 251.799 127.135 252.97C127.397 254.132 127.31 255.311 126.874 256.507C126.438 257.704 125.547 258.948 124.203 260.239C122.873 261.522 120.964 262.884 118.474 264.325ZM154.392 282.805C152.133 284.113 150.093 284.966 148.272 285.363C146.451 285.761 144.787 285.719 143.278 285.239C141.769 284.758 140.358 283.861 139.045 282.549C137.748 281.228 136.485 279.506 135.258 277.385L130.99 270.006C129.532 267.485 127.977 265.985 126.325 265.505C124.689 265.016 122.588 265.514 120.022 267L118.368 264.141C120.857 262.699 122.989 261.722 124.763 261.208C126.552 260.685 128.074 260.532 129.328 260.75C130.582 260.968 131.647 261.48 132.524 262.286C133.416 263.083 134.208 264.081 134.902 265.28L140.237 274.503C141.277 276.301 142.338 277.657 143.42 278.57C144.517 279.473 145.732 279.908 147.067 279.875C148.425 279.848 149.996 279.318 151.778 278.286L154.392 282.805ZM120.022 267L116.821 261.466L122.26 258.317L125.461 263.851L120.022 267Z" fill="#2E2E2E"/>
<path d="M178.85 229.124L180.504 231.983C177.938 233.469 176.452 235.048 176.045 236.72C175.653 238.383 176.186 240.475 177.644 242.996L181.912 250.374C183.139 252.496 183.995 254.453 184.478 256.246C184.976 258.029 185.058 259.696 184.723 261.244C184.388 262.792 183.594 264.257 182.342 265.638C181.091 267.02 179.335 268.364 177.077 269.672L174.462 265.153C176.245 264.121 177.478 263.027 178.164 261.871C178.873 260.722 179.102 259.45 178.85 258.057C178.613 256.655 177.974 255.055 176.934 253.257L171.599 244.033C170.906 242.834 170.428 241.654 170.166 240.492C169.92 239.322 170.015 238.138 170.451 236.942C170.887 235.746 171.77 234.506 173.099 233.223C174.444 231.932 176.361 230.565 178.85 229.124ZM142.933 210.644C145.191 209.336 147.231 208.483 149.052 208.086C150.873 207.688 152.538 207.73 154.047 208.21C155.556 208.691 156.959 209.592 158.256 210.914C159.569 212.226 160.839 213.943 162.066 216.064L166.334 223.443C167.793 225.964 169.34 227.469 170.976 227.958C172.628 228.438 174.737 227.935 177.303 226.449L178.957 229.309C176.468 230.75 174.329 231.732 172.539 232.255C170.765 232.769 169.251 232.917 167.997 232.699C166.743 232.481 165.67 231.974 164.778 231.177C163.902 230.371 163.117 229.369 162.423 228.17L157.088 218.946C156.048 217.148 154.979 215.797 153.882 214.893C152.791 213.965 151.571 213.522 150.222 213.565C148.888 213.598 147.329 214.131 145.547 215.163L142.933 210.644ZM177.303 226.449L180.504 231.983L175.065 235.132L171.864 229.598L177.303 226.449Z" fill="#2E2E2E"/>
<path d="M51.1005 165.147L51.8046 158.935L77.8808 150.811L77.0707 157.958L59.2924 162.859L59.5637 162.514L59.4637 163.397L59.2764 163L75.5066 171.758L74.6966 178.906L51.1005 165.147Z" fill="#D7777B"/>
<path d="M102.135 144.107L85.5883 186.057L79.1147 185.323L95.6609 143.373L102.135 144.107Z" fill="#D7777B"/>
<path d="M129.053 173.99L102.977 182.114L103.787 174.967L121.565 170.066L121.294 170.411L121.394 169.528L121.581 169.925L105.351 161.166L106.161 154.019L129.757 167.778L129.053 173.99Z" fill="#D7777B"/>
<path d="M186.66 168.961L146.922 113.547L150.471 111L190.208 166.414L186.66 168.961ZM170.787 121.599C168.954 119.592 166.68 118.644 163.965 118.757C161.249 118.871 158.55 119.89 155.867 121.816C153.905 123.224 152.416 124.773 151.4 126.464C150.399 128.145 149.886 129.836 149.86 131.537C149.849 133.228 150.351 134.78 151.365 136.195C152.214 137.378 153.224 138.193 154.397 138.641C155.575 139.064 156.812 139.236 158.11 139.157C159.398 139.063 160.661 138.845 161.901 138.501C163.13 138.144 164.233 137.778 165.211 137.404L170.58 135.386C171.951 134.861 173.535 134.358 175.332 133.878C177.143 133.387 179.028 133.137 180.989 133.129C182.953 133.096 184.873 133.488 186.749 134.306C188.624 135.124 190.307 136.572 191.797 138.65C193.515 141.045 194.44 143.66 194.572 146.495C194.718 149.319 194.003 152.16 192.426 155.019C190.863 157.867 188.38 160.513 184.976 162.956C181.803 165.234 178.688 166.694 175.631 167.336C172.588 167.968 169.746 167.844 167.105 166.964C164.478 166.073 162.209 164.478 160.297 162.178L165.836 158.202C167.181 159.772 168.737 160.754 170.504 161.147C172.275 161.515 174.11 161.422 176.007 160.869C177.909 160.291 179.739 159.37 181.499 158.107C183.547 156.637 185.148 154.985 186.302 153.152C187.446 151.303 188.064 149.439 188.157 147.558C188.24 145.662 187.702 143.906 186.543 142.29C185.487 140.818 184.217 139.916 182.733 139.582C181.248 139.249 179.628 139.275 177.873 139.66C176.117 140.046 174.306 140.582 172.437 141.267L165.867 143.622C161.692 145.111 157.932 145.656 154.588 145.259C151.244 144.861 148.501 143.169 146.359 140.181C144.579 137.699 143.697 135.053 143.714 132.243C143.735 129.409 144.517 126.661 146.062 124.001C147.61 121.316 149.798 118.958 152.625 116.929C155.481 114.879 158.387 113.569 161.343 113C164.289 112.415 167.042 112.538 169.603 113.366C172.178 114.185 174.303 115.687 175.979 117.872L170.787 121.599Z" fill="#BF272D"/>
<path d="M435.143 387.352L432.543 386.852L434.292 385.852L435.143 387.352Z" fill="#2E2E2E"/>
<path d="M445.54 389.353L442.94 388.853L444.69 387.852L445.54 389.353Z" fill="#2E2E2E"/>
<path d="M440.541 384.351L437.941 383.851L439.691 382.851L440.541 384.351Z" fill="#2E2E2E"/>
<path d="M425.144 387.852L422.544 387.352L424.294 386.352L425.144 387.852Z" fill="#2E2E2E"/>
<path d="M430.144 382.351L427.544 381.851L429.293 380.85L430.144 382.351Z" fill="#2E2E2E"/>
<path d="M436.982 379.85L434.382 379.35L436.132 378.35L436.982 379.85Z" fill="#2E2E2E"/>
<path fill-rule="evenodd" clip-rule="evenodd" d="M435.135 368.204L434.382 368.985C431.13 372.359 427.122 376.517 425.144 378.57C422.932 380.866 417.044 386.914 413.435 390.603H446.93C446.394 387.803 445.298 381.977 443.913 374.553C443.668 373.239 443.277 371.156 443.044 369.925C442.811 368.693 442.393 366.375 442.117 364.774C441.84 363.173 441.531 361.863 441.43 361.863C441.329 361.863 438.496 364.716 435.135 368.204ZM422.544 387.352L425.144 387.852L424.294 386.352L422.544 387.352ZM435.143 387.352L432.543 386.852L434.292 385.852L435.143 387.352ZM442.94 388.853L445.54 389.353L444.69 387.852L442.94 388.853ZM440.541 384.351L437.941 383.851L439.691 382.851L440.541 384.351ZM434.382 379.35L436.982 379.85L436.132 378.35L434.382 379.35ZM430.144 382.351L427.544 381.851L429.293 380.85L430.144 382.351ZM436.982 373.849L439.582 374.349L438.732 372.848L436.982 373.849Z" fill="#BF272D"/>
<path d="M439.582 374.349L436.982 373.849L438.732 372.848L439.582 374.349Z" fill="#2E2E2E"/>
<path d="M284.87 375.003C279.373 375.212 271.048 375.526 266.371 375.702C253.917 376.169 249.331 377.351 241.438 382.125C239.783 383.126 237.259 384.019 225.492 387.768C223.112 388.526 219.756 389.6 218.032 390.155C216.309 390.71 212.482 391.934 209.528 392.875C206.574 393.816 203.218 394.897 202.069 395.278C200.92 395.658 197.362 396.802 194.162 397.819C190.961 398.836 185.725 400.516 182.525 401.553C179.325 402.589 174.088 404.27 170.888 405.286C167.687 406.303 162.451 407.985 159.251 409.024C156.051 410.063 150.008 412.003 145.823 413.336C141.639 414.668 136.805 416.214 135.082 416.77C131.363 417.972 120.01 421.616 109.421 425.008C105.236 426.349 101.073 427.69 100.171 427.99C93.6545 430.151 87.8846 431.864 87.6358 431.71C87.4731 431.609 87.3401 431.344 87.3401 431.121C87.3401 430.703 89.9849 429.818 115.985 421.531C118.254 420.808 118.285 420.698 116.532 419.602C112.535 417.101 104.413 413.447 100.32 412.306C94.9799 410.819 87.6012 409.763 82.5886 409.77C78.7943 409.774 78.0162 409.965 77.2967 411.064C76.9584 411.582 75.7625 413.416 74.6393 415.141C73.5162 416.865 72.4904 418.32 72.36 418.375C72.2293 418.43 72.1225 418.592 72.1225 418.736C72.1225 418.88 69.7396 422.598 66.827 426.997C63.9145 431.396 61.4642 435.13 61.3815 435.294C61.2392 435.577 57.7108 440.965 55.4762 444.311C54.9063 445.164 54.1215 446.162 53.7328 446.527C53.344 446.893 53.0259 447.295 53.0259 447.42C53.0259 447.546 52.2253 448.933 51.2466 450.503C47.3488 456.757 45.6683 461.657 45.3532 467.686C45.0832 472.853 46.1821 478.683 48.278 483.2C49.4477 485.721 52.0618 489.632 53.9846 491.737C55.4574 493.35 59.3594 496.521 61.2314 497.628C67.6213 501.404 75.4897 502.986 82.523 501.908C85.6473 501.429 88.9146 500.406 103.154 495.451C107.011 494.109 110.771 492.829 111.509 492.607C112.248 492.384 115.202 491.375 118.074 490.365C126.858 487.275 136.841 483.821 140.452 482.622C142.34 481.996 147.039 480.388 150.896 479.051C158.631 476.368 160.726 475.647 167.755 473.248C170.38 472.351 175.684 470.516 179.541 469.169C183.397 467.822 187.157 466.543 187.896 466.326C188.634 466.109 190.38 465.513 191.775 465.002C193.17 464.491 195.855 463.55 197.742 462.911C199.63 462.272 204.329 460.66 208.186 459.33C212.042 457.999 217.24 456.218 219.737 455.372L220.333 455.12L256.393 440.046L258.201 438.968L258.101 435.489C258.045 433.576 257.869 428.851 257.709 424.991C257.55 421.13 257.419 416.663 257.419 415.063C257.419 413.261 257.302 412.155 257.111 412.155C256.715 412.155 254.552 413.259 251.904 414.813C250.758 415.486 249.583 416.036 249.293 416.036C248.34 416.036 248.71 414.983 249.885 414.352C250.5 414.021 252.533 412.914 254.402 411.891C256.27 410.869 257.982 410.103 258.206 410.188C258.462 410.287 258.612 410.818 258.612 411.623C258.611 412.326 258.749 416.327 258.918 420.515C259.088 424.702 259.419 433.693 259.655 440.494C260.08 452.774 260.088 452.871 260.854 454.436C261.726 456.22 262.767 457.412 264.267 458.346L265.296 458.987L267.576 456.93C269.744 454.974 269.901 454.745 270.771 452.249C271.748 449.446 275.075 440.628 276.545 436.945L277.435 434.714L277.125 425.599C276.955 420.586 276.728 414.894 276.622 412.949L276.428 409.415L277.143 409.516C277.174 409.52 277.203 409.523 277.23 409.526C277.301 409.534 277.365 409.541 277.422 409.563C277.91 409.754 277.958 411.07 278.411 423.57L278.477 425.384C278.583 428.308 278.747 430.623 278.842 430.528C278.936 430.434 279.173 429.922 279.368 429.392C280.521 426.255 286.543 410.152 288.94 403.795C289.838 401.414 291.293 397.517 292.173 395.136C293.052 392.755 295.126 387.246 296.78 382.895C298.434 378.543 299.788 374.882 299.789 374.759C299.79 374.483 297.606 374.519 284.87 375.003Z" fill="#F6F6F6"/>
<path d="M229.87 239.374C229.86 239.58 229.654 239.747 229.412 239.747C229.028 239.747 228.97 242.529 228.961 261.504C228.952 278.666 229.029 283.324 229.326 283.562C229.847 283.98 233.776 285.675 236.118 286.492C239.755 287.762 245.212 289.025 249.098 289.496C260.124 290.834 271.951 288.04 272.974 283.856C273.063 283.489 273.099 279.833 273.052 275.73L272.968 268.271L270.134 267.936C266.409 267.497 264.376 267.056 260.586 265.866C257.554 264.914 251.714 262.286 249.516 260.884C247.531 259.617 246.712 259.049 246.412 258.727C246.248 258.551 245.523 258.023 244.8 257.552C243.526 256.723 238.484 251.869 236.999 250.043C234.82 247.362 233.516 245.449 232.075 242.819C230.096 239.207 229.892 238.889 229.87 239.374Z" fill="#F6F6F6"/>
<path fill-rule="evenodd" clip-rule="evenodd" d="M287.539 161.331C285.327 163.845 281.374 165.841 277.403 166.449C275.948 166.672 272.061 166.184 270.078 165.53C268.493 165.007 265.601 163.205 264.417 162.002L263.624 161.196L262.179 162.628C258.409 166.363 252.141 167.38 247.546 165.002C246.282 164.347 246.263 164.354 246.261 165.478C246.258 166.655 244.323 181.961 243.909 184.086C243.3 187.203 240.749 193.181 238.822 196.007C238.486 196.499 238.21 197.142 238.209 197.434C238.205 198.299 237.41 198.351 236.356 197.555C235.815 197.147 234.902 196.552 234.328 196.233C233.753 195.914 231.604 194.712 229.552 193.563C225.099 191.069 224.033 190.686 221.658 190.726C214.64 190.846 210.077 197.563 212.493 204.217C213.668 207.455 215.823 209.076 225.213 213.787C226.847 214.606 228.276 215.427 228.389 215.61C228.604 215.959 232.535 215.822 233.464 215.434C233.864 215.267 234.098 215.861 234.891 219.056C236.576 225.844 236.814 226.525 237.881 227.627C239.633 229.436 240.955 229.788 247.457 230.173C254.904 230.615 258.004 230.627 258.141 230.216C258.2 230.039 258.426 229.894 258.644 229.894C258.862 229.894 260.026 229.084 261.23 228.093C263.751 226.019 266.177 224.742 268.94 224.032C270.69 223.583 271.538 223.57 277.593 223.901C290.499 224.605 290.833 224.717 298.23 230.843C300.013 232.32 301.687 233.477 302.04 233.477C302.839 233.477 302.985 233.097 304.165 227.954C304.692 225.655 305.443 222.51 305.833 220.966C306.224 219.421 306.498 218.111 306.441 218.055C306.384 217.998 304.201 217.817 301.589 217.653C295.687 217.281 294.074 216.959 292.539 215.847C290.516 214.38 289.74 212.834 289.586 209.965C289.474 207.874 289.375 207.502 288.935 207.502C288.649 207.502 288.074 207.233 287.657 206.904C286.886 206.297 286.241 206.126 286.254 206.531C286.258 206.654 286.384 207.293 286.535 207.949C287.059 210.233 288.037 217.692 288.037 219.402C288.037 221.312 287.449 222.267 286.057 222.616C285.272 222.813 279.423 222.53 277.001 222.177C276.032 222.036 275.633 221.831 275.556 221.434C275.456 220.912 275.672 220.897 279.879 221.124L280.246 221.144C284.394 221.369 286.007 221.457 286.565 220.732C286.921 220.27 286.849 219.48 286.732 218.188L286.716 218.008C286.603 216.745 286.399 215.175 286.264 214.518C286.129 213.861 285.779 211.745 285.487 209.815C285.195 207.886 284.839 206.307 284.696 206.307C284.552 206.307 284.105 206.524 283.702 206.788C283.224 207.101 282.692 207.199 282.174 207.069C281.192 206.823 280.889 207.237 280.874 208.845C280.849 211.516 278.833 214.272 276.176 215.267C274.614 215.851 274.424 215.855 267.657 215.418C259.28 214.878 258.766 214.803 256.775 213.836C254.62 212.788 253.246 211.421 251.054 208.139C248.923 204.951 248.581 204.044 248.973 202.624C249.681 200.059 250.94 199.619 256.408 200.026C258.624 200.19 263.793 200.53 267.896 200.779L268.474 200.814L269.388 200.87C278.353 201.414 279.461 201.481 280.07 202.067C280.156 202.149 280.232 202.242 280.319 202.348L280.322 202.352C280.331 202.363 280.341 202.375 280.35 202.387C280.373 202.415 280.397 202.444 280.422 202.474C280.946 203.096 281.174 203.723 281.174 204.539C281.174 205.589 281.251 205.71 281.921 205.71C282.332 205.71 283.105 205.475 283.639 205.188C284.562 204.69 284.599 204.607 284.38 203.471C284.253 202.814 283.757 200.261 283.278 197.798C282.783 195.255 282.518 193.205 282.665 193.056C283.398 192.31 283.785 193.335 284.894 198.96C285.818 203.65 286.142 204.814 286.525 204.814C286.788 204.814 287.497 205.15 288.101 205.561C288.705 205.971 289.271 206.307 289.36 206.307C289.449 206.307 289.608 205.771 289.712 205.115C289.817 204.459 290.167 203.62 290.489 203.249C291.04 202.617 291.29 202.577 294.554 202.615C296.467 202.637 300.102 202.805 302.631 202.99C305.16 203.174 307.265 203.289 307.309 203.245C307.353 203.201 307.483 202.011 307.597 200.601C307.788 198.252 307.758 198.022 307.245 197.869C306.938 197.776 305.947 197.437 305.045 197.115C304.142 196.793 303.044 196.445 302.605 196.342L301.806 196.155L301.969 197.743C302.179 199.78 301.564 201.097 300.269 201.381C299.121 201.633 297.049 201.307 296.143 200.732C295.512 200.331 295.457 200.111 295.547 198.358C295.644 196.453 295.636 196.428 294.936 196.605C293.879 196.871 291.055 198.756 290.213 199.757C289.402 200.722 288.711 200.885 288.439 200.175C288.216 199.593 288.932 198.785 291.102 197.175C293.485 195.405 295.511 194.834 299.375 194.843C302.072 194.849 302.876 194.976 305.147 195.754C306.826 196.33 307.82 196.54 307.881 196.332C308.084 195.639 309.269 174.598 309.319 170.81L309.371 166.812L307.854 166.292C305.74 165.567 304.093 164.462 302.778 162.888L301.655 161.544L300.59 162.116C296.731 164.187 293.291 163.927 290.226 161.332L288.686 160.027L287.539 161.331ZM256.842 185.764C256.32 184.267 256.467 183.46 257.438 182.489L258.351 181.575L261.69 181.769C269.072 182.198 269.655 182.283 270.426 183.055C271.444 184.074 271.437 186.169 270.412 187.194C269.562 188.046 269.175 188.068 262.939 187.626C258.114 187.283 257.282 187.029 256.842 185.764ZM291.496 186.604C291.575 185.274 291.698 185.034 292.628 184.405C293.415 183.874 293.931 183.739 294.717 183.859C295.292 183.947 297.507 184.108 299.64 184.217C303.982 184.44 305.217 184.83 305.764 186.152C306.24 187.301 305.903 188.985 305.082 189.561C304.345 190.078 300.773 190.152 295.833 189.753C293.363 189.554 292.806 189.41 292.164 188.807C291.519 188.2 291.421 187.878 291.496 186.604ZM251.519 194.742C251.655 194.333 254.119 193.431 256.673 192.856C260.456 192.005 265.135 192.454 268.012 193.945C271.256 195.627 274.523 199.572 272.672 199.572C272.363 199.572 271.736 199.068 271.278 198.452C269.948 196.664 268.391 195.382 267.042 194.963C266.402 194.764 266.371 194.83 266.371 196.405C266.371 197.73 266.238 198.181 265.699 198.689C265.12 199.237 264.748 199.308 262.978 199.212C261.271 199.119 260.834 198.984 260.367 198.407C259.682 197.561 259.631 195.701 260.258 194.487C260.709 193.615 260.708 193.614 259.885 193.742C259.431 193.813 258.456 193.949 257.717 194.045C256.979 194.141 255.486 194.504 254.399 194.852C252.453 195.475 251.289 195.43 251.519 194.742ZM218.629 199.927C218.629 198.872 221.048 196.893 223.103 196.268C224.551 195.827 226.907 195.977 228.376 196.604C232.354 198.301 234.441 202.701 233.134 206.638C232.497 208.557 231.185 210.138 230.565 209.733C230.2 209.496 230.186 209.343 230.486 208.91C231.859 206.936 232.506 204.669 231.923 203.872C231.456 203.233 229.013 202.987 227.414 203.418C226.749 203.597 225.655 204.215 224.981 204.792C224.307 205.369 223.542 205.842 223.281 205.842C222.517 205.842 222.731 204.747 223.627 204.075C224.079 203.737 224.619 203.316 224.827 203.14C225.872 202.26 227.475 201.894 229.722 202.025L232.017 202.158L231.453 201.052C229.798 197.806 225.666 196.452 222.403 198.087C221.606 198.486 220.641 199.185 220.259 199.64C219.467 200.582 218.629 200.729 218.629 199.927Z" fill="#F6F6F6"/>
<path fill-rule="evenodd" clip-rule="evenodd" d="M271.178 229.393C267.798 230.528 264.427 233.217 263.249 235.717C262.419 237.48 262.503 238.949 263.497 240.063C264.272 240.93 264.498 241.001 267.302 241.251C268.941 241.398 271.448 241.522 272.871 241.528C275.228 241.538 275.541 241.47 276.377 240.766C276.882 240.341 277.295 239.818 277.295 239.605C277.295 238.962 279.337 238.169 280.504 238.358C281.728 238.557 282.475 239.161 282.967 240.352C283.163 240.824 283.633 241.414 284.012 241.663C284.957 242.282 287.952 242.728 291.189 242.731C293.781 242.733 293.927 242.697 294.717 241.873C295.443 241.114 295.542 240.778 295.552 239.045C295.566 236.573 294.757 235.066 292.352 233.085C289.799 230.981 287.438 229.937 284.455 229.591C279.86 229.058 272.504 228.949 271.178 229.393ZM269.877 234.452C268.543 233.6 268.196 233.076 268.658 232.614C268.954 232.318 268.99 232.331 270.807 233.431C275.584 236.322 281.493 236.752 286.899 234.602C288.804 233.845 289.765 233.843 289.475 234.599C289.116 235.537 284.576 237.019 281.209 237.297C277.635 237.593 272.955 236.418 269.877 234.452Z" fill="#F6F6F6"/>
<path d="M331.039 294.461C330.192 296.752 288.054 409.174 280.26 429.938L270.79 455.167L273.136 457.542C274.426 458.848 275.561 459.838 275.657 459.741C275.814 459.584 286.329 431.61 324.563 329.617L336.26 298.417L561.192 298.267L556.747 293.789H331.288L331.039 294.461Z" fill="#F6F6F6"/>
<path d="M424.398 515.431C423.824 515.658 423.017 515.981 422.605 516.149C421.37 516.653 419.463 518.722 418.591 520.505C417.856 522.009 417.784 522.432 417.887 524.651C418.105 529.348 419.518 530.922 427.289 535.123C431.044 537.153 433.164 538.122 434.218 538.289C438.284 538.932 442.227 536.921 444.005 533.298C444.706 531.87 444.838 531.223 444.838 529.213C444.838 527.199 444.706 526.556 443.999 525.115C443.127 523.338 441.411 521.623 439.616 520.735C439.042 520.451 437.43 519.564 436.035 518.764C430.563 515.626 429.752 515.281 427.532 515.145C426.173 515.062 425.078 515.162 424.398 515.431Z" fill="#F6F6F6"/>
<path d="M437.677 499.404C435.43 499.889 433.11 501.416 431.862 503.231C429.317 506.933 429.724 512.006 432.801 514.934C433.594 515.688 439.359 519.211 439.8 519.211C439.86 519.211 440.816 519.79 441.926 520.498C444.634 522.226 452.076 526.439 453.193 526.876C454.678 527.458 458.171 527.355 459.735 526.685C462.55 525.477 464.927 522.517 465.411 519.615C465.652 518.171 465.211 515.462 464.487 513.936C463.765 512.411 461.64 510.424 459.505 509.274C458.495 508.731 454.369 506.383 450.336 504.058C442.247 499.394 440.575 498.779 437.677 499.404Z" fill="#F6F6F6"/>
<path d="M461.441 468.136C455.049 470.51 453.079 478.155 457.576 483.132C458.435 484.084 466.389 488.924 471.402 491.548C475.323 493.599 479.632 492.953 482.636 489.864C485.599 486.817 485.994 482.318 483.628 478.577C482.338 476.537 481.447 475.907 473.846 471.66C473.482 471.456 473.117 471.223 473.035 471.141C472.857 470.963 471.535 470.246 468.77 468.826C466.167 467.489 463.786 467.265 461.441 468.136Z" fill="#F6F6F6"/>
<path d="M449.164 483.854C444.206 485.442 441.372 491.042 443.152 495.733C444.077 498.17 445.762 499.802 449.668 502.044C453.095 504.011 460.35 508.228 464.485 510.657C466.335 511.743 466.763 511.869 469.031 511.988C471.315 512.108 471.685 512.046 473.254 511.278C478.059 508.928 480.012 503.675 477.802 499.042C477.268 497.922 476.407 496.728 475.691 496.115C475.026 495.546 471.639 493.436 468.164 491.428C464.689 489.419 460.57 487.022 459.011 486.101C457.453 485.18 455.573 484.192 454.834 483.905C453.233 483.282 451.011 483.262 449.164 483.854Z" fill="#F6F6F6"/>
<path d="M318.884 536.663C318.793 536.901 318.802 537.233 318.905 537.4C319.111 537.733 351.637 537.872 352.94 537.545C353.403 537.429 353.681 537.147 353.681 536.794C353.681 536.247 353.152 536.229 336.366 536.229C321.503 536.229 319.026 536.291 318.884 536.663Z" fill="#F6F6F6"/>
<path d="M285.65 460.989C285.65 461.585 285.849 461.586 386.323 461.586C472.415 461.586 487.019 461.526 487.156 461.168C487.244 460.937 487.236 460.669 487.138 460.571C487.04 460.472 441.665 460.392 386.305 460.392C285.849 460.392 285.65 460.393 285.65 460.989Z" fill="#F6F6F6"/>
<path fill-rule="evenodd" clip-rule="evenodd" d="M466.206 521.446L466.601 520.107L466.853 518.912L466.686 517.292C466.594 516.401 466.238 515.037 465.894 514.261C465.551 513.484 465.305 512.816 465.348 512.777C465.391 512.738 466.335 512.894 467.445 513.125C469.191 513.487 469.745 513.485 471.548 513.109C474.004 512.597 476.558 511.038 477.836 509.273C480.959 504.96 480.47 498.775 476.736 495.33L475.475 494.167L477.086 493.966C480.577 493.529 483.911 491.113 485.506 487.863C486.194 486.462 486.312 485.843 486.307 483.681C486.301 481.262 485.901 479.904 484.458 477.398C484.407 477.31 488.463 473.625 493.47 469.211C498.478 464.796 502.575 461.063 502.575 460.914C502.575 460.668 506.431 450.19 508.097 445.911C508.48 444.926 509.699 441.701 510.804 438.746C511.91 435.79 513.469 431.625 514.269 429.49C516.412 423.773 516.714 422.967 518.181 419.04C521.646 409.766 526.499 396.825 526.915 395.751C527.169 395.094 528.85 390.593 530.65 385.749C532.45 380.905 534.058 376.622 534.223 376.232C535.192 373.942 563.147 299.097 563.147 298.793C563.147 298.589 561.798 297.111 560.148 295.508L557.15 292.595L446.837 292.576C386.165 292.565 335.114 292.448 333.391 292.315C331.547 292.172 323.63 290.765 314.146 288.894C304.422 286.976 297.71 285.786 297.22 285.893C296.773 285.99 295.98 286.47 295.457 286.958L294.506 287.847L292.167 287.341L288.497 286.569C288.428 286.559 288.348 286.541 288.256 286.518C287.884 286.425 286.876 286.197 286.018 286.013L284.456 285.678V266.665L285.575 266.302C287.622 265.639 291.446 263.642 293.259 262.289C295.679 260.484 299.042 257.146 300.291 255.311L302.023 252.884L302.629 251.765C304.473 248.362 305.733 244.358 306.223 240.344C306.518 237.915 307.73 220.616 307.73 218.817C307.73 217.984 307.783 217.952 309.148 217.948C311.153 217.943 313.48 217.258 315.164 216.176C316.755 215.155 321.258 210.15 321.75 208.857C322.191 207.696 321.644 205.922 320.566 205.014C319.531 204.143 318.765 204.009 313.372 203.755C311.141 203.65 309.166 203.471 308.983 203.358C308.759 203.219 308.709 202.442 308.83 200.991C308.992 199.061 309.071 198.849 309.566 199.007C309.932 199.123 310.189 199.004 310.322 198.658C310.439 198.352 310.373 198.082 310.166 198.013C309.357 197.743 309.053 197.099 309.167 195.899C309.275 194.762 309.354 194.663 310.149 194.663C310.718 194.663 311.012 194.51 311.012 194.215C311.012 193.919 310.716 193.767 310.135 193.767H309.257L309.416 191.752C309.503 190.644 309.809 186.31 310.095 182.123C310.585 174.947 310.681 174.284 311.766 170.583L312.917 166.657L314.128 166.296C317.174 165.386 320.065 162.717 321.173 159.79C321.999 157.611 322.053 154.195 321.292 152.266C320.488 150.225 318.952 148.283 317.168 147.054C315.607 145.978 315.554 145.895 315.366 144.238C315.038 141.33 313.091 138.027 310.829 136.542C310.378 136.245 310.147 135.695 310.018 134.605C309.919 133.767 309.629 132.763 309.374 132.373L308.91 131.664C307.942 130.455 303.298 128.149 301.701 127.902C300.883 127.652 299.087 127.002 298.452 126.402C298.423 125.985 298.223 125.101 297.658 124.901C297.534 124.978 296.493 124.721 295.346 124.33C291.113 122.887 286.217 123.769 283.218 126.517C282.23 127.421 281.435 127.294 281.139 126.185C280.477 123.71 278.418 122.274 275.638 122.347C274.389 122.38 274.013 122.288 274.013 121.951C274.013 121.223 273.473 121.448 272.02 122.782C271.238 123.5 270.586 123.9 270.519 123.705C269.808 121.631 266.271 118.247 263.388 116.883C254.492 112.672 244.118 117.428 241.34 126.992C240.971 128.261 240.723 128.677 240.406 128.556C238.627 127.873 236.383 127.438 234.535 127.419C224 127.31 216.631 137.136 219.573 147.372C219.732 147.923 219.598 148.027 218.506 148.202C216.814 148.472 215.703 149.091 214.827 150.25C213.094 152.542 213.214 155.466 215.122 157.431L216.155 158.495L215.802 163.666C215.471 168.514 215.583 183.852 215.988 188.99L216.141 190.931L214.865 191.835C211.809 194.002 210.039 198.532 210.733 202.414C211.374 206.008 213.561 208.904 217.148 210.911L219.019 211.958L219.55 214.433C221.069 221.511 223.544 229.075 226.162 234.641L227.763 238.043L227.76 283.488L221.57 285.094C220.932 285.26 220.347 285.413 219.812 285.552C215.349 286.717 214.281 286.996 213.573 286.611C213.35 286.49 213.163 286.303 212.918 286.057L212.917 286.056C212.824 285.963 212.721 285.86 212.606 285.751C211.492 284.69 211.151 284.533 209.962 284.533C209.211 284.533 203.879 285.741 198.114 287.216C179.126 292.075 170.112 294.385 163.611 296.056C157.042 297.744 155.029 298.481 152.428 300.151L150.943 301.104L182.412 301.253C212.166 301.394 213.886 301.431 213.981 301.929C214.078 302.429 212.482 302.455 181.866 302.444L149.649 302.432L148.253 303.261C143.543 306.057 140.514 308.507 137.833 311.687C136.349 313.448 124.821 330.179 124.821 330.572C124.821 330.622 144.995 330.625 169.653 330.579C194.311 330.533 214.787 330.57 215.157 330.659C215.93 330.848 216.051 331.558 215.356 331.825C215.096 331.925 194.626 332.006 169.867 332.006C131.687 332.006 124.814 331.943 124.612 331.59C124.443 331.295 123.545 332.403 121.538 335.38C118.172 340.377 105.593 359.103 95.002 374.887C90.8282 381.107 86.9677 386.834 86.4234 387.612C85.8792 388.39 85.434 389.096 85.434 389.18C85.434 389.263 105.608 389.326 130.266 389.319L175.098 389.306L179.014 382.377C181.256 378.408 183.136 375.407 183.415 375.352C184.561 375.124 184.283 375.687 177.01 388.359L176.454 389.328L215.38 389.481L213.888 390.071C212.476 390.629 211.409 390.669 193.938 390.817L175.479 390.974L171.857 397.306C167.881 404.259 167.359 405.021 166.375 405.302C165.76 405.477 165.798 405.335 166.872 403.458L171.023 396.202C172.666 393.33 173.976 390.946 173.934 390.904C173.893 390.863 154.018 390.826 129.769 390.823C102.695 390.819 85.4754 390.708 85.1523 390.535C84.6984 390.292 83.7323 391.585 78.1671 399.883C74.6148 405.18 71.7083 409.711 71.7083 409.952C71.7083 410.192 72.1782 411.087 72.7526 411.941C73.327 412.794 73.797 413.574 73.797 413.674C73.797 413.774 72.274 416.164 70.4127 418.985C66.8956 424.316 63.3079 429.786 58.1181 437.727C56.445 440.287 54.7463 442.706 54.3432 443.101C53.9398 443.497 53.0276 444.829 52.316 446.061C51.6043 447.292 50.5248 449.039 49.9176 449.942C47.2393 453.924 45.2162 458.984 44.3658 463.826C43.7365 467.408 43.9418 473.584 44.8071 477.112C47.569 488.369 55.4988 497.365 66.1201 501.289C70.3885 502.866 72.5315 503.22 77.8252 503.222C83.5061 503.225 85.7762 502.812 91.1033 500.806C92.6623 500.22 96.422 498.893 99.458 497.859C102.494 496.825 109.141 494.544 114.228 492.79C119.315 491.036 126.163 488.682 129.446 487.558C132.728 486.434 135.659 485.419 135.96 485.303C136.469 485.105 136.494 485.248 136.327 487.446C136.229 488.741 136.016 493.899 135.854 498.908C135.692 503.916 135.425 511.776 135.262 516.374L134.969 524.605C134.757 530.593 134.478 538.431 134.223 545.613C133.815 557.097 133.552 566.563 133.639 566.649C133.857 566.868 353.409 566.757 353.628 566.538C353.819 566.347 354.086 559.584 354.434 546.157L354.652 537.722H415.96L418.463 535.492C419.84 534.265 421.049 533.257 421.148 533.252C421.248 533.247 423.397 534.403 425.923 535.819C428.449 537.235 430.959 538.584 431.502 538.816C437.302 541.293 444.025 538.122 445.78 532.081C446.395 529.966 446.201 526.691 445.359 524.958C445.02 524.26 444.787 523.689 444.84 523.689C444.894 523.689 445.989 524.315 447.275 525.079C450.975 527.279 452.776 528.093 454.691 528.434C459.506 529.291 464.847 526.05 466.206 521.446ZM277.403 166.449C281.374 165.841 285.327 163.845 287.539 161.331L288.686 160.027L290.226 161.332C293.291 163.927 296.731 164.187 300.59 162.116L301.655 161.544L302.778 162.888C304.093 164.462 305.74 165.567 307.854 166.292L309.371 166.812L309.319 170.81C309.269 174.598 308.084 195.639 307.881 196.332C307.82 196.54 306.826 196.33 305.147 195.754C302.876 194.976 302.072 194.849 299.375 194.843C295.511 194.834 293.485 195.405 291.102 197.175C288.932 198.785 288.216 199.593 288.439 200.175C288.711 200.885 289.402 200.722 290.213 199.757C291.055 198.756 293.879 196.871 294.936 196.605C295.636 196.428 295.644 196.453 295.547 198.358C295.457 200.111 295.512 200.331 296.143 200.732C297.049 201.307 299.121 201.633 300.269 201.381C301.564 201.097 302.179 199.78 301.969 197.743L301.806 196.155L302.605 196.342C303.044 196.445 304.142 196.793 305.045 197.115C305.947 197.437 306.938 197.776 307.245 197.869C307.758 198.022 307.788 198.252 307.597 200.601C307.483 202.011 307.353 203.201 307.309 203.245C307.265 203.289 305.16 203.174 302.631 202.99C300.102 202.805 296.467 202.637 294.554 202.615C291.29 202.577 291.04 202.617 290.489 203.249C290.167 203.62 289.817 204.459 289.712 205.115C289.608 205.771 289.449 206.307 289.36 206.307C289.271 206.307 288.705 205.971 288.101 205.561C287.497 205.15 286.788 204.814 286.525 204.814C286.142 204.814 285.818 203.65 284.894 198.96C283.785 193.335 283.398 192.31 282.665 193.056C282.518 193.205 282.783 195.255 283.278 197.798C283.757 200.261 284.253 202.814 284.38 203.471C284.599 204.607 284.562 204.69 283.639 205.188C283.105 205.475 282.332 205.71 281.921 205.71C281.251 205.71 281.174 205.589 281.174 204.539C281.174 203.723 280.946 203.096 280.422 202.474C280.397 202.444 280.373 202.415 280.35 202.387L280.322 202.352L280.319 202.348C280.232 202.242 280.156 202.149 280.07 202.067C279.461 201.481 278.353 201.414 269.388 200.87L268.474 200.814L267.896 200.779C263.793 200.53 258.624 200.19 256.408 200.026C250.94 199.619 249.681 200.059 248.973 202.624C248.581 204.044 248.923 204.951 251.054 208.139C253.246 211.421 254.62 212.788 256.775 213.836C258.766 214.803 259.28 214.878 267.657 215.418C274.424 215.855 274.614 215.851 276.176 215.267C278.833 214.272 280.849 211.516 280.874 208.845C280.889 207.237 281.192 206.823 282.174 207.069C282.692 207.199 283.224 207.101 283.702 206.788C284.105 206.524 284.552 206.307 284.696 206.307C284.839 206.307 285.195 207.886 285.487 209.815C285.779 211.745 286.129 213.861 286.264 214.518C286.399 215.175 286.603 216.745 286.716 218.008L286.732 218.188C286.849 219.48 286.921 220.27 286.565 220.732C286.007 221.457 284.394 221.369 280.246 221.144L279.879 221.124C275.672 220.897 275.456 220.912 275.556 221.434C275.633 221.831 276.032 222.036 277.001 222.177C279.423 222.53 285.272 222.813 286.057 222.616C287.449 222.267 288.037 221.312 288.037 219.402C288.037 217.692 287.059 210.233 286.535 207.949C286.384 207.293 286.258 206.654 286.254 206.531C286.241 206.126 286.886 206.297 287.657 206.904C288.074 207.233 288.649 207.502 288.935 207.502C289.375 207.502 289.474 207.874 289.586 209.965C289.74 212.834 290.516 214.38 292.539 215.847C294.074 216.959 295.687 217.281 301.589 217.653C304.201 217.817 306.384 217.998 306.441 218.055C306.498 218.111 306.224 219.421 305.833 220.966C305.443 222.51 304.692 225.655 304.165 227.954C302.985 233.097 302.839 233.477 302.04 233.477C301.687 233.477 300.013 232.32 298.23 230.843C290.833 224.717 290.499 224.605 277.593 223.901C271.538 223.57 270.69 223.583 268.94 224.032C266.177 224.742 263.751 226.019 261.23 228.093C260.026 229.084 258.862 229.894 258.644 229.894C258.426 229.894 258.2 230.039 258.141 230.216C258.004 230.627 254.904 230.615 247.457 230.173C240.955 229.788 239.633 229.436 237.881 227.627C236.814 226.525 236.576 225.844 234.891 219.056C234.098 215.861 233.864 215.267 233.464 215.434C232.535 215.822 228.604 215.959 228.389 215.61C228.276 215.427 226.847 214.606 225.213 213.787C215.823 209.076 213.668 207.455 212.493 204.217C210.077 197.563 214.64 190.846 221.658 190.726C224.033 190.686 225.099 191.069 229.552 193.563C231.604 194.712 233.753 195.914 234.328 196.233C234.902 196.552 235.815 197.147 236.356 197.555C237.41 198.351 238.205 198.299 238.209 197.434C238.21 197.142 238.486 196.499 238.822 196.007C240.749 193.181 243.3 187.203 243.909 184.086C244.323 181.961 246.258 166.655 246.261 165.478C246.263 164.354 246.282 164.347 247.546 165.002C252.141 167.38 258.409 166.363 262.179 162.628L263.624 161.196L264.417 162.002C265.601 163.205 268.493 165.007 270.078 165.53C272.061 166.184 275.948 166.672 277.403 166.449ZM263.249 235.717C264.427 233.217 267.798 230.528 271.178 229.393C272.504 228.949 279.86 229.058 284.455 229.591C287.438 229.937 289.799 230.981 292.352 233.085C294.757 235.066 295.566 236.573 295.552 239.045C295.542 240.778 295.443 241.114 294.717 241.873C293.927 242.697 293.781 242.733 291.189 242.731C287.952 242.728 284.957 242.282 284.012 241.663C283.633 241.414 283.163 240.824 282.967 240.352C282.475 239.161 281.728 238.557 280.504 238.358C279.337 238.169 277.295 238.962 277.295 239.605C277.295 239.818 276.882 240.341 276.377 240.766C275.541 241.47 275.228 241.538 272.871 241.528C271.448 241.522 268.941 241.398 267.302 241.251C264.498 241.001 264.272 240.93 263.497 240.063C262.503 238.949 262.419 237.48 263.249 235.717ZM229.412 239.747C229.654 239.747 229.86 239.58 229.87 239.374C229.892 238.889 230.096 239.207 232.075 242.819C233.516 245.449 234.82 247.362 236.999 250.043C238.484 251.869 243.526 256.723 244.8 257.552C245.523 258.023 246.248 258.551 246.412 258.727C246.712 259.049 247.531 259.617 249.516 260.884C251.714 262.286 257.554 264.914 260.586 265.866C264.376 267.056 266.409 267.497 270.134 267.936L272.968 268.271L273.052 275.73C273.099 279.833 273.063 283.489 272.974 283.856C271.951 288.04 260.124 290.834 249.098 289.496C245.212 289.025 239.755 287.762 236.118 286.492C233.776 285.675 229.847 283.98 229.326 283.562C229.029 283.324 228.952 278.666 228.961 261.504C228.97 242.529 229.028 239.747 229.412 239.747ZM277.37 268.009C279.052 267.902 280.831 267.692 281.323 267.541C281.376 267.525 281.428 267.509 281.478 267.492C281.56 267.466 281.638 267.44 281.713 267.416L281.715 267.415C282.159 267.268 282.477 267.163 282.703 267.263C283.271 267.514 283.27 269.054 283.264 274.454C283.263 275.041 283.263 275.673 283.263 276.354C283.263 283.535 283.183 285.465 282.89 285.363C282.685 285.292 280.671 284.841 278.414 284.361L274.312 283.488L274.311 268.202L277.37 268.009ZM276.158 291.027C277.344 289.782 278.787 287.156 278.787 286.242C278.787 285.765 278.934 285.711 279.757 285.883C284.796 286.937 294.135 289.043 294.241 289.149C294.356 289.264 295.279 298.726 296.382 311.106C296.657 314.185 297.357 321.742 298.183 330.513C298.547 334.384 300.684 357.527 301.304 364.319L301.76 369.312L301.062 371.186C300.378 373.02 300.338 373.061 299.198 373.127C298.557 373.164 291.789 373.406 284.158 373.663C256.191 374.608 255.604 374.655 250.306 376.368C247.31 377.337 244.339 378.707 241.664 380.353C239.659 381.587 237.289 382.444 224.692 386.494C222.264 387.274 220.226 387.861 220.163 387.797C220.099 387.734 219.769 383.183 219.429 377.684C219.089 372.185 218.675 365.536 218.509 362.908C218.344 360.281 217.944 353.429 217.622 347.681C217.3 341.934 216.965 336.223 216.878 334.992C216.648 331.731 216.5 329.337 215.681 315.585C215.274 308.77 214.811 301.111 214.65 298.566C214.49 296.021 214.28 292.653 214.184 291.083L214.01 288.228L219.558 286.863L221.945 287.972C226.313 290.004 227.587 290.545 231.195 291.899C236.23 293.789 236.662 293.926 241.367 295.115C247.116 296.569 251.247 297.116 256.707 297.145C260.414 297.164 261.949 297.038 264.442 296.508C269.995 295.327 273.725 293.583 276.158 291.027ZM280.26 429.938C288.054 409.174 330.192 296.752 331.039 294.461L331.288 293.789H556.747L561.192 298.267L336.26 298.417L324.563 329.617C286.329 431.61 275.814 459.584 275.657 459.741C275.561 459.838 274.426 458.848 273.136 457.542L270.79 455.167L280.26 429.938ZM296.093 302.052C296.093 301.831 296.183 301.562 296.292 301.452C296.401 301.343 303.393 301.253 311.83 301.253C326.278 301.253 327.163 301.284 327.069 301.776C326.975 302.264 325.96 302.303 311.53 302.375C298.775 302.439 296.093 302.383 296.093 302.052ZM299.097 331.582C298.819 331.247 298.859 331.095 299.284 330.854C299.983 330.459 316.085 330.389 316.085 330.78C316.085 332.005 316.078 332.006 307.586 332.006C300.922 332.006 299.385 331.929 299.097 331.582ZM105.575 360.968C105.473 360.803 105.474 360.534 105.575 360.369C105.698 360.171 124.624 360.072 161.689 360.074C217.32 360.078 217.618 360.081 217.618 360.672C217.618 361.263 217.321 361.266 161.689 361.266C124.724 361.266 105.697 361.165 105.575 360.968ZM303.284 361.208C301.668 361.301 300.927 360.998 301.299 360.396C301.409 360.218 302.307 360.072 303.294 360.072C304.842 360.072 305.075 360.143 304.989 360.594C304.912 361 304.532 361.137 303.284 361.208ZM413.435 390.603C417.044 386.914 422.932 380.866 425.144 378.57C427.122 376.517 431.13 372.359 434.382 368.985L435.135 368.204C438.496 364.716 441.329 361.863 441.43 361.863C441.531 361.863 441.84 363.173 442.117 364.774C442.393 366.375 442.811 368.693 443.044 369.925C443.277 371.156 443.668 373.239 443.913 374.553C445.298 381.977 446.394 387.803 446.93 390.603C446.966 390.787 446.998 390.959 447.029 391.116C447.082 391.39 447.127 391.623 447.164 391.813L447.205 392.022C447.223 392.109 447.237 392.183 447.25 392.243L447.449 393.213H429.16C419.102 393.213 410.928 393.157 410.996 393.088C411.512 392.566 412.375 391.686 413.435 390.603ZM73.9029 411.597C73.0256 410.305 73.0262 410.298 74.0208 410.147C75.3545 409.945 76.184 409.923 76.184 410.089C76.184 410.175 75.829 410.782 75.3948 411.438L74.6056 412.632L73.9029 411.597ZM121.986 419.488C119.595 420.37 117.185 420.198 117.809 419.189C117.912 419.022 119.203 418.901 120.735 418.914L123.478 418.937L121.986 419.488ZM260.717 464.423C261.842 463.437 264.385 461.199 266.369 459.449C269.028 457.103 270.095 456.332 270.428 456.515C270.677 456.651 271.817 457.727 272.963 458.904L275.046 461.046L274 461.988C273.424 462.506 272.017 463.752 270.872 464.757C269.728 465.763 266.911 468.251 264.614 470.287C262.316 472.322 259.889 474.456 259.221 475.027C258.553 475.599 253.995 479.628 249.093 483.979C244.191 488.331 238.422 493.436 236.274 495.325C234.126 497.213 231.903 499.185 231.334 499.706C230.765 500.227 229.964 500.944 229.554 501.298C227.359 503.194 224.758 505.483 223.437 506.679C222.616 507.423 221.005 508.832 219.856 509.81C218.707 510.787 216.559 512.682 215.082 514.019C213.605 515.356 207.697 520.59 201.953 525.649C196.209 530.708 191.442 534.924 191.36 535.016C191.278 535.108 190.907 535.442 190.535 535.757C189.868 536.322 189.853 536.322 189.4 535.757C188.516 534.655 187.793 532.786 187.786 531.59C187.771 528.826 188.369 528.221 208.965 510.18C210.852 508.527 213.143 506.49 214.055 505.654C214.967 504.817 216.564 503.394 217.603 502.491L217.723 502.387C218.885 501.377 219.537 500.81 220.188 500.242C221.003 499.53 221.816 498.814 223.629 497.218L223.688 497.166L223.712 497.145L223.743 497.118L223.776 497.089C225.531 495.544 230.537 491.119 234.9 487.255C239.262 483.392 245.19 478.152 248.073 475.611C250.956 473.07 254.52 469.916 255.993 468.603C257.467 467.289 259.592 465.408 260.717 464.423ZM386.323 461.586C285.849 461.586 285.65 461.585 285.65 460.989C285.65 460.393 285.849 460.392 386.305 460.392C441.665 460.392 487.04 460.472 487.138 460.571C487.236 460.669 487.244 460.937 487.156 461.168C487.019 461.526 472.415 461.586 386.323 461.586ZM457.576 483.132C453.079 478.155 455.049 470.51 461.441 468.136C463.786 467.265 466.167 467.489 468.77 468.826C471.535 470.246 472.857 470.963 473.035 471.141C473.117 471.223 473.482 471.456 473.846 471.66C481.447 475.907 482.338 476.537 483.628 478.577C485.994 482.318 485.599 486.817 482.636 489.864C479.632 492.953 475.323 493.599 471.402 491.548C466.389 488.924 458.435 484.084 457.576 483.132ZM179.127 478.8L154.808 478.846L158.986 477.446L181.215 477.503C203.227 477.559 203.445 477.566 203.445 478.157C203.445 478.749 203.231 478.754 179.127 478.8ZM443.152 495.733C441.372 491.042 444.206 485.442 449.164 483.854C451.011 483.262 453.233 483.282 454.834 483.905C455.573 484.192 457.453 485.18 459.011 486.101C460.57 487.022 464.689 489.419 468.164 491.428C471.639 493.436 475.026 495.546 475.691 496.115C476.407 496.728 477.268 497.922 477.802 499.042C480.012 503.675 478.059 508.928 473.254 511.278C471.685 512.046 471.315 512.108 469.031 511.988C466.763 511.869 466.335 511.743 464.485 510.657C460.35 508.228 453.095 504.011 449.668 502.044C445.762 499.802 444.077 498.17 443.152 495.733ZM431.862 503.231C433.11 501.416 435.43 499.889 437.677 499.404C440.575 498.779 442.247 499.394 450.336 504.058C454.369 506.383 458.495 508.731 459.505 509.274C461.64 510.424 463.765 512.411 464.487 513.936C465.211 515.462 465.652 518.171 465.411 519.615C464.927 522.517 462.55 525.477 459.735 526.685C458.171 527.355 454.678 527.458 453.193 526.876C452.076 526.439 444.634 522.226 441.926 520.498C440.816 519.79 439.86 519.211 439.8 519.211C439.359 519.211 433.594 515.688 432.801 514.934C429.724 512.006 429.317 506.933 431.862 503.231ZM136.458 507.766C136.458 507.546 136.547 507.278 136.657 507.168C136.766 507.059 150.045 506.969 166.165 506.969C191.034 506.969 195.498 507.033 195.634 507.388C195.723 507.618 195.715 507.887 195.617 507.985C195.519 508.083 182.168 508.164 165.948 508.164C141.572 508.164 136.458 508.095 136.458 507.766ZM422.605 516.149C423.017 515.981 423.824 515.658 424.398 515.431C425.078 515.162 426.173 515.062 427.532 515.145C429.752 515.281 430.563 515.626 436.035 518.764C437.43 519.564 439.042 520.451 439.616 520.735C441.411 521.623 443.127 523.338 443.999 525.115C444.706 526.556 444.838 527.199 444.838 529.213C444.838 531.223 444.706 531.87 444.005 533.298C442.227 536.921 438.284 538.932 434.218 538.289C433.164 538.122 431.044 537.153 427.289 535.123C419.518 530.922 418.105 529.348 417.887 524.651C417.784 522.432 417.856 522.009 418.591 520.505C419.463 518.722 421.37 516.653 422.605 516.149ZM135.404 537.409C135.298 537.237 135.286 536.901 135.378 536.663C135.521 536.288 139.049 536.229 161.224 536.229C184.494 536.229 186.92 536.274 187.087 536.707C187.187 536.97 187.082 537.304 186.854 537.449C186.235 537.841 135.647 537.802 135.404 537.409ZM184.645 548.471C185.584 545.269 186.764 541.201 187.267 539.433L188.182 536.217L189.752 537.722H317.242L317.403 538.991C317.674 541.124 319.786 564.185 319.81 565.269C319.815 565.476 180.046 565.613 179.839 565.406C179.751 565.318 181.194 560.233 184.645 548.471ZM318.905 537.4C318.802 537.233 318.793 536.901 318.884 536.663C319.026 536.291 321.503 536.229 336.366 536.229C353.152 536.229 353.681 536.247 353.681 536.794C353.681 537.147 353.403 537.429 352.94 537.545C351.637 537.872 319.111 537.733 318.905 537.4ZM284.87 375.003C279.373 375.212 271.048 375.526 266.371 375.702C253.917 376.169 249.331 377.351 241.438 382.125C239.783 383.126 237.259 384.019 225.492 387.768C223.112 388.526 219.756 389.6 218.032 390.155C216.309 390.71 212.482 391.934 209.528 392.875C206.574 393.816 203.218 394.897 202.069 395.278C200.92 395.658 197.362 396.802 194.162 397.819C190.961 398.836 185.725 400.516 182.525 401.553C179.325 402.589 174.088 404.27 170.888 405.286C167.687 406.303 162.451 407.985 159.251 409.024C156.051 410.063 150.008 412.003 145.823 413.336C141.639 414.668 136.805 416.214 135.082 416.77C131.363 417.972 120.01 421.616 109.421 425.008C105.236 426.349 101.073 427.69 100.171 427.99C93.6545 430.151 87.8846 431.864 87.6358 431.71C87.4731 431.609 87.3401 431.344 87.3401 431.121C87.3401 430.703 89.9849 429.818 115.985 421.531C118.254 420.808 118.285 420.698 116.532 419.602C112.535 417.101 104.413 413.447 100.32 412.306C94.9799 410.819 87.6012 409.763 82.5886 409.77C78.7943 409.774 78.0162 409.965 77.2967 411.064C76.9584 411.582 75.7625 413.416 74.6393 415.141C73.5162 416.865 72.4904 418.32 72.36 418.375C72.2293 418.43 72.1225 418.592 72.1225 418.736C72.1225 418.88 69.7396 422.598 66.827 426.997C63.9145 431.396 61.4642 435.13 61.3815 435.294C61.2392 435.577 57.7108 440.965 55.4762 444.311C54.9063 445.164 54.1215 446.162 53.7328 446.527C53.344 446.893 53.0259 447.295 53.0259 447.42C53.0259 447.546 52.2253 448.933 51.2466 450.503C47.3488 456.757 45.6683 461.657 45.3532 467.686C45.0832 472.853 46.1821 478.683 48.278 483.2C49.4477 485.721 52.0618 489.632 53.9846 491.737C55.4574 493.35 59.3594 496.521 61.2314 497.628C67.6213 501.404 75.4897 502.986 82.523 501.908C85.6473 501.429 88.9146 500.406 103.154 495.451C107.011 494.109 110.771 492.829 111.509 492.607C112.248 492.384 115.202 491.375 118.074 490.365C126.858 487.275 136.841 483.821 140.452 482.622C142.34 481.996 147.039 480.388 150.896 479.051C158.631 476.368 160.726 475.647 167.755 473.248C170.38 472.351 175.684 470.516 179.541 469.169C183.397 467.822 187.157 466.543 187.896 466.326C188.634 466.109 190.38 465.513 191.775 465.002C193.17 464.491 195.855 463.55 197.742 462.911C199.63 462.272 204.329 460.66 208.186 459.33C212.042 457.999 217.24 456.218 219.737 455.372L220.333 455.12L256.393 440.046L258.201 438.968L258.101 435.489C258.045 433.576 257.869 428.851 257.709 424.991C257.55 421.13 257.419 416.663 257.419 415.063C257.419 413.261 257.302 412.155 257.111 412.155C256.715 412.155 254.552 413.259 251.904 414.813C250.758 415.486 249.583 416.036 249.293 416.036C248.34 416.036 248.71 414.983 249.885 414.352C250.5 414.021 252.533 412.914 254.402 411.891C256.27 410.869 257.982 410.103 258.206 410.188C258.462 410.287 258.612 410.818 258.612 411.623C258.611 412.326 258.749 416.327 258.918 420.515C259.088 424.702 259.419 433.693 259.655 440.494C260.08 452.774 260.088 452.871 260.854 454.436C261.726 456.22 262.767 457.412 264.267 458.346L265.296 458.987L267.576 456.93C269.744 454.974 269.901 454.745 270.771 452.249C271.748 449.446 275.075 440.628 276.545 436.945L277.435 434.714L277.125 425.599C276.955 420.586 276.728 414.894 276.622 412.949L276.428 409.415L277.143 409.516C277.174 409.52 277.203 409.523 277.23 409.526C277.301 409.534 277.365 409.541 277.422 409.563C277.91 409.754 277.958 411.07 278.411 423.57L278.477 425.384C278.583 428.308 278.747 430.623 278.842 430.528C278.936 430.434 279.173 429.922 279.368 429.392C280.521 426.255 286.543 410.152 288.94 403.795C289.838 401.414 291.293 397.517 292.173 395.136C293.052 392.755 295.126 387.246 296.78 382.895C298.434 378.543 299.788 374.882 299.789 374.759C299.79 374.483 297.606 374.519 284.87 375.003ZM210.769 459.916C210.907 459.782 213.773 458.737 217.137 457.594L258.165 440.485L258.359 442.966C258.466 444.329 258.569 446.789 258.588 448.431C258.607 450.073 258.798 452.165 259.013 453.08C259.501 455.153 261.225 457.796 262.803 458.89C263.463 459.348 263.954 459.868 263.895 460.048C263.836 460.227 262.59 461.433 261.126 462.727C259.661 464.021 257.524 465.914 256.375 466.933C255.226 467.952 253.078 469.846 251.601 471.142C250.124 472.439 248.445 473.922 247.871 474.438C247.296 474.954 245.473 476.569 243.819 478.027C233.064 487.503 231.155 489.192 229.677 490.54C228.77 491.367 226.35 493.513 224.298 495.31C222.247 497.107 220.099 499.004 219.524 499.526C218.95 500.047 217.204 501.581 215.645 502.935C214.086 504.288 212.274 505.881 211.617 506.474C210.321 507.645 206.324 511.186 197.787 518.726C194.776 521.386 192.258 523.508 192.192 523.442C192.126 523.376 192.396 522.259 192.792 520.959C193.555 518.452 193.873 517.368 197.903 503.518C199.313 498.674 200.918 493.165 201.471 491.276C202.023 489.388 203.509 484.282 204.773 479.931L204.848 479.674C206.108 475.337 207.865 469.287 208.794 466.09C209.742 462.829 210.63 460.051 210.769 459.916Z" fill="#2E2E2E"/>
<path d="M217.137 457.594C213.773 458.737 210.907 459.782 210.769 459.916C210.63 460.051 209.742 462.829 208.794 466.09C207.865 469.287 206.108 475.337 204.848 479.674L204.773 479.931C203.509 484.282 202.023 489.388 201.471 491.276C200.918 493.165 199.313 498.674 197.903 503.518C193.873 517.368 193.555 518.452 192.792 520.959C192.396 522.259 192.126 523.376 192.192 523.442C192.258 523.508 194.776 521.386 197.787 518.726C206.324 511.186 210.321 507.645 211.617 506.474C212.274 505.881 214.086 504.288 215.645 502.935C217.204 501.581 218.95 500.047 219.524 499.526C220.099 499.004 222.247 497.107 224.298 495.31C226.35 493.513 228.77 491.367 229.677 490.54C231.155 489.192 233.064 487.503 243.819 478.027C245.473 476.569 247.296 474.954 247.871 474.438C248.445 473.922 250.124 472.439 251.601 471.142C253.078 469.846 255.226 467.952 256.375 466.933C257.524 465.914 259.661 464.021 261.126 462.727C262.59 461.433 263.836 460.227 263.895 460.048C263.954 459.868 263.463 459.348 262.803 458.89C261.225 457.796 259.501 455.153 259.013 453.08C258.798 452.165 258.607 450.073 258.588 448.431C258.569 446.789 258.466 444.329 258.359 442.966L258.165 440.485L217.137 457.594Z" fill="#D7777B"/>
</svg>
