<svg width="157" height="36" viewBox="0 0 157 36" fill="none" xmlns="http://www.w3.org/2000/svg">
<path d="M17.1704 35.4664L17.2714 15.963H21.766V30.3286C21.6448 34.9576 18.6518 35.6825 17.1704 35.4664Z" fill="#BF272D"/>
<path d="M4.5451 2.74463C4.5451 3.98431 3.52765 4.98926 2.27255 4.98926C1.01746 4.98926 0 3.98431 0 2.74463C0 1.50496 1.01746 0.5 2.27255 0.5C3.52765 0.5 4.5451 1.50496 4.5451 2.74463Z" fill="#BF272D"/>
<path fill-rule="evenodd" clip-rule="evenodd" d="M13.4838 32.9723V14.716H21.766V10.0771H4.74711C4.73027 8.61392 3.77749 5.73747 0.101002 5.93699V25.0413C0.606014 26.571 2.24225 29.4308 4.74711 28.6327V14.716H8.5852V28.6327C8.65253 30.0792 9.72652 32.9723 13.4838 32.9723ZM19.3419 14.1673C20.3181 14.1673 21.1095 13.3857 21.1095 12.4215C21.1095 11.4573 20.3181 10.6757 19.3419 10.6757C18.3658 10.6757 17.5744 11.4573 17.5744 12.4215C17.5744 13.3857 18.3658 14.1673 19.3419 14.1673Z" fill="#BF272D"/>
<path d="M33.1776 16.9111V18.3578H28.5912V21.5467H32.167V22.9933H28.5912V27.7222H26.8188V16.9111H33.1776Z" fill="#2E2E2E"/>
<path d="M36.9034 20.3956C37.1626 19.96 37.5046 19.623 37.9296 19.3844C38.3649 19.1356 38.8779 19.0111 39.4687 19.0111V20.8467H39.0179C38.3234 20.8467 37.7948 21.023 37.432 21.3756C37.0796 21.7281 36.9034 22.34 36.9034 23.2111V27.7222H35.1311V19.1511H36.9034V20.3956Z" fill="#2E2E2E"/>
<path d="M49.2601 23.2267C49.2601 23.5481 49.2394 23.8385 49.198 24.0978H42.6526C42.7044 24.7822 42.9584 25.3319 43.4144 25.7467C43.8705 26.1615 44.4302 26.3689 45.0935 26.3689C46.0471 26.3689 46.7208 25.9696 47.1146 25.1711H49.0269C48.7678 25.9593 48.2962 26.6074 47.6121 27.1156C46.9384 27.6133 46.0989 27.8622 45.0935 27.8622C44.2747 27.8622 43.5388 27.6807 42.8858 27.3178C42.2432 26.9444 41.7353 26.4259 41.3622 25.7622C40.9994 25.0881 40.818 24.3104 40.818 23.4289C40.818 22.5474 40.9942 21.7748 41.3466 21.1111C41.7094 20.437 42.2121 19.9185 42.8547 19.5556C43.5077 19.1926 44.254 19.0111 45.0935 19.0111C45.902 19.0111 46.6223 19.1874 47.2546 19.54C47.8868 19.8926 48.3791 20.3904 48.7315 21.0333C49.0839 21.6659 49.2601 22.397 49.2601 23.2267ZM47.41 22.6667C47.3997 22.0133 47.1665 21.4896 46.7104 21.0956C46.2544 20.7015 45.6895 20.5044 45.0158 20.5044C44.4043 20.5044 43.8808 20.7015 43.4455 21.0956C43.0102 21.4793 42.7511 22.003 42.6682 22.6667H47.41Z" fill="#2E2E2E"/>
<path d="M59.1666 23.2267C59.1666 23.5481 59.1459 23.8385 59.1044 24.0978H52.5591C52.6109 24.7822 52.8648 25.3319 53.3209 25.7467C53.7769 26.1615 54.3366 26.3689 55 26.3689C55.9535 26.3689 56.6272 25.9696 57.0211 25.1711H58.9334C58.6743 25.9593 58.2027 26.6074 57.5186 27.1156C56.8449 27.6133 56.0053 27.8622 55 27.8622C54.1811 27.8622 53.4452 27.6807 52.7923 27.3178C52.1496 26.9444 51.6418 26.4259 51.2686 25.7622C50.9059 25.0881 50.7245 24.3104 50.7245 23.4289C50.7245 22.5474 50.9007 21.7748 51.2531 21.1111C51.6159 20.437 52.1185 19.9185 52.7612 19.5556C53.4141 19.1926 54.1604 19.0111 55 19.0111C55.8084 19.0111 56.5288 19.1874 57.161 19.54C57.7933 19.8926 58.2856 20.3904 58.638 21.0333C58.9904 21.6659 59.1666 22.397 59.1666 23.2267ZM57.3165 22.6667C57.3061 22.0133 57.0729 21.4896 56.6169 21.0956C56.1608 20.7015 55.5959 20.5044 54.9222 20.5044C54.3107 20.5044 53.7873 20.7015 53.352 21.0956C52.9166 21.4793 52.6575 22.003 52.5746 22.6667H57.3165Z" fill="#2E2E2E"/>
<path d="M62.9941 16.2111V27.7222H61.2217V16.2111H62.9941Z" fill="#2E2E2E"/>
<path d="M65.0412 23.3978C65.0412 22.537 65.2174 21.7748 65.5698 21.1111C65.9326 20.4474 66.4197 19.9341 67.0312 19.5711C67.6531 19.1978 68.3372 19.0111 69.0835 19.0111C69.7572 19.0111 70.3428 19.1459 70.8403 19.4156C71.3482 19.6748 71.7524 20.0015 72.053 20.3956V19.1511H73.8409V27.7222H72.053V26.4467C71.7524 26.8511 71.343 27.1881 70.8248 27.4578C70.3065 27.7274 69.7157 27.8622 69.0524 27.8622C68.3165 27.8622 67.6428 27.6756 67.0312 27.3022C66.4197 26.9185 65.9326 26.3896 65.5698 25.7156C65.2174 25.0311 65.0412 24.2585 65.0412 23.3978ZM72.053 23.4289C72.053 22.8378 71.9286 22.3244 71.6798 21.8889C71.4415 21.4533 71.1253 21.1215 70.7315 20.8933C70.3376 20.6652 69.9127 20.5511 69.4566 20.5511C69.0005 20.5511 68.5756 20.6652 68.1817 20.8933C67.7879 21.1111 67.4666 21.4378 67.2178 21.8733C66.9794 22.2985 66.8602 22.8067 66.8602 23.3978C66.8602 23.9889 66.9794 24.5074 67.2178 24.9533C67.4666 25.3993 67.7879 25.7415 68.1817 25.98C68.586 26.2081 69.0109 26.3222 69.4566 26.3222C69.9127 26.3222 70.3376 26.2081 70.7315 25.98C71.1253 25.7519 71.4415 25.42 71.6798 24.9844C71.9286 24.5385 72.053 24.02 72.053 23.4289Z" fill="#2E2E2E"/>
<path d="M80.8019 19.0111C81.4756 19.0111 82.0768 19.1511 82.6054 19.4311C83.1443 19.7111 83.5641 20.1259 83.8647 20.6756C84.1653 21.2252 84.3155 21.8889 84.3155 22.6667V27.7222H82.5587V22.9311C82.5587 22.1637 82.367 21.5778 81.9835 21.1733C81.6 20.7585 81.0766 20.5511 80.4132 20.5511C79.7499 20.5511 79.2213 20.7585 78.8274 21.1733C78.4439 21.5778 78.2522 22.1637 78.2522 22.9311V27.7222H76.4798V19.1511H78.2522V20.1311C78.5424 19.7785 78.9103 19.5037 79.356 19.3067C79.812 19.1096 80.294 19.0111 80.8019 19.0111Z" fill="#2E2E2E"/>
<path d="M86.2965 23.4289C86.2965 22.5474 86.4727 21.7748 86.8251 21.1111C87.1878 20.437 87.6853 19.9185 88.3176 19.5556C88.9498 19.1926 89.6754 19.0111 90.4942 19.0111C91.5307 19.0111 92.3858 19.26 93.0595 19.7578C93.7435 20.2452 94.2048 20.9452 94.4432 21.8578H92.5309C92.3754 21.4326 92.1266 21.1007 91.7846 20.8622C91.4426 20.6237 91.0124 20.5044 90.4942 20.5044C89.7687 20.5044 89.1882 20.7637 88.7529 21.2822C88.328 21.7904 88.1155 22.5059 88.1155 23.4289C88.1155 24.3519 88.328 25.0726 88.7529 25.5911C89.1882 26.1096 89.7687 26.3689 90.4942 26.3689C91.5203 26.3689 92.1992 25.9178 92.5309 25.0156H94.4432C94.1944 25.8867 93.728 26.5815 93.0439 27.1C92.3598 27.6081 91.5099 27.8622 90.4942 27.8622C89.6754 27.8622 88.9498 27.6807 88.3176 27.3178C87.6853 26.9444 87.1878 26.4259 86.8251 25.7622C86.4727 25.0881 86.2965 24.3104 86.2965 23.4289Z" fill="#2E2E2E"/>
<path d="M97.4221 18.0156C97.1008 18.0156 96.8314 17.9067 96.6137 17.6889C96.396 17.4711 96.2872 17.2015 96.2872 16.88C96.2872 16.5585 96.396 16.2889 96.6137 16.0711C96.8314 15.8533 97.1008 15.7444 97.4221 15.7444C97.7331 15.7444 97.9974 15.8533 98.215 16.0711C98.4327 16.2889 98.5415 16.5585 98.5415 16.88C98.5415 17.2015 98.4327 17.4711 98.215 17.6889C97.9974 17.9067 97.7331 18.0156 97.4221 18.0156ZM98.2928 19.1511V27.7222H96.5204V19.1511H98.2928Z" fill="#2E2E2E"/>
<path d="M105.253 19.0111C105.927 19.0111 106.528 19.1511 107.056 19.4311C107.595 19.7111 108.015 20.1259 108.316 20.6756C108.616 21.2252 108.766 21.8889 108.766 22.6667V27.7222H107.01V22.9311C107.01 22.1637 106.818 21.5778 106.434 21.1733C106.051 20.7585 105.527 20.5511 104.864 20.5511C104.201 20.5511 103.672 20.7585 103.278 21.1733C102.895 21.5778 102.703 22.1637 102.703 22.9311V27.7222H100.931V19.1511H102.703V20.1311C102.993 19.7785 103.361 19.5037 103.807 19.3067C104.263 19.1096 104.745 19.0111 105.253 19.0111Z" fill="#2E2E2E"/>
<path d="M114.79 19.0111C115.453 19.0111 116.039 19.1459 116.546 19.4156C117.065 19.6748 117.469 20.0015 117.759 20.3956V19.1511H119.547V27.8622C119.547 28.6504 119.381 29.3504 119.05 29.9622C118.718 30.5844 118.236 31.0719 117.604 31.4244C116.982 31.777 116.236 31.9533 115.365 31.9533C114.204 31.9533 113.24 31.6785 112.473 31.1289C111.706 30.5896 111.271 29.8533 111.167 28.92H112.924C113.059 29.3659 113.344 29.7237 113.779 29.9933C114.225 30.2733 114.753 30.4133 115.365 30.4133C116.08 30.4133 116.655 30.1956 117.091 29.76C117.536 29.3244 117.759 28.6919 117.759 27.8622V26.4311C117.459 26.8356 117.049 27.1778 116.531 27.4578C116.023 27.7274 115.443 27.8622 114.79 27.8622C114.043 27.8622 113.359 27.6756 112.737 27.3022C112.126 26.9185 111.639 26.3896 111.276 25.7156C110.924 25.0311 110.747 24.2585 110.747 23.3978C110.747 22.537 110.924 21.7748 111.276 21.1111C111.639 20.4474 112.126 19.9341 112.737 19.5711C113.359 19.1978 114.043 19.0111 114.79 19.0111ZM117.759 23.4289C117.759 22.8378 117.635 22.3244 117.386 21.8889C117.148 21.4533 116.831 21.1215 116.438 20.8933C116.044 20.6652 115.619 20.5511 115.163 20.5511C114.707 20.5511 114.282 20.6652 113.888 20.8933C113.494 21.1111 113.173 21.4378 112.924 21.8733C112.686 22.2985 112.566 22.8067 112.566 23.3978C112.566 23.9889 112.686 24.5074 112.924 24.9533C113.173 25.3993 113.494 25.7415 113.888 25.98C114.292 26.2081 114.717 26.3222 115.163 26.3222C115.619 26.3222 116.044 26.2081 116.438 25.98C116.831 25.7519 117.148 25.42 117.386 24.9844C117.635 24.5385 117.759 24.02 117.759 23.4289Z" fill="#2E2E2E"/>
<path d="M135.164 16.9111V27.7222H133.392V22.9933H128.308V27.7222H126.535V16.9111H128.308V21.5467H133.392V16.9111H135.164Z" fill="#2E2E2E"/>
<path d="M145.566 19.1511V27.7222H143.794V26.7111C143.514 27.0637 143.146 27.3437 142.69 27.5511C142.245 27.7481 141.768 27.8467 141.26 27.8467C140.586 27.8467 139.98 27.7067 139.441 27.4267C138.912 27.1467 138.492 26.7319 138.182 26.1822C137.881 25.6326 137.731 24.9689 137.731 24.1911V19.1511H139.487V23.9267C139.487 24.6941 139.679 25.2852 140.063 25.7C140.446 26.1044 140.97 26.3067 141.633 26.3067C142.296 26.3067 142.82 26.1044 143.203 25.7C143.597 25.2852 143.794 24.6941 143.794 23.9267V19.1511H145.566Z" fill="#2E2E2E"/>
<path d="M149.988 20.4267C150.289 20.0119 150.698 19.6748 151.216 19.4156C151.745 19.1459 152.331 19.0111 152.973 19.0111C153.73 19.0111 154.414 19.1926 155.026 19.5556C155.637 19.9185 156.119 20.437 156.471 21.1111C156.824 21.7748 157 22.537 157 23.3978C157 24.2585 156.824 25.0311 156.471 25.7156C156.119 26.3896 155.632 26.9185 155.01 27.3022C154.398 27.6756 153.72 27.8622 152.973 27.8622C152.31 27.8622 151.719 27.7326 151.201 27.4733C150.693 27.2141 150.289 26.8822 149.988 26.4778V27.7222H148.216V16.2111H149.988V20.4267ZM155.197 23.3978C155.197 22.8067 155.072 22.2985 154.823 21.8733C154.585 21.4378 154.264 21.1111 153.859 20.8933C153.466 20.6652 153.041 20.5511 152.585 20.5511C152.139 20.5511 151.714 20.6652 151.31 20.8933C150.916 21.1215 150.595 21.4533 150.346 21.8889C150.107 22.3244 149.988 22.8378 149.988 23.4289C149.988 24.02 150.107 24.5385 150.346 24.9844C150.595 25.42 150.916 25.7519 151.31 25.98C151.714 26.2081 152.139 26.3222 152.585 26.3222C153.041 26.3222 153.466 26.2081 153.859 25.98C154.264 25.7415 154.585 25.3993 154.823 24.9533C155.072 24.5074 155.197 23.9889 155.197 23.3978Z" fill="#2E2E2E"/>
</svg>
