<svg width="24" height="24" viewBox="0 0 24 24" fill="none" xmlns="http://www.w3.org/2000/svg">
<path d="M16.2845 2.07473e-07C15.08 -0.000276047 13.8921 0.281628 12.8161 0.823122C11.7401 1.36462 10.8059 2.15064 10.0884 3.11821C9.37084 4.08578 8.88991 5.208 8.68412 6.39492C8.47833 7.58184 8.5534 8.80046 8.90333 9.95314L0 18.8571V24H5.14247L14.0458 15.096C15.1068 15.4181 16.2247 15.5076 17.3234 15.3585C18.4222 15.2094 19.4758 14.8252 20.4126 14.232C21.3494 13.6389 22.1473 12.8507 22.752 11.9212C23.3567 10.9918 23.7539 9.94286 23.9165 8.846C24.0792 7.74913 24.0035 6.63009 23.6946 5.56512C23.3857 4.50016 22.8509 3.51431 22.1265 2.67477C21.4022 1.83522 20.5054 1.1617 19.4972 0.700123C18.4891 0.238542 17.3933 -0.000256949 16.2845 2.07473e-07ZM16.2845 13.7143C15.6944 13.7141 15.1076 13.6269 14.5429 13.4554L13.5598 13.1571L10.1075 16.6097L8.92562 15.4286L7.71371 16.6406L8.89562 17.8226L7.53629 19.182L6.35438 18L5.14247 19.212L6.32438 20.394L4.43281 22.2857H1.71416V19.5669L10.842 10.4391L10.5438 9.456C10.1775 8.24828 10.2013 6.95579 10.6118 5.76237C11.0223 4.56896 11.7987 3.5354 12.8305 2.80871C13.8623 2.08202 15.0969 1.69921 16.3588 1.71474C17.6207 1.73027 18.8455 2.14333 19.8591 2.89519C20.8727 3.64704 21.6234 4.69939 22.0045 5.90254C22.3856 7.1057 22.3776 8.39839 21.9816 9.59673C21.5857 10.7951 20.822 11.838 19.7992 12.5773C18.7763 13.3165 17.5465 13.7144 16.2845 13.7143Z" fill="#BF272D"/>
<path d="M17.1416 8.57143C18.0883 8.57143 18.8557 7.80392 18.8557 6.85714C18.8557 5.91037 18.0883 5.14286 17.1416 5.14286C16.1949 5.14286 15.4274 5.91037 15.4274 6.85714C15.4274 7.80392 16.1949 8.57143 17.1416 8.57143Z" fill="#BF272D"/>
</svg>
