<svg width="93" height="100" viewBox="0 0 93 100" fill="none" xmlns="http://www.w3.org/2000/svg">
<path d="M61.1251 84.4448L61.3682 37.3436H72.1899V72.0371C71.8981 83.2161 64.6918 84.9668 61.1251 84.4448Z" fill="#BF272D"/>
<path d="M30.7271 5.42085C30.7271 8.41471 28.2773 10.8417 25.2554 10.8417C22.2335 10.8417 19.7838 8.41471 19.7838 5.42085C19.7838 2.427 22.2335 0 25.2554 0C28.2773 0 30.7271 2.427 30.7271 5.42085Z" fill="#BF272D"/>
<path fill-rule="evenodd" clip-rule="evenodd" d="M52.2488 78.4217V34.3321H72.1899V23.129H31.2134C31.1729 19.5954 28.8789 12.6487 20.027 13.1305V59.268C21.2429 62.9622 25.1825 69.8688 31.2134 67.9413V34.3321H40.4544V67.9413C40.6165 71.4348 43.2024 78.4217 52.2488 78.4217ZM66.3535 33.007C68.7039 33.007 70.6092 31.1193 70.6092 28.7907C70.6092 26.4622 68.7039 24.5745 66.3535 24.5745C64.0032 24.5745 62.0978 26.4622 62.0978 28.7907C62.0978 31.1193 64.0032 33.007 66.3535 33.007Z" fill="#BF272D"/>
<path d="M4.85743 89.0567V90.3302H1.57782V92.3476H4.09106V93.5986H1.57782V96.9232H0V89.0567H4.85743Z" fill="#BF272D"/>
<path d="M7.55408 91.6488C7.75694 91.3182 8.01991 91.059 8.34299 90.8712C8.67358 90.6833 9.04925 90.5894 9.47 90.5894V92.2461H9.05301C8.55712 92.2461 8.18145 92.3626 7.92599 92.5955C7.67805 92.8284 7.55408 93.2342 7.55408 93.8127V96.9232H5.97626V90.6796H7.55408V91.6488Z" fill="#BF272D"/>
<path d="M16.3369 93.6662C16.3369 93.8916 16.3218 94.0944 16.2918 94.2748H11.7274C11.7649 94.7256 11.9227 95.0787 12.2007 95.3342C12.4787 95.5896 12.8206 95.7173 13.2263 95.7173C13.8124 95.7173 14.2293 95.4656 14.4773 94.9622H16.1791C15.9988 95.5633 15.6531 96.0592 15.1422 96.4499C14.6313 96.8331 14.0039 97.0247 13.2601 97.0247C12.659 97.0247 12.1181 96.8932 11.6372 96.6302C11.1639 96.3597 10.792 95.9803 10.5215 95.4919C10.2585 95.0036 10.127 94.4401 10.127 93.8014C10.127 93.1553 10.2585 92.588 10.5215 92.0996C10.7844 91.6113 11.1526 91.2356 11.6259 90.9726C12.0993 90.7096 12.644 90.5782 13.2601 90.5782C13.8537 90.5782 14.3834 90.7059 14.8492 90.9613C15.3226 91.2168 15.687 91.5812 15.9424 92.0545C16.2054 92.5204 16.3369 93.0576 16.3369 93.6662ZM14.7027 93.2154C14.6952 92.8096 14.5487 92.4866 14.2632 92.2461C13.9776 91.9982 13.6283 91.8742 13.215 91.8742C12.8243 91.8742 12.4937 91.9944 12.2233 92.2349C11.9603 92.4678 11.7988 92.7946 11.7386 93.2154H14.7027Z" fill="#BF272D"/>
<path d="M23.2927 93.6662C23.2927 93.8916 23.2776 94.0944 23.2476 94.2748H18.6832C18.7207 94.7256 18.8785 95.0787 19.1565 95.3342C19.4345 95.5896 19.7764 95.7173 20.1821 95.7173C20.7681 95.7173 21.1851 95.4656 21.4331 94.9622H23.1349C22.9546 95.5633 22.6089 96.0592 22.098 96.4499C21.5871 96.8331 20.9597 97.0247 20.2159 97.0247C19.6148 97.0247 19.0739 96.8932 18.593 96.6302C18.1197 96.3597 17.7477 95.9803 17.4773 95.4919C17.2143 95.0036 17.0828 94.4401 17.0828 93.8014C17.0828 93.1553 17.2143 92.588 17.4773 92.0996C17.7402 91.6113 18.1084 91.2356 18.5817 90.9726C19.0551 90.7096 19.5998 90.5782 20.2159 90.5782C20.8095 90.5782 21.3392 90.7059 21.805 90.9613C22.2783 91.2168 22.6427 91.5812 22.8982 92.0545C23.1612 92.5204 23.2927 93.0576 23.2927 93.6662ZM21.6585 93.2154C21.651 92.8096 21.5045 92.4866 21.219 92.2461C20.9334 91.9982 20.5841 91.8742 20.1708 91.8742C19.7801 91.8742 19.4495 91.9944 19.1791 92.2349C18.9161 92.4678 18.7545 92.7946 18.6944 93.2154H21.6585Z" fill="#BF272D"/>
<path d="M26.0221 88.5833V96.9232H24.4443V88.5833H26.0221Z" fill="#BF272D"/>
<path d="M27.1753 93.7789C27.1753 93.1478 27.2993 92.588 27.5472 92.0996C27.8027 91.6113 28.1445 91.2356 28.5728 90.9726C29.0086 90.7096 29.4932 90.5782 30.0267 90.5782C30.4925 90.5782 30.8982 90.6721 31.2438 90.8599C31.597 91.0478 31.8787 91.2844 32.0891 91.5699V90.6796H33.6782V96.9232H32.0891V96.0104C31.8862 96.3034 31.6045 96.5476 31.2438 96.7429C30.8907 96.9308 30.4812 97.0247 30.0154 97.0247C29.4894 97.0247 29.0086 96.8894 28.5728 96.619C28.1445 96.3485 27.8027 95.969 27.5472 95.4807C27.2993 94.9848 27.1753 94.4175 27.1753 93.7789ZM32.0891 93.8014C32.0891 93.4182 32.014 93.0914 31.8637 92.8209C31.7134 92.5429 31.5106 92.3325 31.2551 92.1898C30.9996 92.0395 30.7254 91.9644 30.4324 91.9644C30.1394 91.9644 29.8689 92.0358 29.6209 92.1785C29.373 92.3213 29.1701 92.5316 29.0123 92.8096C28.8621 93.0801 28.7869 93.4032 28.7869 93.7789C28.7869 94.1545 28.8621 94.4851 29.0123 94.7706C29.1701 95.0486 29.373 95.2628 29.6209 95.4131C29.8764 95.5633 30.1469 95.6385 30.4324 95.6385C30.7254 95.6385 30.9996 95.5671 31.2551 95.4243C31.5106 95.274 31.7134 95.0637 31.8637 94.7932C32.014 94.5152 32.0891 94.1846 32.0891 93.8014Z" fill="#BF272D"/>
<path d="M38.6791 90.5894C39.423 90.5894 40.024 90.8261 40.4824 91.2994C40.9407 91.7653 41.1698 92.4189 41.1698 93.2605V96.9232H39.592V93.4746C39.592 92.9787 39.468 92.5993 39.2201 92.3363C38.9722 92.0658 38.6341 91.9306 38.2058 91.9306C37.77 91.9306 37.4244 92.0658 37.1689 92.3363C36.921 92.5993 36.797 92.9787 36.797 93.4746V96.9232H35.2192V90.6796H36.797V91.4572C37.0074 91.1867 37.2741 90.9764 37.5972 90.8261C37.9278 90.6683 38.2884 90.5894 38.6791 90.5894Z" fill="#BF272D"/>
<path d="M42.2645 93.8014C42.2645 93.1553 42.396 92.5918 42.659 92.1109C42.922 91.6225 43.2864 91.2469 43.7522 90.9839C44.218 90.7134 44.7515 90.5782 45.3526 90.5782C46.1264 90.5782 46.7651 90.7735 47.2685 91.1642C47.7794 91.5474 48.1213 92.0884 48.2941 92.7871H46.5923C46.5021 92.5166 46.3481 92.3062 46.1302 92.156C45.9198 91.9982 45.6568 91.9193 45.3413 91.9193C44.8905 91.9193 44.5336 92.0846 44.2706 92.4152C44.0076 92.7383 43.8762 93.2003 43.8762 93.8014C43.8762 94.395 44.0076 94.8571 44.2706 95.1876C44.5336 95.5107 44.8905 95.6723 45.3413 95.6723C45.9799 95.6723 46.3969 95.3867 46.5923 94.8157H48.2941C48.1213 95.4919 47.7794 96.0291 47.2685 96.4274C46.7576 96.8256 46.1189 97.0247 45.3526 97.0247C44.7515 97.0247 44.218 96.8932 43.7522 96.6302C43.2864 96.3597 42.922 95.9841 42.659 95.5032C42.396 95.0148 42.2645 94.4476 42.2645 93.8014Z" fill="#BF272D"/>
<path d="M50.2501 89.9358C49.9721 89.9358 49.7392 89.8493 49.5514 89.6765C49.3711 89.4962 49.2809 89.2746 49.2809 89.0116C49.2809 88.7486 49.3711 88.5307 49.5514 88.3579C49.7392 88.1776 49.9721 88.0874 50.2501 88.0874C50.5281 88.0874 50.7573 88.1776 50.9376 88.3579C51.1255 88.5307 51.2194 88.7486 51.2194 89.0116C51.2194 89.2746 51.1255 89.4962 50.9376 89.6765C50.7573 89.8493 50.5281 89.9358 50.2501 89.9358ZM51.0278 90.6796V96.9232H49.45V90.6796H51.0278Z" fill="#BF272D"/>
<path d="M56.0466 90.5894C56.7904 90.5894 57.3915 90.8261 57.8498 91.2994C58.3081 91.7653 58.5373 92.4189 58.5373 93.2605V96.9232H56.9595V93.4746C56.9595 92.9787 56.8355 92.5993 56.5876 92.3363C56.3396 92.0658 56.0015 91.9306 55.5733 91.9306C55.1375 91.9306 54.7919 92.0658 54.5364 92.3363C54.2885 92.5993 54.1645 92.9787 54.1645 93.4746V96.9232H52.5867V90.6796H54.1645V91.4572C54.3749 91.1867 54.6416 90.9764 54.9647 90.8261C55.2953 90.6683 55.6559 90.5894 56.0466 90.5894Z" fill="#BF272D"/>
<path d="M62.4833 90.5782C62.9492 90.5782 63.3587 90.6721 63.7118 90.8599C64.0649 91.0402 64.3429 91.2769 64.5458 91.5699V90.6796H66.1349V96.9683C66.1349 97.5469 66.0184 98.0615 65.7855 98.5123C65.5526 98.9707 65.2032 99.3313 64.7374 99.5943C64.2716 99.8648 63.708 100 63.0469 100C62.1603 100 61.4315 99.7934 60.8605 99.3801C60.2969 98.9669 59.9776 98.4034 59.9025 97.6896H61.469C61.5517 97.9751 61.7283 98.2005 61.9987 98.3658C62.2767 98.5386 62.6111 98.625 63.0018 98.625C63.4601 98.625 63.832 98.486 64.1175 98.208C64.403 97.9376 64.5458 97.5243 64.5458 96.9683V95.9991C64.3429 96.2921 64.0612 96.5363 63.7005 96.7317C63.3474 96.927 62.9417 97.0247 62.4833 97.0247C61.9574 97.0247 61.4766 96.8894 61.0408 96.619C60.605 96.3485 60.2594 95.969 60.0039 95.4807C59.756 94.9848 59.632 94.4175 59.632 93.7789C59.632 93.1478 59.756 92.588 60.0039 92.0996C60.2594 91.6113 60.6012 91.2356 61.0295 90.9726C61.4653 90.7096 61.9499 90.5782 62.4833 90.5782ZM64.5458 93.8014C64.5458 93.4182 64.4706 93.0914 64.3204 92.8209C64.1701 92.5429 63.9673 92.3325 63.7118 92.1898C63.4563 92.0395 63.1821 91.9644 62.8891 91.9644C62.5961 91.9644 62.3256 92.0358 62.0776 92.1785C61.8297 92.3213 61.6268 92.5316 61.469 92.8096C61.3188 93.0801 61.2436 93.4032 61.2436 93.7789C61.2436 94.1545 61.3188 94.4851 61.469 94.7706C61.6268 95.0486 61.8297 95.2628 62.0776 95.4131C62.3331 95.5633 62.6036 95.6385 62.8891 95.6385C63.1821 95.6385 63.4563 95.5671 63.7118 95.4243C63.9673 95.274 64.1701 95.0637 64.3204 94.7932C64.4706 94.5152 64.5458 94.1846 64.5458 93.8014Z" fill="#BF272D"/>
<path d="M76.8868 89.0567V96.9232H75.309V93.576H71.9392V96.9232H70.3614V89.0567H71.9392V92.2912H75.309V89.0567H76.8868Z" fill="#BF272D"/>
<path d="M84.3341 90.6796V96.9232H82.745V96.1343C82.5421 96.4048 82.2754 96.619 81.9448 96.7767C81.6217 96.927 81.2686 97.0021 80.8854 97.0021C80.397 97.0021 79.965 96.9007 79.5893 96.6978C79.2136 96.4875 78.9169 96.1832 78.699 95.785C78.4886 95.3792 78.3834 94.8984 78.3834 94.3424V90.6796H79.9612V94.117C79.9612 94.6129 80.0852 94.9961 80.3331 95.2665C80.5811 95.5295 80.9192 95.661 81.3475 95.661C81.7832 95.661 82.1251 95.5295 82.373 95.2665C82.621 94.9961 82.745 94.6129 82.745 94.117V90.6796H84.3341Z" fill="#BF272D"/>
<path d="M87.4686 91.5925C87.6715 91.2919 87.9495 91.0478 88.3026 90.8599C88.6633 90.6721 89.0728 90.5782 89.5311 90.5782C90.0645 90.5782 90.5454 90.7096 90.9737 90.9726C91.4094 91.2356 91.7513 91.6113 91.9992 92.0996C92.2547 92.5805 92.3824 93.1402 92.3824 93.7789C92.3824 94.4175 92.2547 94.9848 91.9992 95.4807C91.7513 95.969 91.4094 96.3485 90.9737 96.619C90.5454 96.8894 90.0645 97.0247 89.5311 97.0247C89.0653 97.0247 88.6558 96.9345 88.3026 96.7542C87.957 96.5664 87.679 96.3259 87.4686 96.0329V96.9232H85.8908V88.5833H87.4686V91.5925ZM90.7708 93.7789C90.7708 93.4032 90.6919 93.0801 90.5341 92.8096C90.3839 92.5316 90.181 92.3213 89.9255 92.1785C89.6776 92.0358 89.4071 91.9644 89.1141 91.9644C88.8286 91.9644 88.5581 92.0395 88.3026 92.1898C88.0547 92.3325 87.8518 92.5429 87.694 92.8209C87.5438 93.0989 87.4686 93.4258 87.4686 93.8014C87.4686 94.1771 87.5438 94.5039 87.694 94.7819C87.8518 95.0599 88.0547 95.274 88.3026 95.4243C88.5581 95.5671 88.8286 95.6385 89.1141 95.6385C89.4071 95.6385 89.6776 95.5633 89.9255 95.4131C90.181 95.2628 90.3839 95.0486 90.5341 94.7706C90.6919 94.4927 90.7708 94.1621 90.7708 93.7789Z" fill="#BF272D"/>
</svg>
