<svg width="27" height="26" viewBox="0 0 27 26" fill="none" xmlns="http://www.w3.org/2000/svg">
<path d="M26 12.9986C26.0039 15.3812 25.2658 17.7105 23.8805 19.6873C22.7381 21.3235 21.1932 22.6642 19.3827 23.5908C17.5722 24.5174 15.5517 25.0014 13.5 24.9999C11.4483 25.0014 9.42782 24.5174 7.61728 23.5908C5.80674 22.6642 4.26192 21.3235 3.11944 19.6873C2.03157 18.1303 1.33875 16.3503 1.09654 14.49C0.854319 12.6296 1.06944 10.7406 1.72465 8.97448C2.37986 7.20833 3.45694 5.61412 4.86954 4.31966C6.28213 3.0252 7.99096 2.06649 9.85903 1.52039C11.7271 0.974296 13.7024 0.855995 15.6267 1.17498C17.551 1.49396 19.3707 2.24135 20.9399 3.35724C22.509 4.47312 23.7841 5.92647 24.6629 7.60075C25.5416 9.27504 25.9995 11.1237 26 12.9986Z" stroke="#BF272D" stroke-width="2"/>
<path d="M15.2361 8.99813C15.2361 9.91823 14.4583 10.665 13.5 10.665V12.6652C14.513 12.6652 15.4845 12.2789 16.2008 11.5911C16.917 10.9034 17.3194 9.9707 17.3194 8.99813H15.2361ZM13.5 10.665C12.5417 10.665 11.7639 9.91823 11.7639 8.99813H9.68056C9.68056 9.9707 10.083 10.9034 10.7992 11.5911C11.5155 12.2789 12.487 12.6652 13.5 12.6652V10.665ZM11.7639 8.99813C11.7639 8.07803 12.5417 7.33128 13.5 7.33128V5.33105C12.487 5.33105 11.5155 5.71741 10.7992 6.40512C10.083 7.09283 9.68056 8.02556 9.68056 8.99813H11.7639ZM13.5 7.33128C14.4583 7.33128 15.2361 8.07803 15.2361 8.99813H17.3194C17.3194 8.02556 16.917 7.09283 16.2008 6.40512C15.4845 5.71741 14.513 5.33105 13.5 5.33105V7.33128ZM4.00834 20.8074L3.00973 20.5221L2.84723 21.0448L3.21806 21.4582L4.00834 20.8074ZM22.9917 20.8074L23.7833 21.4595L24.1528 21.0461L23.9903 20.5221L22.9917 20.8074ZM9.33334 17.9991H17.6667V15.9989H9.33334V17.9991ZM9.33334 15.9989C7.91253 15.9985 6.52957 16.4386 5.39019 17.2536C4.25082 18.0685 3.41593 19.2149 3.00973 20.5221L5.00695 21.0928C5.28507 20.1987 5.85636 19.4146 6.63585 18.8572C7.41534 18.2998 8.3614 17.9989 9.33334 17.9991V15.9989ZM13.5 23.9998C11.8464 24.0016 10.2121 23.659 8.70984 22.9955C7.20758 22.332 5.87315 21.3634 4.79862 20.1567L3.21806 21.4582C4.48815 22.8836 6.06506 24.0291 7.84013 24.8129C9.61519 25.5968 11.5462 26.0018 13.5 26V23.9998ZM17.6667 17.9991C19.7083 17.9991 21.4375 19.3033 21.993 21.0928L23.9903 20.5221C23.5841 19.2149 22.7492 18.0685 21.6098 17.2536C20.4704 16.4386 19.0875 15.9985 17.6667 15.9989V17.9991ZM22.2014 20.1567C21.1269 21.3634 19.7924 22.332 18.2902 22.9955C16.7879 23.659 15.1536 24.0016 13.5 23.9998V26C15.4538 26.0018 17.3848 25.5968 19.1599 24.8129C20.9349 24.0291 22.5132 22.885 23.7833 21.4595L22.2014 20.1567Z" fill="#BF272D"/>
</svg>
