<svg width="8" height="13" viewBox="0 0 8 13" fill="none" xmlns="http://www.w3.org/2000/svg">
<path d="M5.33333 5.85H4.66667V3.25H6C6.17681 3.25 6.34638 3.31848 6.4714 3.44038C6.59643 3.56228 6.66667 3.72761 6.66667 3.9C6.66667 4.07239 6.7369 4.23772 6.86193 4.35962C6.98695 4.48152 7.15652 4.55 7.33333 4.55C7.51014 4.55 7.67971 4.48152 7.80474 4.35962C7.92976 4.23772 8 4.07239 8 3.9C8 3.38283 7.78929 2.88684 7.41421 2.52114C7.03914 2.15545 6.53043 1.95 6 1.95H4.66667V0.65C4.66667 0.477609 4.59643 0.312279 4.4714 0.190381C4.34638 0.0684819 4.17681 0 4 0C3.82319 0 3.65362 0.0684819 3.5286 0.190381C3.40357 0.312279 3.33333 0.477609 3.33333 0.65V1.95H2.66667C1.95942 1.95 1.28115 2.22393 0.781048 2.71152C0.280951 3.19912 0 3.86044 0 4.55C0 5.23956 0.280951 5.90088 0.781048 6.38848C1.28115 6.87607 1.95942 7.15 2.66667 7.15H3.33333V9.75H2C1.82319 9.75 1.65362 9.68152 1.5286 9.55962C1.40357 9.43772 1.33333 9.27239 1.33333 9.1C1.33333 8.92761 1.2631 8.76228 1.13807 8.64038C1.01305 8.51848 0.843478 8.45 0.666667 8.45C0.489856 8.45 0.320287 8.51848 0.195262 8.64038C0.070238 8.76228 0 8.92761 0 9.1C0 9.61717 0.210714 10.1132 0.585787 10.4789C0.960859 10.8446 1.46957 11.05 2 11.05H3.33333V12.35C3.33333 12.5224 3.40357 12.6877 3.5286 12.8096C3.65362 12.9315 3.82319 13 4 13C4.17681 13 4.34638 12.9315 4.4714 12.8096C4.59643 12.6877 4.66667 12.5224 4.66667 12.35V11.05H5.33333C6.04058 11.05 6.71885 10.7761 7.21895 10.2885C7.71905 9.80088 8 9.13956 8 8.45C8 7.76044 7.71905 7.09912 7.21895 6.61152C6.71885 6.12393 6.04058 5.85 5.33333 5.85ZM3.33333 5.85H2.66667C2.31304 5.85 1.97391 5.71304 1.72386 5.46924C1.47381 5.22544 1.33333 4.89478 1.33333 4.55C1.33333 4.20522 1.47381 3.87456 1.72386 3.63076C1.97391 3.38696 2.31304 3.25 2.66667 3.25H3.33333V5.85ZM5.33333 9.75H4.66667V7.15H5.33333C5.68696 7.15 6.02609 7.28696 6.27614 7.53076C6.52619 7.77456 6.66667 8.10522 6.66667 8.45C6.66667 8.79478 6.52619 9.12544 6.27614 9.36924C6.02609 9.61304 5.68696 9.75 5.33333 9.75Z" fill="#44B40D"/>
</svg>
