<svg width="70" height="70" viewBox="0 0 70 70" fill="none" xmlns="http://www.w3.org/2000/svg">
<path fill-rule="evenodd" clip-rule="evenodd" d="M35 0C15.6695 0 0 15.6695 0 35C0 54.3305 15.6695 70 35 70C54.3305 70 70 54.3305 70 35C70 15.6695 54.3305 0 35 0ZM22.75 26.25C22.75 24.6413 23.0669 23.0484 23.6825 21.5621C24.2981 20.0759 25.2004 18.7255 26.3379 17.5879C27.4755 16.4504 28.8259 15.5481 30.3121 14.9325C31.7984 14.3169 33.3913 14 35 14C36.6087 14 38.2016 14.3169 39.6879 14.9325C41.1741 15.5481 42.5245 16.4504 43.6621 17.5879C44.7996 18.7255 45.7019 20.0759 46.3175 21.5621C46.9332 23.0484 47.25 24.6413 47.25 26.25C47.25 29.4989 45.9594 32.6147 43.6621 34.9121C41.3647 37.2094 38.2489 38.5 35 38.5C31.7511 38.5 28.6353 37.2094 26.3379 34.9121C24.0406 32.6147 22.75 29.4989 22.75 26.25ZM56.903 52.444C54.2822 55.7387 50.9513 58.3992 47.1588 60.227C43.3662 62.0548 39.21 63.0027 35 63C30.79 63.0027 26.6338 62.0548 22.8412 60.227C19.0487 58.3992 15.7178 55.7387 13.097 52.444C18.7705 48.3735 26.5125 45.5 35 45.5C43.4875 45.5 51.2295 48.3735 56.903 52.444Z" fill="#A6A5A5"/>
</svg>
